<svg width="129" height="133" viewBox="0 0 129 133" fill="none" xmlns="http://www.w3.org/2000/svg">
<path d="M43.8957 40.5801C44.4067 40.5801 44.9178 40.5801 45.4702 40.5801C41.2727 29.0126 43.4673 19.2774 53.8014 12.1915C61.2269 7.09911 71.268 7.35017 78.4831 12.7761C88.0581 19.9744 90.0235 29.4547 85.9011 40.5801C86.4497 40.5801 86.9458 40.5801 87.4456 40.5801M85.9011 40.6063H77.9344C78.9302 40.6213 79.4639 40.2578 79.9298 39.4559C81.9967 35.8849 82.7633 32.0965 82.0681 28.0083C80.952 21.447 75.9803 16.2459 69.2462 14.6759C62.8541 13.1845 56.0148 15.845 52.0953 21.3533C48.2849 26.708 48.0894 34.0375 51.5504 39.5946C52.0427 40.3815 52.5914 40.6138 53.482 40.6026L45.4777 40.5838" fill="#101F9D"/>
<path d="M84.6947 40.9774C85.2434 40.9774 85.7394 40.9774 86.2392 40.9774C96.5508 40.9774 106.862 40.9774 117.174 40.9774C119.804 40.9774 120.571 41.6556 121.03 44.2074C123.604 58.5441 126.197 72.877 128.778 87.21C128.868 87.7158 128.966 88.2254 128.989 88.7351C129.071 90.4738 127.978 91.6878 126.212 91.7515C124.769 91.804 123.326 91.7628 121.728 91.7628C121.728 92.7783 121.744 93.6551 121.728 94.5319C121.631 100.096 117.982 103.72 112.398 103.731C100.256 103.75 88.1181 103.739 75.9765 103.739C75.3752 103.739 74.774 103.739 74.075 103.739V115.175C75.736 115.175 77.3594 115.171 78.9828 115.175C85.4162 115.194 88.9674 118.75 88.9712 125.169C88.9712 125.858 88.9712 126.548 88.9712 127.391C92.2668 127.391 95.4385 127.391 98.6101 127.391C99.4068 127.391 100.203 127.372 101 127.395C102.477 127.436 103.544 128.204 103.867 129.422C104.224 130.775 103.706 131.929 102.379 132.716C102.221 132.809 102.06 132.903 101.902 132.997H27.0829C25.8278 132.375 24.9221 131.524 25.0349 129.976C25.1476 128.41 26.3088 127.402 28.1238 127.395C32.0132 127.376 35.9026 127.387 40.0175 127.387C40.0175 126.334 40.0099 125.326 40.0175 124.322C40.0588 119.241 43.5085 115.535 48.6004 115.228C50.6522 115.104 52.7153 115.209 54.8949 115.209V103.731C53.527 103.731 52.1441 103.746 50.7574 103.724C50.1073 103.713 49.4347 103.713 48.8071 103.563C47.5106 103.248 46.6952 102.041 46.7816 100.726C46.868 99.4108 47.8301 98.3615 49.1679 98.1892C49.7691 98.1105 50.3854 98.1255 50.9904 98.1255C71.1927 98.1255 91.395 98.1255 111.597 98.1217C112.157 98.1217 112.728 98.1367 113.281 98.0618C114.885 97.8407 115.911 96.8102 116.047 95.1914C116.133 94.1272 116.062 93.0518 116.062 91.8714H12.9834C12.9496 92.1113 12.8969 92.3323 12.8894 92.5534C12.7278 97.3685 13.4569 98.1217 18.2557 98.1217C20.1759 98.1217 22.1 98.0955 24.0202 98.133C25.9104 98.1742 27.0754 99.2496 27.0942 100.88C27.113 102.547 25.8879 103.694 23.9488 103.72C21.3258 103.754 18.6991 103.784 16.0761 103.716C11.1007 103.585 7.54199 100.089 7.2827 95.139C7.22633 94.071 7.27518 92.9956 7.27518 91.7628C5.98999 91.7628 4.82881 91.7628 3.67139 91.7628C0.710192 91.759 -0.387105 90.5337 0.123965 87.6709C1.35654 80.7311 2.6267 73.7951 3.88183 66.8591C5.24218 59.3235 6.61004 51.7917 7.9516 44.2524C8.42133 41.6144 9.15411 40.9736 11.9011 40.9736C22.1676 40.9736 32.4303 40.9736 42.6968 40.9736C43.2079 40.9736 43.719 40.9736 44.2714 40.9736H84.6985L84.6947 40.9774ZM45.6392 127.297H83.3494C83.3494 126.465 83.3494 125.723 83.3494 124.981C83.3456 121.965 82.2183 120.788 79.2308 120.785C69.4002 120.77 59.5659 120.77 49.7353 120.785C46.8004 120.788 45.6467 121.965 45.6355 124.858C45.6355 125.645 45.6355 126.428 45.6355 127.293L45.6392 127.297ZM122.86 86.1008C122.352 83.3092 121.807 80.7049 121.432 78.0781C121.27 76.9465 120.838 76.6579 119.737 76.6654C112.525 76.7141 105.314 76.6917 98.1028 76.6917H96.6184C97.0769 79.9779 97.5015 83.0431 97.9262 86.1008H122.856H122.86ZM32.3552 76.6954C24.2758 76.6954 16.4218 76.6917 8.56789 76.7179C8.28605 76.7179 7.79753 77.0139 7.75243 77.2387C7.18499 80.154 6.68144 83.0843 6.14407 86.0971H31.0587C31.4833 83.0131 31.9042 79.9742 32.3589 76.6954H32.3552ZM61.6327 76.7853H38.0295C37.6012 79.9255 37.1803 82.9906 36.7594 86.0708H61.6327V76.7853ZM90.944 76.7966H67.3935V86.0858H92.2255C91.7933 82.9569 91.3724 79.9142 90.944 76.7966ZM13.2389 46.6506C12.679 49.7533 12.1303 52.8109 11.5591 55.9736H35.2337C35.6621 52.8672 36.0867 49.7945 36.5189 46.6506H13.2389ZM93.7474 55.9473H117.426C116.847 52.766 116.291 49.712 115.738 46.6618H92.4697C92.9019 49.7907 93.319 52.8297 93.7474 55.9473ZM8.84221 71.0821H10.4844C14.2272 71.0821 17.9701 71.0821 21.7129 71.0821C25.1288 71.0821 28.5447 71.1046 31.9606 71.0522C32.3928 71.0447 33.1481 70.6924 33.1969 70.4077C33.6704 67.571 34.0274 64.712 34.4295 61.7629H10.5107C9.95454 64.8731 9.41341 67.8896 8.83845 71.0784L8.84221 71.0821ZM120.139 70.9997C119.564 67.8408 119.008 64.7869 118.459 61.7667H94.5441C94.9311 64.5096 95.3821 67.1251 95.6376 69.7631C95.7466 70.8985 96.1863 71.1046 97.2047 71.1009C104.408 71.0634 111.616 71.0821 118.82 71.0784C119.229 71.0784 119.639 71.0297 120.139 70.9997ZM61.6102 61.6693C54.628 61.6693 47.7474 61.6618 40.8705 61.6917C40.5962 61.6917 40.1152 62.0028 40.0813 62.2238C39.6379 65.1129 39.2584 68.0132 38.8488 71.0072H61.6139V61.6693H61.6102ZM67.3973 61.7404V70.9885H90.1511C89.7641 68.253 89.3207 65.6338 89.0576 62.9995C88.9486 61.8866 88.539 61.6393 87.5018 61.643C81.2262 61.6842 74.9506 61.6618 68.6749 61.6655C68.2653 61.6655 67.8557 61.7105 67.3973 61.7404ZM61.6365 46.6581H42.2121C41.7874 49.7795 41.3665 52.8409 40.9419 55.9548H61.6365V46.6581ZM67.4085 46.6319V55.9511H88.0655C87.6221 52.7697 87.1899 49.7045 86.7616 46.6319H67.4085ZM68.2616 103.866H60.7233V115.078H68.2616V103.866Z" fill="#1ABDFE"/>
<path d="M101.391 33.6216C100.267 33.6216 99.1398 33.6666 98.02 33.6104C96.5356 33.5355 95.4609 32.4525 95.3557 31.0361C95.2542 29.6384 96.1862 28.2407 97.6555 28.1508C100.218 27.9971 102.804 27.9896 105.367 28.1508C106.911 28.2444 107.79 29.6309 107.648 31.156C107.516 32.5649 106.445 33.5579 104.901 33.6179C103.732 33.6629 102.559 33.6254 101.387 33.6254C101.387 33.6254 101.387 33.6216 101.387 33.6179L101.391 33.6216Z" fill="#101F9D"/>
<path d="M29.7209 33.629C28.6461 33.629 27.5676 33.6664 26.4928 33.6215C24.9521 33.5578 23.8774 32.5648 23.7496 31.1596C23.6106 29.642 24.4974 28.248 26.0306 28.1543C28.5897 27.997 31.1751 28.0045 33.7343 28.1581C35.2036 28.248 36.1205 29.6307 36.0228 31.0397C35.9213 32.4598 34.8579 33.539 33.366 33.614C32.1522 33.6739 30.9346 33.6252 29.7171 33.6252C29.7171 33.6252 29.7171 33.6252 29.7171 33.629H29.7209Z" fill="#101F9D"/>
<path d="M45.782 8.23438C45.2183 8.95009 44.7411 9.86815 43.9932 10.4227C43.1064 11.0785 41.9415 10.9698 41.1222 10.2129C39.2734 8.50043 37.4621 6.73551 35.756 4.88066C34.8015 3.83895 35.057 2.16397 36.0792 1.20094C37.0713 0.267899 38.627 0.0992764 39.6604 1.04731C41.483 2.71855 43.2154 4.49471 44.9177 6.2896C45.301 6.69429 45.4062 7.35754 45.782 8.23438Z" fill="#101F9D"/>
<path d="M96.1975 3.68153C95.9945 4.04126 95.724 4.80943 95.2167 5.35651C93.7887 6.8966 92.2818 8.36924 90.7636 9.82314C89.4446 11.0859 87.7836 11.0934 86.6374 9.92057C85.5627 8.82264 85.589 7.14016 86.7802 5.90735C88.3059 4.32979 89.873 2.78595 91.4475 1.25711C92.3419 0.391511 93.4129 0.2079 94.5553 0.710021C95.6488 1.19341 96.1599 2.08523 96.2012 3.68153H96.1975Z" fill="#101F9D"/>
<path d="M40.5736 101.411C40.5736 102.967 39.2621 104.252 37.7101 104.211C36.207 104.173 34.9707 102.914 34.9631 101.423C34.9594 99.8526 36.2295 98.6273 37.8342 98.6573C39.3749 98.6873 40.5699 99.8901 40.5699 101.411H40.5736Z" fill="#101F9D"/>
</svg>
