<svg width="152" height="143" viewBox="0 0 152 143" fill="none" xmlns="http://www.w3.org/2000/svg">
<g clip-path="url(#clip0_1178_2291)">
<path d="M118.025 27.4665V22.3899C117.472 22.3362 116.927 22.2907 116.387 22.2369C113.841 21.9765 112.009 20.1286 111.881 17.5738C111.803 15.978 111.795 14.374 111.885 12.7783C112.038 10.1284 114.324 8.00764 116.75 8.16887C117.901 8.24328 118.689 8.82618 118.982 9.9589C119.275 11.0875 118.949 12.1665 117.893 12.5675C116.746 13.0015 116.647 13.6961 116.713 14.6841C116.77 15.544 116.725 16.408 116.725 17.3547H134.243V12.9809C133.013 12.9809 131.796 13.0057 130.579 12.9767C128.743 12.9313 127.617 11.9598 127.662 10.4963C127.704 9.07422 128.793 8.18127 130.546 8.1606C131.78 8.14406 133.017 8.13993 134.251 8.1606C136.978 8.21434 138.963 9.99197 139.169 12.708C139.293 14.3492 139.289 16.0111 139.173 17.6523C138.979 20.4056 137.51 21.6623 133.694 22.4519C133.694 25.5979 133.678 28.7852 133.698 31.9684C133.711 33.9734 133.162 36.3009 133.995 37.8925C134.796 39.418 137.044 40.191 138.666 41.2783C141.826 43.399 145.04 45.4495 148.151 47.6447C151.142 49.753 152.569 52.6964 151.806 56.3592C150.63 61.9773 144.256 64.404 139.231 61.1505C133.917 57.711 128.685 54.1475 123.421 50.6336C108.053 40.3812 92.6761 30.1453 77.3366 19.8516C76.297 19.153 75.641 19.2274 74.6467 19.893C54.2903 33.5187 33.9051 47.099 13.5405 60.704C11.1064 62.3328 8.54429 63.0894 5.65629 62.2543C0.268087 60.6916 -1.77002 54.1268 1.79048 49.6249C2.54136 48.674 3.52741 47.8555 4.53821 47.1775C27.634 31.7411 50.7546 16.3294 73.8752 0.913655C75.7152 -0.31415 76.3011 -0.305882 78.1948 0.954995C90.8236 9.376 103.452 17.8011 116.085 26.2221C116.667 26.6107 117.261 26.9787 118.029 27.4706L118.025 27.4665ZM144.107 58.1079C145.056 57.4092 146.352 56.9255 146.735 56.0409C147.132 55.1314 146.797 53.7878 146.471 52.7295C146.29 52.1383 145.527 51.6671 144.937 51.2743C122.299 36.1562 99.6486 21.0629 77.019 5.93649C76.2598 5.42801 75.7524 5.42801 74.9891 5.93649C52.3595 21.067 29.7093 36.1645 7.07553 51.2826C6.4443 51.7043 5.64803 52.2086 5.44175 52.8453C5.11169 53.8457 4.92191 55.0776 5.21071 56.0533C5.56965 57.2563 6.81149 57.897 8.07396 57.6573C9.19203 57.4423 10.3349 56.9834 11.2838 56.355C32.1063 42.5102 52.9041 28.624 73.706 14.7461C75.8142 13.3405 76.1897 13.3364 78.2773 14.7296C85.4272 19.4961 92.573 24.2668 99.7228 29.0374C113.462 38.2025 127.2 47.3759 140.951 56.5245C141.822 57.1033 142.833 57.4795 144.107 58.112V58.1079ZM128.677 34.4943V22.3734H122.98V30.629C124.733 31.861 126.491 33.0929 128.248 34.3248C128.331 34.3827 128.438 34.4034 128.677 34.4985V34.4943Z" fill="#1ABCFD"/>
<path d="M75.7524 125.84C75.0469 120.937 74.296 116.315 70.521 112.789C68.5035 114.657 66.2632 116.021 63.4784 116.307C60.743 116.588 58.3047 115.815 55.9902 114.438C49.6489 110.664 45.0364 105.161 40.8157 99.2579C40.3949 98.6708 39.9823 98.0797 39.6152 97.4596C38.5053 95.6034 39.149 93.7183 41.2489 93.495C46.3483 92.9493 51.4766 92.354 56.5884 92.3871C59.8601 92.4078 63.2308 93.185 66.3664 94.2143C71.6473 95.9465 74.5023 101.106 73.409 106.592C73.0954 108.179 73.442 109.089 74.5601 110.002C75.1005 110.445 75.5337 111.023 76.1567 111.697C76.4331 110.54 76.594 109.543 76.9158 108.601C77.4976 106.902 77.9762 105.12 78.8632 103.586C79.8534 101.866 80.4145 100.353 80.1463 98.2161C79.7708 95.2396 81.4046 92.8832 84.0616 91.3991C87.8944 89.2577 92.1274 88.7409 96.4016 88.435C97.4785 88.3564 98.5635 88.3482 99.6403 88.4102C101.489 88.5218 102.623 90.1341 101.827 91.7794C99.4671 96.6369 96.5956 101.143 92.0531 104.301C89.4539 106.108 86.6897 106.141 83.7315 104.69C79.9895 111.342 80.2618 118.46 80.695 125.835H82.5681C95.791 125.835 109.014 125.835 122.237 125.835C122.753 125.835 123.281 125.773 123.776 125.885C124.952 126.141 125.694 126.873 125.74 128.13C125.785 129.366 125.187 130.213 123.986 130.519C123.4 130.668 122.765 130.681 122.15 130.681C91.6406 130.689 61.1308 130.689 30.6169 130.685C30.2044 130.685 29.7918 130.701 29.3834 130.66C27.861 130.507 26.8914 129.54 26.9079 128.217C26.9244 126.819 27.9641 125.885 29.5855 125.844C30.4065 125.823 31.2317 125.84 32.0568 125.84C45.9481 125.84 59.8395 125.84 73.7308 125.84H75.7524ZM68.6768 105.182C69.11 102.226 67.5504 99.7043 64.6171 98.6295C59.6662 96.8229 54.5338 96.856 49.3766 97.2322C48.1884 97.319 47.0126 97.4968 45.8285 97.6373C45.7542 97.7944 45.68 97.9515 45.6098 98.1045C48.1802 100.895 50.6061 103.847 53.3745 106.422C55.3053 108.22 57.6033 109.692 59.9261 110.97C62.2819 112.268 64.9636 111.561 66.6675 109.341C63.4784 107.964 60.3964 106.608 57.2898 105.31C55.7715 104.673 55.0619 103.537 55.5075 102.205C55.9654 100.841 57.1866 100.2 58.7255 100.721C60.6646 101.383 62.5831 102.135 64.4562 102.966C65.8919 103.603 67.2493 104.421 68.6768 105.178V105.182ZM95.3042 93.6232C95.2299 93.4247 95.1557 93.2222 95.0773 93.0237C92.3419 93.8051 89.5488 94.4376 86.8836 95.4173C84.9033 96.1449 84.3504 97.9928 85.2746 99.5307C86.1822 101.031 88.0223 101.288 89.6973 100.072C92.0655 98.3566 93.7983 96.0829 95.3001 93.6232H95.3042Z" fill="#1ABCFD"/>
<path d="M75.9959 142.996C53.9687 142.996 31.9414 143.025 9.91828 142.942C8.08646 142.934 6.08548 142.529 4.46407 141.71C1.08097 140.003 -0.453797 135.968 0.482743 132.334C1.44816 128.581 4.71161 125.947 8.54854 125.848C9.73262 125.819 10.9167 125.811 12.1008 125.848C13.5572 125.898 14.4978 126.778 14.5721 128.085C14.6546 129.474 13.7841 130.499 12.2576 130.635C11.1354 130.735 9.99254 130.652 8.86209 130.697C6.65483 130.784 5.07468 132.31 5.02929 134.344C4.98804 136.353 6.55994 137.99 8.71769 138.172C9.12614 138.205 9.53871 138.188 9.95129 138.188C54.0017 138.188 98.0562 138.188 142.107 138.18C142.82 138.18 143.559 138.147 144.24 137.961C145.981 137.485 147.103 135.828 146.946 134.12C146.777 132.285 145.387 130.863 143.526 130.73C142.346 130.648 141.158 130.73 139.978 130.668C138.261 130.586 137.218 129.569 137.284 128.13C137.35 126.749 138.398 125.827 140.044 125.852C141.785 125.877 143.575 125.79 145.254 126.154C149.438 127.059 152.025 130.85 151.695 135.249C151.394 139.296 148.064 142.591 143.922 142.926C143.154 142.988 142.379 142.992 141.607 142.992C119.737 142.992 97.8623 142.992 75.9918 142.992L75.9959 142.996Z" fill="#1ABCFD"/>
<path d="M18.1986 96.3846C18.1986 86.2645 18.1986 76.1403 18.1986 66.0202C18.1986 65.5696 18.1779 65.1148 18.2233 64.6642C18.3388 63.5191 19.296 62.7047 20.5172 62.6757C21.788 62.6427 22.807 63.4819 22.939 64.6932C22.9762 65.0528 22.9638 65.4166 22.9638 65.7763C22.9638 86.1115 22.9638 106.443 22.9638 126.778C22.9638 127.183 22.9803 127.592 22.9267 127.997C22.7781 129.151 21.8251 129.903 20.5626 129.895C19.3084 129.887 18.3512 129.114 18.2233 127.969C18.1738 127.522 18.1986 127.067 18.1986 126.613C18.1986 116.538 18.1986 106.459 18.1986 96.3846Z" fill="#1ABCFD"/>
<path d="M129.024 96.3972C129.024 86.3308 129.024 76.2645 129.024 66.1981C129.024 65.8385 129.015 65.4747 129.024 65.115C129.077 63.5978 130.022 62.647 131.446 62.6759C132.873 62.7007 133.781 63.6392 133.781 65.1853C133.789 85.905 133.789 106.625 133.781 127.344C133.781 129.002 132.89 129.912 131.363 129.891C129.849 129.87 129.024 128.977 129.024 127.274C129.015 116.98 129.02 106.691 129.02 96.3972H129.024Z" fill="#1ABCFD"/>
<path d="M123.396 8.15234C125.084 8.16888 126.123 9.12384 126.086 10.6245C126.049 12.0962 124.956 13.0016 123.26 12.9726C121.635 12.9437 120.479 11.8936 120.529 10.4839C120.578 9.06183 121.713 8.13994 123.4 8.15648L123.396 8.15234Z" fill="#1ABCFD"/>
<path d="M71.9363 68.7447C68.1571 68.4843 64.5223 68.2362 60.8834 67.9841C60.0624 67.9262 59.2332 67.9179 58.4245 67.7898C56.0687 67.4177 55.3055 65.9253 56.3988 63.7839C59.8809 56.9504 63.3919 50.1334 66.8905 43.3081C68.7925 39.5999 70.6903 35.8875 72.6005 32.1793C73.4793 30.4761 74.5437 29.8766 75.8557 30.319C77.1388 30.7531 77.605 31.8775 77.3987 33.7792C76.718 40.1332 76.062 46.4872 75.4101 52.8453C75.3647 53.2959 75.406 53.7589 75.406 54.4038C77.9103 54.5857 80.4022 54.7759 82.8983 54.9495C84.7466 55.0777 86.595 55.1769 88.4392 55.3174C91.2158 55.5241 92.0987 57.1323 90.8321 59.6499C90.2999 60.7082 89.7759 61.7706 89.2148 62.8124C88.3814 64.3668 87.0983 64.896 85.8028 64.2511C84.5527 63.6268 84.2062 62.3949 84.8292 60.8074C84.9199 60.5759 85.0066 60.3403 85.1551 59.9558C81.0541 59.6623 77.0687 59.3894 73.0832 59.0835C70.7604 58.9058 70.0343 57.9467 70.286 55.6523C70.6449 52.3823 70.9585 49.1081 71.0616 45.7389C68.1117 51.4852 65.1659 57.2273 62.0964 63.201C64.0644 63.354 65.8219 63.5069 67.5836 63.6268C69.7373 63.7756 71.8991 63.879 74.0528 64.0361C76.5571 64.2221 77.3038 65.1771 77.0315 67.6327C76.6726 70.9068 76.3632 74.1892 76.2353 77.5667C76.751 76.6201 77.2585 75.6651 77.7907 74.7267C78.6117 73.2798 79.8659 72.8209 81.1284 73.4782C82.428 74.152 82.7869 75.4997 81.9865 77.0583C79.5647 81.7752 77.1058 86.4714 74.6634 91.1759C74.0156 92.4286 73.1286 93.2802 71.6021 92.8792C70.2736 92.5278 69.7125 91.395 69.8982 89.6753C70.5789 83.2717 71.2514 76.864 71.9156 70.4604C71.9693 69.956 71.9239 69.4434 71.9239 68.7489L71.9363 68.7447Z" fill="#101F9D"/>
<path d="M85.9432 68.6208C85.968 70.2703 84.656 71.7668 83.1872 71.7627C81.8464 71.7585 80.8479 70.7664 80.8314 69.427C80.8149 67.8436 82.2136 66.2396 83.5957 66.252C84.8994 66.2644 85.9226 67.2979 85.9432 68.625V68.6208Z" fill="#101F9D"/>
</g>
<defs>
<clipPath id="clip0_1178_2291">
<rect width="152" height="143" fill="white"/>
</clipPath>
</defs>
</svg>
