<svg width="122" height="118" viewBox="0 0 122 118" fill="none" xmlns="http://www.w3.org/2000/svg">
<path d="M122 109.56C119.523 112.148 117.096 114.781 114.549 117.299C113.534 118.301 111.862 118.184 110.736 117.242C110.01 116.633 109.36 115.938 108.687 115.266C103.986 110.569 99.298 105.855 94.5781 101.174C93.5789 100.181 93.0206 99.1124 93.3188 97.6788C93.3664 97.4537 93.3093 97.1111 93.1602 96.9525C91.866 95.5855 90.5402 94.2502 89.0017 92.6802C88.9669 93.4446 88.9288 93.8569 88.9288 94.2693C88.9256 99.8863 88.9288 105.507 88.9256 111.124C88.9256 113.997 87.8535 115.079 85.005 115.079C68.663 115.079 52.3209 115.079 35.982 115.079C35.5855 115.079 35.1858 115.098 34.7988 115.034C33.9519 114.898 33.4634 114.365 33.3778 113.521C33.2858 112.63 33.6569 111.945 34.5292 111.685C35.0463 111.533 35.6204 111.526 36.1691 111.523C51.9973 111.517 67.8224 111.517 83.6506 111.517C84.1613 111.517 84.672 111.517 85.2747 111.517V94.2978C84.1835 94.7609 83.1811 95.1859 82.1058 95.6458C82.1058 98.5637 82.1058 101.488 82.1058 104.412C82.1027 107.165 80.9734 108.295 78.2075 108.295C56.3652 108.295 34.526 108.295 12.6838 108.295C12.1318 108.295 11.5831 108.295 10.936 108.295V111.52C11.3705 111.52 11.7924 111.52 12.2143 111.52C16.8042 111.52 21.394 111.517 25.9839 111.526C26.4533 111.526 26.945 111.546 27.3859 111.688C28.2519 111.971 28.6198 112.643 28.5215 113.537C28.4295 114.384 27.9315 114.895 27.0877 115.041C26.8562 115.082 26.6151 115.079 26.3772 115.079C21.153 115.079 15.9319 115.091 10.7076 115.076C8.4428 115.069 7.31041 113.899 7.28186 111.615C7.26917 110.559 7.28186 109.5 7.28186 108.295C6.08919 108.295 5.03292 108.31 3.97665 108.295C1.65475 108.256 0.446227 107.064 0.446227 104.774C0.443055 71.027 0.443055 37.2769 0.446227 3.53004C0.446227 1.23055 1.62938 0.0443376 3.96713 0.018964C6.46031 -0.00958134 8.95349 0.0126206 11.4467 0.0126206C33.5237 0.0126206 55.6039 0.0126206 77.6809 0.0126206C78.1567 0.0126206 78.6325 0.00310547 79.1051 0.0411659C80.8688 0.180721 82.017 1.34156 82.0932 3.11455C82.1439 4.29125 82.1027 5.47429 82.1027 6.80641C83.0543 6.80641 83.9107 6.80641 84.764 6.80641C87.9011 6.80641 88.932 7.8499 88.932 11.0248C88.932 19.6486 88.932 28.2757 88.932 36.8995C88.932 37.3721 88.932 37.8479 88.932 38.479C90.6131 38.7264 91.0762 40.0744 91.5076 41.4604C92.4719 44.5687 94.5432 46.57 97.6264 47.5564C98.0038 47.677 98.3781 47.8038 98.7461 47.9434C99.8595 48.3652 100.497 49.1486 100.475 50.3666C100.453 51.5274 99.8341 52.2791 98.7588 52.6787C98.4289 52.8024 98.1053 52.9356 97.7057 53.0911C103.146 63.8304 102.727 74.3034 96.3798 84.6019C97.8516 86.0609 99.3234 87.5516 100.843 88.9915C101.074 89.2104 101.55 89.3341 101.867 89.2738C103.028 89.0518 103.989 89.388 104.798 90.1809C106.717 92.0681 108.62 93.9679 110.508 95.8868C111.371 96.7622 111.421 97.7835 110.723 98.5289C109.975 99.3281 108.931 99.3123 108.008 98.4052C106.21 96.6354 104.443 94.8275 102.749 93.1211C100.865 95.0178 99.0633 96.8288 97.3345 98.5701C102.375 103.607 107.567 108.799 112.684 113.915C114.393 112.199 116.202 110.385 118.149 108.431C116.899 107.219 115.504 105.884 114.13 104.523C113.505 103.905 113.226 103.055 113.8 102.392C114.219 101.91 115.018 101.716 115.684 101.513C115.9 101.447 116.29 101.701 116.503 101.91C118.111 103.489 119.707 105.082 121.274 106.705C121.591 107.035 121.768 107.498 122.009 107.901V109.563L122 109.56ZM54.3129 91.992C54.1004 91.7351 53.9925 91.5701 53.8498 91.4369C52.4097 90.0858 50.9823 88.722 49.5042 87.412C49.1901 87.1329 48.689 86.9363 48.2703 86.9236C46.3734 86.8697 44.4702 86.9363 42.5734 86.8824C41.0445 86.838 40.1056 85.4266 40.9176 84.3101C41.2855 83.8026 42.1261 83.4696 42.7922 83.384C43.9342 83.2349 45.111 83.3427 46.3893 83.3427C45.6756 81.8742 44.9746 80.6722 44.5019 79.3845C44.1499 78.4234 43.6233 78.2141 42.6781 78.2204C33.7743 78.2553 24.8737 78.2395 15.9699 78.2395C15.6147 78.2395 15.2562 78.2585 14.901 78.2268C13.9525 78.1443 13.353 77.6369 13.242 76.6822C13.1247 75.6609 13.6449 75.0075 14.606 74.7538C15.0152 74.6459 15.4688 74.684 15.9033 74.684C24.4106 74.6808 32.9179 74.684 41.4251 74.684H42.8525C42.5892 72.9459 42.3418 71.322 42.0849 69.6378C41.5488 69.6378 41.0794 69.6378 40.6067 69.6378C32.3754 69.6378 24.1473 69.641 15.916 69.6283C15.3704 69.6283 14.6631 69.6949 14.3173 69.3999C13.8193 68.9718 13.2611 68.201 13.3213 67.6428C13.3816 67.0878 14.127 66.5454 14.6789 66.1394C14.939 65.946 15.4466 66.0792 15.843 66.0792C24.1537 66.0792 32.4611 66.0792 40.7717 66.0792H42.0881C42.345 64.2808 42.5734 62.6855 42.824 60.941H41.5044C32.9972 60.941 24.4899 60.941 15.9826 60.941C15.5861 60.941 15.1896 60.96 14.7963 60.9156C13.8986 60.8141 13.3467 60.2972 13.242 59.3996C13.131 58.4481 13.5624 57.7757 14.4854 57.5061C14.8915 57.3887 15.345 57.3855 15.7733 57.3824C19.6114 57.3728 23.4495 57.376 27.2876 57.376C32.5118 57.376 37.7329 57.3824 42.9572 57.3602C43.3442 57.3602 43.9437 57.2682 44.0801 57.0176C45.4313 54.5437 46.7065 52.0254 48.026 49.4785C47.7215 49.4785 47.2996 49.4785 46.8778 49.4785C36.5498 49.4785 26.2218 49.4785 15.897 49.4785C15.4624 49.4785 15.0088 49.5165 14.5996 49.4087C13.6988 49.1708 13.1722 48.565 13.2325 47.5913C13.2928 46.6271 13.8542 46.0816 14.7931 45.9452C15.1801 45.8913 15.5829 45.9198 15.9794 45.9198C27.4938 45.9198 39.0081 45.9198 50.5224 45.9103C50.9823 45.9103 51.5469 45.9452 51.8863 45.7073C54.167 44.1215 56.4032 42.469 58.7188 40.788C57.4214 40.788 56.0924 40.8324 54.7665 40.7722C53.761 40.7278 53.171 40.1347 53.1139 39.1038C53.06 38.1079 53.6848 37.4228 54.7475 37.2801C54.9441 37.2547 55.1408 37.2547 55.3406 37.2547C59.2168 37.2547 63.0961 37.2484 66.9723 37.2611C67.4005 37.2611 67.981 37.2135 68.2316 37.4577C69.199 38.3902 70.3473 38.0635 71.4543 38.1048C72.6375 38.1492 73.827 38.1872 75.0038 38.2982C76.1584 38.4092 77.3035 38.6091 78.5342 38.7803C78.5342 38.3141 78.5342 37.962 78.5342 37.61C78.5342 34.5239 78.5183 31.4378 78.5437 28.3518C78.5564 26.8198 79.9203 25.8208 81.0559 26.5947C81.5951 26.9626 82.0297 27.8697 82.0487 28.5421C82.1471 32.0214 82.0836 35.504 82.1122 38.9865C82.1154 39.3512 82.2676 39.9031 82.5277 40.0458C83.3683 40.5153 84.2945 40.8324 85.262 41.2416V10.4602H82.0932C82.0932 10.9899 82.0932 11.4244 82.0932 11.8558C82.0932 14.428 82.1154 17.0003 82.0836 19.5693C82.0646 21.0632 80.8973 21.9449 79.6507 21.4438C78.7531 21.0822 78.5215 20.3337 78.5247 19.4234C78.5405 14.5961 78.531 9.76878 78.531 4.94145C78.531 4.51961 78.531 4.09777 78.531 3.62202H4.06546V104.622H78.439V96.7654C71.5495 98.0182 67.8414 97.5012 64.2602 96.4229C61.7766 95.6743 59.3246 95.5316 56.7934 95.5348C43.2205 95.5538 29.6507 95.5443 16.0778 95.5443C15.7225 95.5443 15.3641 95.5601 15.0088 95.5348C13.8986 95.4555 13.204 94.7418 13.223 93.7237C13.242 92.7595 13.924 92.0744 14.9644 91.992C15.2784 91.9666 15.5956 91.9825 15.9128 91.9825C21.8889 91.9825 27.8617 91.9825 33.8377 91.9825H54.3097L54.3129 91.992ZM77.0085 49.3897C70.8485 47.2234 61.1961 48.9932 55.7657 57.1794C50.7095 64.7978 51.7785 75.0265 58.2811 81.4397C64.8502 87.9195 75.0926 88.852 82.6641 83.6345C90.8637 77.9857 92.3609 68.1915 89.9914 61.9116C87.6029 62.3239 86.8226 61.9464 86.1152 59.6374C85.0209 56.0788 82.7022 53.8935 79.1686 52.8341C77.2242 52.2506 76.7515 51.3657 77.0085 49.3865V49.3897ZM94.2863 54.7213C93.7343 55.3842 93.2078 56.009 92.6908 56.6402C92.215 57.2238 92.2625 57.7915 92.5544 58.4956C95.904 66.5391 95.2506 74.2749 90.0739 81.2875C84.8972 88.3001 77.7095 91.3005 69.0214 90.349C55.4802 88.8647 46.2973 75.4072 49.7167 62.1843C53.1837 48.7839 67.3402 41.5556 80.2217 46.5922C80.6309 46.7508 81.2209 46.9189 81.5412 46.7477C82.4516 46.2592 83.2668 45.5931 84.2025 44.9366C75.8126 39.8714 61.2024 39.8904 51.7817 50.9692C43.065 61.2201 43.7946 76.974 53.485 86.4225C63.4165 96.1025 78.9846 96.4546 89.3063 87.1615C99.815 77.6971 99.666 63.1422 94.2831 54.7213H94.2863ZM88.7543 44.112C87.4982 46.2391 85.466 48.3145 82.6578 50.338C85.1425 51.8922 87.1726 53.9337 88.748 56.4626C90.0453 53.662 92.0342 51.6099 95.0222 50.3095C92.0595 49.0091 90.0548 47.0172 88.7575 44.1088L88.7543 44.112ZM94.3941 87.78C93.4584 88.6331 92.5449 89.4705 91.7487 90.2C93.0809 91.5353 94.4988 92.953 95.8723 94.3327C96.7033 93.5366 97.5978 92.6771 98.4669 91.8461C97.0078 90.3903 95.5868 88.9725 94.3941 87.7831V87.78Z" fill="#1ABCFD"/>
</svg>
