<?xml version="1.0" standalone="no"?>
<!DOCTYPE svg PUBLIC "-//W3C//DTD SVG 20010904//EN"
 "http://www.w3.org/TR/2001/REC-SVG-20010904/DTD/svg10.dtd">
<svg version="1.0" xmlns="http://www.w3.org/2000/svg"
 width="563.000000pt" height="400.000000pt" viewBox="0 0 563.000000 400.000000"
 preserveAspectRatio="xMidYMid meet">

<g transform="translate(0.000000,400.000000) scale(0.100000,-0.100000)"
fill="#000000" stroke="none">
<path d="M0 2000 l0 -2000 2815 0 2815 0 0 2000 0 2000 -2815 0 -2815 0 0
-2000z m2610 944 c0 -8 -7 -14 -15 -14 -15 0 -21 21 -9 33 10 9 24 -2 24 -19z
m90 6 c0 -11 -6 -20 -14 -20 -18 0 -29 16 -21 30 11 18 35 11 35 -10z m-175 1
c3 -5 1 -12 -5 -16 -5 -3 -10 1 -10 9 0 18 6 21 15 7z m265 -6 c0 -8 -6 -15
-14 -15 -17 0 -28 14 -19 24 12 12 33 6 33 -9z m70 -5 c0 -5 -4 -10 -10 -10
-5 0 -10 5 -10 10 0 6 5 10 10 10 6 0 10 -4 10 -10z m-415 -10 c3 -5 1 -10 -4
-10 -6 0 -11 5 -11 10 0 6 2 10 4 10 3 0 8 -4 11 -10z m217 -58 c-6 -5 -33 -9
-60 -11 -91 -4 -263 -52 -357 -99 -27 -14 -77 -43 -110 -65 -63 -43 -185 -154
-185 -169 0 -5 11 -14 25 -20 23 -10 30 -7 87 48 35 33 87 75 116 93 72 46
221 109 296 125 78 18 156 26 156 16 0 -4 -33 -10 -72 -13 -156 -12 -407 -135
-521 -255 l-28 -29 26 -39 c32 -47 32 -100 0 -98 -11 1 -28 5 -38 9 -29 12
-18 -34 14 -57 21 -16 30 -17 55 -8 26 10 31 9 54 -18 14 -16 39 -32 55 -36
17 -4 41 -17 54 -29 30 -27 18 -6 -27 51 -19 23 -32 42 -29 42 11 0 119 -141
113 -147 -3 -3 0 -15 5 -26 8 -14 13 -16 19 -7 6 9 12 9 30 0 25 -14 27 -17
-31 70 -40 61 -62 100 -56 100 2 0 20 -25 40 -55 34 -50 77 -88 77 -67 0 5
-25 58 -56 117 -30 59 -54 109 -52 111 2 2 21 -29 42 -69 60 -114 128 -227
137 -227 4 0 11 5 14 10 3 6 -1 10 -10 10 -10 0 -13 5 -9 12 4 7 3 8 -4 4 -11
-7 -17 6 -13 28 1 5 -7 27 -17 50 -23 49 -75 216 -69 222 2 3 14 -28 26 -68
13 -40 37 -104 54 -141 24 -55 32 -65 40 -52 6 11 5 25 -1 39 -16 34 -44 154
-39 168 2 7 9 -12 16 -42 15 -73 60 -190 73 -190 5 0 7 8 4 18 -28 91 -64 307
-53 318 2 2 9 -35 16 -83 12 -88 31 -168 49 -213 8 -19 10 0 7 75 -4 103 -3
101 16 -22 7 -40 15 -73 18 -73 3 0 7 51 8 113 2 61 7 135 12 162 6 36 7 15 3
-76 -4 -111 -3 -127 12 -132 13 -5 16 1 17 31 1 40 46 267 48 242 0 -8 -6 -53
-14 -100 -28 -161 -12 -232 19 -85 19 87 64 236 65 213 1 -10 -5 -37 -13 -60
-13 -37 -24 -85 -52 -215 -6 -32 11 -29 24 5 6 15 27 71 47 125 21 54 39 96
41 94 2 -2 -10 -41 -27 -88 -17 -46 -32 -91 -34 -99 -2 -8 -9 -31 -14 -50 -7
-22 -7 -38 -1 -44 8 -8 14 3 9 17 -3 8 170 307 178 307 2 0 2 -3 0 -7 -81
-140 -118 -208 -134 -253 -11 -30 -24 -63 -28 -72 -4 -11 -3 -18 4 -18 6 0 12
5 12 10 1 6 2 13 3 18 0 4 13 23 27 42 15 19 37 51 50 71 58 88 122 179 126
179 5 0 3 -4 -79 -128 -37 -57 -68 -108 -68 -112 0 -21 19 -18 35 6 23 35 52
70 104 124 l43 45 -47 -57 c-28 -34 -44 -62 -39 -69 4 -7 3 -9 -4 -5 -13 8
-64 -63 -55 -77 3 -6 1 -7 -4 -4 -6 4 -13 1 -16 -7 -14 -36 12 -17 100 72 53
53 89 88 82 77 -8 -11 -44 -51 -82 -90 -37 -38 -66 -74 -64 -79 7 -20 23 -15
42 13 11 17 21 28 24 26 2 -3 20 8 40 24 54 42 171 122 171 117 0 -2 -42 -35
-92 -72 -98 -71 -191 -162 -181 -177 3 -5 17 2 32 16 31 28 96 73 166 112 66
37 48 21 -42 -39 -40 -26 -78 -55 -85 -64 -12 -15 -11 -16 5 -3 9 8 20 11 23
8 3 -3 31 8 61 24 81 44 74 30 -12 -25 -41 -26 -75 -49 -75 -51 0 -2 20 3 45
13 30 11 40 19 32 24 -7 5 0 6 16 2 23 -5 35 -1 60 24 34 31 87 62 109 62 7 0
19 10 26 21 12 19 20 21 58 15 39 -5 48 -2 69 19 15 14 22 30 19 39 -8 21 -9
21 -79 -14 -39 -20 -51 -23 -35 -10 14 11 28 20 33 20 4 0 7 15 7 34 0 19 10
49 24 69 l24 35 -34 40 c-106 125 -399 271 -541 272 -18 0 -33 4 -33 9 0 23
184 -23 294 -73 105 -48 199 -112 270 -185 53 -54 61 -58 82 -49 13 6 24 15
24 20 0 6 -28 39 -62 75 -138 143 -356 252 -570 283 -45 6 -47 8 -17 9 100 3
330 -81 460 -170 74 -50 199 -170 199 -192 0 -8 13 -17 30 -21 17 -3 42 -17
57 -32 23 -23 27 -24 35 -10 20 36 105 58 153 40 8 -4 22 -19 30 -35 13 -25
13 -30 -1 -41 -37 -31 -54 -49 -54 -57 0 -6 31 -7 73 -4 222 16 486 -148 547
-341 9 -29 15 -35 22 -25 6 10 7 6 3 -11 -15 -52 -40 -50 -70 6 -11 20 -48 63
-84 95 -156 144 -380 192 -476 103 -31 -29 -35 -75 -5 -67 44 12 64 -43 37
-97 -7 -13 -27 -34 -45 -46 -37 -25 -34 -29 24 -39 49 -8 115 8 153 36 27 20
27 20 81 -4 85 -37 144 -48 254 -47 84 0 113 -4 175 -25 40 -15 97 -28 125
-30 73 -5 68 -27 -8 -31 -59 -3 -162 -28 -181 -44 -6 -5 -41 -5 -80 1 -100 14
-236 -8 -323 -53 -18 -10 -26 -8 -45 10 -12 11 -35 25 -50 31 -32 13 -122 13
-152 2 -19 -8 -19 -8 2 -15 12 -4 34 -21 48 -37 46 -55 25 -144 -29 -123 -12
5 -16 0 -16 -19 0 -55 116 -105 210 -92 148 20 322 126 386 234 10 16 26 32
37 35 17 4 19 1 14 -30 -23 -140 -200 -301 -385 -349 -68 -17 -202 -23 -239
-11 -21 7 -22 5 -15 -16 5 -13 18 -27 30 -33 27 -12 33 -39 15 -65 -35 -49
-111 -48 -162 2 l-31 30 -31 -26 c-17 -14 -41 -29 -53 -32 -13 -3 -29 -16 -36
-30 -23 -42 -152 -146 -251 -202 -120 -68 -312 -123 -424 -120 -58 1 -57 1 23
9 231 22 481 140 616 290 43 47 44 55 10 63 -22 6 -35 -2 -88 -51 -72 -68
-148 -115 -266 -165 -124 -53 -292 -90 -306 -67 -3 5 17 9 44 9 141 0 382 105
506 221 l75 70 -25 36 c-40 59 -24 130 22 93 21 -19 43 3 28 28 -16 24 -66 50
-71 36 -6 -18 -53 -4 -69 21 -9 14 -29 25 -54 29 -31 5 -48 17 -84 60 -26 30
-57 56 -71 58 l-24 5 23 -31 c28 -38 76 -122 76 -132 0 -5 -19 21 -42 56 -24
36 -48 65 -55 65 -7 0 -18 6 -25 14 -11 12 -10 13 5 8 10 -4 16 -3 13 2 -3 5
-15 11 -26 14 -20 5 -21 4 -6 -18 19 -30 146 -295 141 -295 -2 0 -36 63 -76
140 -47 92 -75 138 -82 131 -6 -6 2 -37 23 -87 17 -42 38 -96 45 -118 7 -23
16 -50 20 -61 5 -16 5 -17 -4 -5 -6 8 -22 49 -36 90 -34 97 -66 162 -84 168
-10 3 -12 0 -7 -14 13 -34 66 -234 65 -247 -1 -14 -5 -1 -50 145 -17 59 -36
105 -42 101 -5 -3 -6 3 -3 15 7 22 -8 39 -19 22 -3 -5 -1 -10 5 -10 6 0 9 -3
7 -7 -3 -5 1 -39 8 -78 7 -38 15 -113 18 -165 l6 -95 -14 110 c-18 137 -33
202 -48 202 -9 0 -12 -28 -11 -96 1 -53 0 -80 -2 -61 -2 19 -7 59 -10 88 -8
74 -24 55 -24 -29 0 -38 -4 -69 -10 -69 -5 0 -9 15 -8 33 0 17 0 50 -1 72 -3
52 -13 27 -30 -75 -8 -41 -20 -104 -27 -140 -12 -54 -13 -56 -8 -15 26 212 29
250 22 253 -4 2 -8 8 -8 13 0 6 4 8 8 5 5 -3 9 1 9 8 0 8 -6 12 -12 9 -7 -2
-16 -27 -19 -55 -8 -54 -76 -272 -83 -264 -3 2 7 40 22 83 14 43 32 108 40
146 11 57 11 67 -1 67 -8 0 -14 -6 -14 -12 0 -15 -82 -209 -86 -205 -2 2 12
45 32 96 19 52 33 96 30 99 -3 2 -1 13 4 23 7 12 7 20 0 24 -5 3 -10 0 -10 -7
0 -16 -101 -221 -106 -215 -3 2 9 31 25 63 49 100 85 224 40 139 -29 -55 -128
-205 -135 -205 -6 0 23 51 56 100 36 53 79 149 70 155 -5 3 -15 -7 -22 -22 -7
-15 -17 -31 -22 -34 -5 -4 -5 -12 -2 -18 4 -6 4 -10 -1 -9 -8 3 -140 -137
-215 -228 -21 -25 -38 -42 -38 -37 0 5 37 51 83 103 122 139 132 151 160 202
26 47 26 69 0 43 -8 -8 -11 -19 -8 -25 4 -6 3 -9 -2 -8 -5 2 -70 -58 -145
-132 -75 -74 -133 -130 -130 -123 4 6 62 68 130 137 67 69 122 132 122 140 0
8 7 17 16 20 8 3 12 11 8 17 -4 7 -22 -6 -48 -33 -37 -40 -110 -101 -161 -138
-11 -7 3 7 30 33 28 25 53 46 56 47 4 0 28 26 55 58 26 31 37 48 23 37 -13
-12 -36 -27 -51 -35 -16 -7 -28 -17 -28 -22 0 -4 -5 -8 -11 -8 -5 0 -36 -17
-67 -38 -72 -49 -82 -54 -82 -48 0 3 35 29 78 58 42 28 85 59 94 68 16 15 16
16 -2 16 -11 0 -20 -5 -20 -10 0 -5 -3 -7 -6 -3 -4 3 -24 -3 -45 -13 -21 -11
-42 -20 -46 -20 -11 0 58 49 79 56 33 10 21 31 -17 29 -29 -2 -41 -10 -65 -43
-20 -28 -25 -42 -17 -46 7 -3 1 -3 -12 0 -15 4 -21 2 -17 -4 8 -14 -47 -32
-75 -25 -18 5 -21 3 -16 -10 4 -11 -5 -20 -31 -32 -20 -10 -40 -20 -44 -22 -4
-2 -5 2 -2 10 3 8 -1 17 -9 20 -17 6 -77 -39 -77 -59 0 -15 26 -19 34 -5 3 5
15 7 26 4 28 -8 26 -59 -5 -104 l-24 -37 35 -40 c53 -63 149 -130 260 -184
111 -53 244 -92 287 -84 20 4 27 1 27 -9 0 -11 -7 -14 -22 -11 -13 3 -50 10
-83 17 -144 27 -329 125 -444 234 -67 64 -79 71 -98 62 -13 -5 -23 -15 -23
-21 0 -19 146 -154 218 -201 122 -78 273 -133 427 -154 l70 -10 -70 4 c-126 8
-269 55 -395 129 -92 53 -228 170 -249 213 -10 20 -26 33 -44 37 -15 3 -39 18
-54 32 -26 26 -27 26 -43 7 -33 -41 -106 -57 -151 -32 -38 20 -42 89 -5 89 7
0 17 10 23 23 l11 23 -92 0 c-196 0 -385 99 -486 256 -34 52 -69 143 -58 153
12 12 46 -11 63 -42 28 -51 134 -145 207 -181 118 -60 243 -76 312 -40 38 19
66 51 66 75 0 20 -4 23 -20 18 -30 -9 -50 12 -50 52 0 26 8 43 34 69 19 19 42
34 53 35 13 0 9 5 -12 14 -59 28 -158 12 -207 -32 -13 -11 -21 -13 -31 -5 -7
6 -48 22 -92 37 -83 27 -269 44 -280 25 -4 -6 -22 -2 -45 10 -46 23 -150 50
-197 50 -24 0 -33 5 -33 16 0 12 7 15 26 11 29 -5 144 15 189 34 19 7 70 11
137 10 116 -3 196 10 271 41 l48 21 22 -21 c40 -38 119 -53 185 -36 28 8 28
17 0 29 -54 25 -81 114 -43 142 11 7 27 11 37 7 30 -9 22 34 -12 66 -51 47
-142 61 -237 36 -127 -34 -245 -110 -316 -204 -25 -32 -46 -52 -56 -50 -21 5
-17 29 20 104 39 83 143 181 241 228 121 57 284 80 363 50 16 -6 16 -5 1 25
-9 17 -23 31 -30 31 -18 0 -26 22 -19 49 6 24 50 51 83 51 30 0 96 -36 104
-56 6 -15 9 -15 29 4 25 23 75 45 87 37 4 -3 11 6 14 19 3 13 31 47 62 76 153
139 354 233 559 259 97 12 113 12 97 3z m36 -84 c-3 -7 -11 -13 -18 -13 -7 0
-15 6 -17 13 -3 7 4 12 17 12 13 0 20 -5 18 -12z m-48 -54 c0 -17 -22 -14 -28
4 -2 7 3 12 12 12 9 0 16 -7 16 -16z m90 1 c0 -8 -4 -15 -10 -15 -5 0 -10 7
-10 15 0 8 5 15 10 15 6 0 10 -7 10 -15z m-175 -5 c3 -5 -1 -10 -9 -10 -9 0
-16 5 -16 10 0 6 4 10 9 10 6 0 13 -4 16 -10z m262 -16 c-9 -9 -28 6 -21 18 4
6 10 6 17 -1 6 -6 8 -13 4 -17z m-360 -10 c-9 -9 -28 6 -21 18 4 6 10 6 17 -1
6 -6 8 -13 4 -17z m453 -4 c0 -5 -4 -10 -10 -10 -5 0 -10 5 -10 10 0 6 5 10
10 10 6 0 10 -4 10 -10z m-530 -21 c11 -19 10 -20 -9 -9 -22 11 -29 30 -11 30
5 0 14 -9 20 -21z m610 -4 c0 -8 -4 -15 -9 -15 -13 0 -22 16 -14 24 11 11 23
6 23 -9z m-700 -20 c0 -8 -4 -15 -9 -15 -13 0 -22 16 -14 24 11 11 23 6 23 -9z
m447 -27 c-3 -7 -5 -2 -5 12 0 14 2 19 5 13 2 -7 2 -19 0 -25z m334 -1 c-13
-13 -26 -3 -16 12 3 6 11 8 17 5 6 -4 6 -10 -1 -17z m-857 -18 c-3 -5 -10 -7
-15 -3 -5 3 -7 10 -3 15 3 5 10 7 15 3 5 -3 7 -10 3 -15z m204 -4 c-3 -3 -9 2
-12 12 -6 14 -5 15 5 6 7 -7 10 -15 7 -18z m-158 -20 c13 -14 21 -25 18 -25
-2 0 -15 11 -28 25 -13 14 -21 25 -18 25 2 0 15 -11 28 -25z m397 -17 c-3 -7
-5 -2 -5 12 0 14 2 19 5 13 2 -7 2 -19 0 -25z m493 24 c0 -13 -12 -22 -22 -16
-10 6 -1 24 13 24 5 0 9 -4 9 -8z m-360 -47 c-16 -47 -23 -40 -8 8 6 20 13 35
16 33 2 -3 -1 -21 -8 -41z m-203 -12 c-3 -10 -5 -2 -5 17 0 19 2 27 5 18 2
-10 2 -26 0 -35z m-747 11 c0 -8 -9 -14 -20 -14 -22 0 -28 26 -7 33 16 6 27
-1 27 -19z m300 10 c0 -9 -5 -14 -12 -12 -18 6 -21 28 -4 28 9 0 16 -7 16 -16z
m1340 12 c0 -3 -4 -8 -10 -11 -5 -3 -10 -1 -10 4 0 6 5 11 10 11 6 0 10 -2 10
-4z m-973 -63 c-3 -10 -5 -2 -5 17 0 19 2 27 5 18 2 -10 2 -26 0 -35z m614 20
c-12 -20 -14 -14 -5 12 4 9 9 14 11 11 3 -2 0 -13 -6 -23z m-91 -3 c-6 -11
-13 -20 -16 -20 -2 0 0 9 6 20 6 11 13 20 16 20 2 0 0 -9 -6 -20z m200 10 c0
-5 -7 -10 -16 -10 -8 0 -12 5 -9 10 3 6 10 10 16 10 5 0 9 -4 9 -10z m295 -11
c0 -7 -8 -15 -17 -17 -18 -3 -25 18 -11 32 10 10 28 1 28 -15z m-1334 -6 c13
-16 12 -17 -3 -4 -10 7 -18 15 -18 17 0 8 8 3 21 -13z m-112 -17 c10 -12 8
-13 -8 -9 -12 3 -21 9 -21 14 0 14 16 11 29 -5z m931 -9 c0 -2 -10 -12 -22
-23 l-23 -19 19 23 c18 21 26 27 26 19z m90 0 c0 -2 -19 -21 -42 -42 l-43 -40
40 43 c36 39 45 47 45 39z m190 -18 c0 -5 -7 -9 -15 -9 -15 0 -20 12 -9 23 8
8 24 -1 24 -14z m-1134 -36 c-2 -3 -17 7 -33 22 l-28 28 33 -23 c18 -12 31
-24 28 -27z m242 -8 c0 -16 -2 -15 -8 5 -11 34 -11 60 0 35 5 -11 8 -29 8 -40z
m109 8 c-3 -10 -5 -2 -5 17 0 19 2 27 5 18 2 -10 2 -26 0 -35z m-267 7 c6 -11
8 -20 6 -20 -3 0 -10 9 -16 20 -6 11 -8 20 -6 20 3 0 10 -9 16 -20z m960 17
c0 -2 -17 -19 -37 -38 l-38 -34 34 38 c33 34 41 42 41 34z m-977 -117 c31 -52
11 -32 -27 28 -20 31 -27 45 -14 30 13 -15 32 -41 41 -58z m297 54 c0 -8 -4
-12 -10 -9 -5 3 -10 10 -10 16 0 5 5 9 10 9 6 0 10 -7 10 -16z m-395 -34 c21
-22 37 -40 34 -40 -3 0 -23 18 -44 40 -21 22 -37 40 -34 40 3 0 23 -18 44 -40z
m1115 37 c0 -2 -12 -14 -27 -28 l-28 -24 24 28 c23 25 31 32 31 24z m-2030
-90 c0 -2 -15 -16 -32 -33 l-33 -29 29 33 c28 30 36 37 36 29z m1940 -57 c-30
-16 -59 -29 -65 -29 -5 0 15 13 45 29 30 16 60 29 65 29 6 0 -15 -13 -45 -29z
m975 0 c10 -11 16 -20 13 -20 -3 0 -13 9 -23 20 -10 11 -16 20 -13 20 3 0 13
-9 23 -20z m-2985 -14 c0 -2 -8 -10 -17 -17 -16 -13 -17 -12 -4 4 13 16 21 21
21 13z m3060 -61 c13 -14 21 -25 18 -25 -2 0 -15 11 -28 25 -13 14 -21 25 -18
25 2 0 15 -11 28 -25z m-1900 -25 c0 -5 -2 -10 -4 -10 -3 0 -8 5 -11 10 -3 6
-1 10 4 10 6 0 11 -4 11 -10z m1510 -4 c0 -2 -8 -10 -17 -17 -16 -13 -17 -12
-4 4 13 16 21 21 21 13z m-2640 -59 c0 -2 -15 -16 -32 -33 l-33 -29 29 33 c28
30 36 37 36 29z m2995 -67 c21 -22 37 -40 34 -40 -3 0 -23 18 -44 40 -21 22
-37 40 -34 40 3 0 23 -18 44 -40z m-365 5 c-7 -8 -17 -15 -23 -15 -6 0 -2 7 9
15 25 19 30 19 14 0z m-2697 -20 c-3 -9 -8 -14 -10 -11 -3 3 -2 9 2 15 9 16
15 13 8 -4z m-369 -13 c9 -14 -10 -33 -27 -26 -18 6 -21 16 -10 27 9 9 31 9
37 -1z m3486 -37 c7 -9 8 -15 2 -15 -5 0 -12 7 -16 15 -3 8 -4 15 -2 15 2 0 9
-7 16 -15z m400 -41 c0 -8 -8 -14 -18 -14 -25 0 -34 11 -21 26 13 15 39 7 39
-12z m-3885 -9 c0 -21 -31 -33 -46 -18 -5 5 -7 17 -3 27 9 24 49 17 49 -9z
m-157 3 c-6 -18 -28 -21 -28 -4 0 9 7 16 16 16 9 0 14 -5 12 -12z m63 -1 c-1
-12 -15 -9 -19 4 -3 6 1 10 8 8 6 -3 11 -8 11 -12z m3983 -56 c3 -4 -1 -16 -8
-26 -16 -23 -46 -13 -46 15 0 15 7 20 24 20 14 0 27 -4 30 -9z m-3894 -27 c0
-8 -9 -14 -20 -14 -22 0 -28 26 -7 33 16 6 27 -1 27 -19z m3951 13 c-1 -12
-15 -9 -19 4 -3 6 1 10 8 8 6 -3 11 -8 11 -12z m77 -5 c2 -7 -3 -12 -12 -12
-9 0 -16 7 -16 16 0 17 22 14 28 -4z m63 -5 c-13 -13 -26 -3 -16 12 3 6 11 8
17 5 6 -4 6 -10 -1 -17z m-3726 -27 c3 -5 1 -10 -4 -10 -6 0 -11 5 -11 10 0 6
2 10 4 10 3 0 8 -4 11 -10z m3518 -26 c9 -10 -4 -34 -18 -34 -17 0 -28 17 -20
30 7 11 28 13 38 4z m-3458 -54 c21 -22 37 -40 34 -40 -3 0 -23 18 -44 40 -21
22 -37 40 -34 40 3 0 23 -18 44 -40z m3046 -3 l-24 -22 19 27 c10 14 21 24 23
22 3 -3 -6 -15 -18 -27z m-61 -61 c0 -2 -8 -10 -17 -17 -16 -13 -17 -12 -4 4
13 16 21 21 21 13z m-3005 -106 c10 -11 16 -20 13 -20 -3 0 -13 9 -23 20 -10
11 -16 20 -13 20 3 0 13 -9 23 -20z m3065 -23 c0 -2 -10 -12 -22 -23 l-23 -19
19 23 c18 21 26 27 26 19z m-3005 -37 c10 -11 16 -20 13 -20 -3 0 -13 9 -23
20 -10 11 -16 20 -13 20 3 0 13 -9 23 -20z m2000 -90 c43 -46 47 -54 16 -25
-23 22 -57 58 -74 80 -36 47 -23 35 58 -55z m955 76 c0 -2 -8 -10 -17 -17 -16
-13 -17 -12 -4 4 13 16 21 21 21 13z m-1965 -44 c-29 -24 -85 -62 -85 -58 0 7
80 66 89 66 3 0 1 -4 -4 -8z m900 -22 c9 -16 13 -30 11 -30 -3 0 -12 14 -21
30 -9 17 -13 30 -11 30 3 0 12 -13 21 -30z m-835 -3 c0 -2 -26 -25 -57 -51
l-58 -48 54 51 c52 48 61 55 61 48z m-160 -41 c0 -2 -8 -10 -17 -17 -16 -13
-17 -12 -4 4 13 16 21 21 21 13z m1075 -76 l29 -35 -30 27 c-16 15 -37 42 -47
60 -17 32 -17 32 0 8 10 -13 31 -40 48 -60z m-425 -5 l-7 -60 -2 70 c0 38 3
65 7 60 5 -6 6 -37 2 -70z m-699 -8 c-13 -13 -26 -3 -16 12 3 6 11 8 17 5 6
-4 6 -10 -1 -17z m429 -17 c-11 -22 -23 -40 -25 -40 -3 0 4 18 15 40 11 22 23
40 25 40 3 0 -4 -18 -15 -40z m61 -7 c-12 -20 -14 -14 -5 12 4 9 9 14 11 11 3
-2 0 -13 -6 -23z m266 -5 c-3 -8 -6 -5 -6 6 -1 11 2 17 5 13 3 -3 4 -12 1 -19z
m314 -5 c13 -16 12 -17 -3 -4 -10 7 -18 15 -18 17 0 8 8 3 21 -13z m139 7 c0
-5 -4 -10 -10 -10 -5 0 -10 5 -10 10 0 6 5 10 10 10 6 0 10 -4 10 -10z m-1057
-15 c-3 -9 -8 -14 -10 -11 -3 3 -2 9 2 15 9 16 15 13 8 -4z m837 -5 c6 -11 8
-20 6 -20 -3 0 -10 9 -16 20 -6 11 -8 20 -6 20 3 0 10 -9 16 -20z m-1215 -10
c0 -22 -29 -18 -33 3 -3 14 1 18 15 15 10 -2 18 -10 18 -18z m286 -3 c-13 -13
-26 -3 -16 12 3 6 11 8 17 5 6 -4 6 -10 -1 -17z m265 -9 c-9 -12 -16 -19 -16
-15 0 11 24 47 28 42 2 -2 -3 -14 -12 -27z m145 -5 c-12 -20 -14 -14 -5 12 4
9 9 14 11 11 3 -2 0 -13 -6 -23z m286 -20 c-3 -10 -5 -2 -5 17 0 19 2 27 5 18
2 -10 2 -26 0 -35z m707 6 c-8 -14 -34 -11 -34 4 0 8 3 17 7 20 9 9 34 -13 27
-24z m-313 6 c1 -16 -17 -17 -30 -2 -9 12 -7 14 9 13 11 0 21 -5 21 -11z
m-324 -17 c-3 -8 -6 -5 -6 6 -1 11 2 17 5 13 3 -3 4 -12 1 -19z m194 5 c13
-16 12 -17 -3 -4 -10 7 -18 15 -18 17 0 8 8 3 21 -13z m-1211 -3 c0 -5 -4 -10
-10 -10 -5 0 -10 5 -10 10 0 6 5 10 10 10 6 0 10 -4 10 -10z m330 -21 c0 -5
-7 -9 -15 -9 -15 0 -20 12 -9 23 8 8 24 -1 24 -14z m860 -64 c0 -3 -7 -5 -15
-5 -8 0 -15 6 -15 14 0 7 -7 19 -16 26 -8 8 -20 22 -25 32 -6 11 8 1 30 -21
23 -23 41 -43 41 -46z m-473 53 c-3 -8 -6 -5 -6 6 -1 11 2 17 5 13 3 -3 4 -12
1 -19z m541 -6 c6 -18 -15 -14 -22 4 -4 10 -1 14 6 12 6 -2 14 -10 16 -16z
m-301 -14 c-3 -8 -6 -5 -6 6 -1 11 2 17 5 13 3 -3 4 -12 1 -19z m-150 -10 c-3
-8 -6 -5 -6 6 -1 11 2 17 5 13 3 -3 4 -12 1 -19z m-407 2 c0 -5 -4 -10 -10
-10 -5 0 -10 5 -10 10 0 6 5 10 10 10 6 0 10 -4 10 -10z m86 -46 c-4 -12 -10
-14 -17 -7 -5 5 -7 17 -3 27 4 12 10 14 17 7 5 -5 7 -17 3 -27z m84 -25 c0 -5
-4 -9 -10 -9 -5 0 -10 7 -10 16 0 8 5 12 10 9 6 -3 10 -10 10 -16z m530 11 c0
-5 -4 -10 -9 -10 -6 0 -13 5 -16 10 -3 6 1 10 9 10 9 0 16 -4 16 -10z m-440
-36 c0 -14 -12 -19 -23 -8 -9 9 4 35 14 28 5 -3 9 -12 9 -20z m180 -11 c0 -23
-23 -9 -25 15 -1 17 1 19 12 11 7 -6 13 -18 13 -26z m90 5 c0 -17 -23 -3 -26
16 -2 14 0 15 12 5 8 -6 14 -16 14 -21z m90 16 c0 -9 -5 -14 -12 -12 -18 6
-21 28 -4 28 9 0 16 -7 16 -16z m-280 -20 c0 -8 -4 -12 -10 -9 -5 3 -10 10
-10 16 0 5 5 9 10 9 6 0 10 -7 10 -16z m63 -59 c1 -5 -6 -11 -15 -13 -11 -2
-18 3 -18 13 0 17 30 18 33 0z m-253 -135 c0 -5 -2 -10 -4 -10 -3 0 -8 5 -11
10 -3 6 -1 10 4 10 6 0 11 -4 11 -10z m490 0 c0 -5 -4 -10 -10 -10 -5 0 -10 5
-10 10 0 6 5 10 10 10 6 0 10 -4 10 -10z m-230 -32 c0 -15 -32 -21 -40 -7 -13
20 9 43 26 28 8 -6 14 -16 14 -21z m-180 12 c0 -5 -2 -10 -4 -10 -3 0 -8 5
-11 10 -3 6 -1 10 4 10 6 0 11 -4 11 -10z m80 -5 c0 -8 -7 -15 -15 -15 -8 0
-15 7 -15 15 0 8 7 15 15 15 8 0 15 -7 15 -15z m180 0 c0 -8 -7 -15 -15 -15
-8 0 -15 7 -15 15 0 8 7 15 15 15 8 0 15 -7 15 -15z m70 5 c0 -5 -4 -10 -10
-10 -5 0 -10 5 -10 10 0 6 5 10 10 10 6 0 10 -4 10 -10z"/>
<path d="M1660 2485 c-8 -10 -9 -15 -1 -15 6 0 22 -21 35 -47 31 -61 125 -136
160 -127 28 7 86 -16 115 -45 l21 -21 10 21 c9 17 6 24 -19 48 -17 16 -31 38
-31 49 0 29 38 54 62 41 15 -8 18 -6 18 15 0 36 -54 86 -94 86 -55 0 -111 -55
-85 -86 14 -17 6 -29 -15 -21 -8 3 -17 19 -21 36 -14 64 -119 109 -155 66z
m210 -139 c0 -3 -4 -8 -10 -11 -5 -3 -10 -1 -10 4 0 6 5 11 10 11 6 0 10 -2
10 -4z"/>
<path d="M3385 2460 c-26 -10 -61 -49 -69 -76 -6 -19 -3 -21 19 -16 68 13 73
-87 5 -110 -10 -3 -10 -9 -1 -27 l13 -23 21 20 c33 31 89 50 115 41 17 -7 35
1 87 37 36 25 65 49 65 53 0 5 11 25 25 46 33 48 20 70 -38 62 -47 -6 -74 -30
-94 -79 -15 -37 -35 -49 -48 -28 -3 6 -1 10 4 10 23 0 10 49 -20 74 -32 27
-50 31 -84 16z m102 -152 c-3 -8 -6 -5 -6 6 -1 11 2 17 5 13 3 -3 4 -12 1 -19z"/>
<path d="M1435 2345 c-142 -40 -284 -144 -335 -245 l-23 -45 65 61 c158 147
363 205 495 139 66 -33 94 -82 69 -121 -11 -15 -26 -24 -42 -24 -24 0 -26 -3
-20 -32 8 -43 33 -68 67 -68 15 0 31 -4 34 -10 9 -15 100 -12 138 3 43 18 55
35 60 82 2 22 10 53 16 68 22 56 -9 103 -74 114 -36 6 -37 5 -29 -18 18 -52 1
-109 -32 -109 -18 0 -35 34 -28 54 9 23 24 20 24 -5 0 -11 5 -17 10 -14 17 11
11 49 -15 87 -15 23 -46 47 -82 64 -49 24 -71 29 -153 31 -59 1 -114 -3 -145
-12z m495 -258 c0 -2 -10 -12 -22 -23 l-23 -19 19 23 c18 21 26 27 26 19z
m-110 -17 c0 -5 -4 -10 -10 -10 -5 0 -10 5 -10 10 0 6 5 10 10 10 6 0 10 -4
10 -10z"/>
<path d="M3699 2319 c-69 -11 -130 -41 -166 -83 -32 -36 -43 -79 -23 -91 6 -3
10 4 10 17 0 20 2 21 15 7 18 -18 11 -44 -13 -54 -11 -4 -23 2 -35 17 -18 21
-18 47 -2 91 13 31 -51 22 -86 -12 -35 -36 -36 -54 -5 -114 15 -31 18 -43 8
-35 -13 11 -14 9 -8 -17 10 -39 24 -55 63 -72 38 -15 133 -18 133 -3 0 6 6 10
13 8 31 -6 65 14 81 47 19 40 15 55 -13 48 -21 -5 -51 29 -51 58 0 29 48 77
95 95 33 12 65 15 128 12 74 -4 94 -9 178 -50 71 -35 111 -63 162 -112 37 -36
67 -62 67 -57 0 5 -18 35 -40 68 -104 156 -335 261 -511 232z m-159 -279 c0
-5 -4 -10 -10 -10 -5 0 -10 5 -10 10 0 6 5 10 10 10 6 0 10 -4 10 -10z"/>
<path d="M2054 2268 c-29 -14 -69 -91 -83 -158 -17 -83 -19 -413 -3 -482 15
-66 46 -116 84 -137 38 -21 47 -6 16 27 -36 39 -46 61 -57 133 -16 108 -18
214 -3 214 10 0 14 -27 17 -105 4 -113 10 -149 32 -193 20 -40 40 -20 45 43 2
42 0 50 -14 50 -22 0 -43 37 -30 53 5 7 12 34 15 61 2 27 14 61 26 77 l22 30
-20 25 c-12 16 -23 49 -27 85 -4 33 -11 62 -16 65 -12 8 21 44 39 44 11 0 13
13 11 57 -4 71 -22 80 -47 21 -20 -46 -42 -209 -33 -254 4 -21 1 -25 -14 -22
-12 2 -18 11 -17 23 25 231 37 280 82 319 36 33 22 47 -25 24z m16 -388 c0 -5
-4 -10 -10 -10 -5 0 -10 5 -10 10 0 6 5 10 10 10 6 0 10 -4 10 -10z"/>
<path d="M2773 2219 c-14 -26 -17 -39 -9 -39 14 0 49 67 38 74 -4 2 -17 -13
-29 -35z"/>
<path d="M3240 2252 c0 -5 9 -17 21 -28 12 -10 28 -32 35 -47 17 -31 44 -281
33 -298 -16 -26 -24 5 -27 103 -3 112 -22 197 -49 219 -11 9 -14 10 -9 2 4 -7
3 -13 -2 -13 -6 0 -12 -23 -14 -51 -3 -45 0 -52 18 -59 26 -10 37 -35 24 -58
-5 -9 -12 -39 -15 -66 -4 -31 -15 -57 -29 -71 -23 -23 -23 -23 -4 -43 13 -12
25 -47 33 -98 15 -82 10 -104 -24 -104 -14 0 -15 -9 -11 -57 13 -150 80 7 80
190 0 36 4 68 9 71 10 7 33 -18 25 -27 -3 -3 -8 -27 -10 -54 -12 -163 -32
-231 -75 -267 -16 -14 -26 -27 -22 -29 14 -8 45 1 65 20 51 46 74 143 82 353
9 228 -15 348 -80 399 -27 21 -54 28 -54 13z m40 -393 c0 -5 -4 -9 -10 -9 -5
0 -10 7 -10 16 0 8 5 12 10 9 6 -3 10 -10 10 -16z"/>
<path d="M2626 2224 c-4 -9 -4 -19 -1 -22 2 -3 7 3 11 12 4 9 4 19 1 22 -2 3
-7 -3 -11 -12z"/>
<path d="M2131 2177 c-1 -57 13 -78 82 -121 31 -19 34 -19 37 4 4 28 0 38 -26
70 -19 21 -32 29 -45 25 -11 -4 -19 -2 -19 4 0 25 41 8 74 -31 26 -30 36 -37
36 -23 0 28 -38 82 -74 104 -53 33 -63 28 -65 -32z"/>
<path d="M2590 2205 c0 -8 5 -15 10 -15 6 0 10 7 10 15 0 8 -4 15 -10 15 -5 0
-10 -7 -10 -15z"/>
<path d="M3127 2179 c-38 -31 -73 -86 -62 -97 3 -3 19 11 36 31 22 26 38 37
57 36 26 0 25 -1 -7 -12 -38 -14 -78 -73 -68 -100 6 -15 12 -14 57 14 61 37
70 53 68 113 -2 39 -5 46 -23 46 -11 0 -37 -14 -58 -31z"/>
<path d="M2830 2184 c-9 -10 -10 -18 -3 -25 8 -8 14 -5 22 9 13 25 -2 38 -19
16z"/>
<path d="M2585 2155 c-89 -31 -120 -58 -145 -125 -30 -81 -31 -256 -2 -322 25
-58 64 -93 122 -112 25 -8 53 -18 62 -21 13 -5 18 1 22 27 8 51 15 541 7 558
-5 14 -14 13 -66 -5z m45 -15 c0 -5 -5 -10 -11 -10 -5 0 -7 5 -4 10 3 6 8 10
11 10 2 0 4 -4 4 -10z m0 -194 c0 -3 -4 -8 -10 -11 -5 -3 -10 -1 -10 4 0 6 5
11 10 11 6 0 10 -2 10 -4z m-10 -146 c0 -5 -2 -10 -4 -10 -3 0 -8 5 -11 10 -3
6 -1 10 4 10 6 0 11 -4 11 -10z m10 -140 c0 -5 -2 -10 -4 -10 -3 0 -8 5 -11
10 -3 6 -1 10 4 10 6 0 11 -4 11 -10z"/>
<path d="M2686 2147 c-3 -17 -8 -155 -11 -304 -5 -224 -4 -273 7 -273 20 0
117 37 144 55 14 9 22 20 19 25 -3 5 0 12 6 16 8 5 9 3 4 -7 -8 -12 -6 -12 8
-1 9 8 16 17 15 20 -1 4 4 17 11 30 15 27 22 89 21 185 0 83 -5 109 -32 165
-18 36 -32 47 -87 73 -36 17 -74 35 -83 40 -14 7 -18 3 -22 -24z m29 -67 c3
-5 1 -10 -4 -10 -6 0 -11 5 -11 10 0 6 2 10 4 10 3 0 8 -4 11 -10z m5 -280 c0
-5 -4 -10 -10 -10 -5 0 -10 5 -10 10 0 6 5 10 10 10 6 0 10 -4 10 -10z m-10
-140 c0 -5 -5 -10 -11 -10 -5 0 -7 5 -4 10 3 6 8 10 11 10 2 0 4 -4 4 -10z"/>
<path d="M2465 2150 c-3 -5 -1 -10 4 -10 6 0 11 5 11 10 0 6 -2 10 -4 10 -3 0
-8 -4 -11 -10z"/>
<path d="M2380 2140 c0 -5 5 -10 11 -10 5 0 7 5 4 10 -3 6 -8 10 -11 10 -2 0
-4 -4 -4 -10z"/>
<path d="M3022 2131 c-11 -7 -11 -9 1 -14 16 -6 27 0 27 15 0 10 -11 10 -28
-1z"/>
<path d="M2885 2120 c-3 -5 -1 -10 4 -10 6 0 11 5 11 10 0 6 -2 10 -4 10 -3 0
-8 -4 -11 -10z"/>
<path d="M2291 2079 c-12 -19 -24 -50 -27 -69 -15 -96 -20 -112 -29 -110 -5 0
-9 9 -7 19 4 25 -54 74 -79 66 -11 -4 -19 -2 -19 4 0 19 38 12 68 -14 25 -21
31 -23 36 -9 12 32 5 45 -48 80 -52 34 -104 43 -99 18 1 -7 7 -39 12 -74 12
-73 22 -87 67 -96 44 -8 43 -18 -3 -30 -45 -11 -68 -50 -76 -131 -6 -49 -4
-53 15 -53 11 0 45 14 74 31 49 28 54 34 54 66 l0 35 -31 -26 c-31 -26 -69
-35 -69 -15 0 6 8 8 19 4 27 -8 84 41 76 66 -4 13 -2 19 8 19 10 0 16 -19 21
-68 8 -75 33 -137 56 -137 8 0 13 7 12 15 -25 111 -28 229 -7 345 16 91 7 115
-24 64z"/>
<path d="M2362 2087 c-14 -16 -29 -83 -37 -167 -9 -92 10 -229 35 -254 19 -19
20 -19 20 -2 0 15 3 16 15 6 25 -21 27 -6 10 55 -20 69 -15 263 9 320 10 22
11 37 5 41 -12 7 -11 7 -28 -21 -12 -19 -12 -19 -6 2 7 25 -8 38 -23 20z m5
-119 c-3 -7 -5 -2 -5 12 0 14 2 19 5 13 2 -7 2 -19 0 -25z m-2 -37 c3 -5 1
-12 -5 -16 -5 -3 -10 1 -10 9 0 18 6 21 15 7z m-8 -128 c-3 -10 -5 -4 -5 12 0
17 2 24 5 18 2 -7 2 -21 0 -30z m10 -75 c-3 -7 -5 -2 -5 12 0 14 2 19 5 13 2
-7 2 -19 0 -25z"/>
<path d="M2950 2075 c0 -14 -3 -15 -15 -5 -24 20 -26 7 -9 -59 19 -74 12 -253
-12 -310 -18 -43 -4 -63 20 -29 l17 23 -7 -28 c-5 -22 -3 -26 9 -21 61 23 71
385 11 434 -11 10 -14 9 -14 -5z m7 -47 c-3 -8 -6 -5 -6 6 -1 11 2 17 5 13 3
-3 4 -12 1 -19z m10 -50 c-3 -7 -5 -2 -5 12 0 14 2 19 5 13 2 -7 2 -19 0 -25z
m13 -58 c0 -5 -5 -10 -11 -10 -5 0 -7 5 -4 10 3 6 8 10 11 10 2 0 4 -4 4 -10z
m-4 -117 c-10 -10 -19 5 -10 18 6 11 8 11 12 0 2 -7 1 -15 -2 -18z m-9 -50
c-3 -10 -5 -4 -5 12 0 17 2 24 5 18 2 -7 2 -21 0 -30z m-10 -45 c-3 -8 -6 -5
-6 6 -1 11 2 17 5 13 3 -3 4 -12 1 -19z"/>
<path d="M3005 2073 c4 -10 12 -64 18 -120 9 -84 8 -119 -6 -204 -9 -56 -15
-105 -12 -107 11 -11 43 32 54 71 9 35 19 100 21 130 1 20 20 4 20 -17 0 -15
12 -34 31 -50 17 -14 26 -26 21 -26 -5 0 -17 9 -27 20 -21 23 -35 18 -35 -15
0 -19 13 -33 55 -60 61 -39 95 -45 95 -17 0 9 -4 44 -10 77 -10 65 -34 95 -76
95 -15 0 -24 6 -24 15 0 10 10 15 30 15 41 0 66 29 74 86 4 27 10 59 13 72 4
18 1 22 -20 22 -25 0 -85 -29 -118 -57 -10 -8 -14 -24 -11 -44 l4 -30 27 23
c26 23 26 23 -1 -8 -16 -16 -28 -38 -28 -47 0 -9 -4 -17 -8 -17 -5 0 -13 36
-19 80 -6 44 -18 91 -27 105 -19 29 -53 35 -41 8z m195 -103 c0 -13 -11 -13
-30 0 -12 8 -11 10 8 10 12 0 22 -4 22 -10z m-5 -220 c-3 -5 -11 -10 -16 -10
-6 0 -7 5 -4 10 3 6 11 10 16 10 6 0 7 -4 4 -10z"/>
<path d="M1895 1983 c-16 -9 -56 -18 -88 -19 -41 -2 -66 -9 -85 -24 -15 -12
-43 -28 -62 -37 l-35 -14 30 -14 c17 -7 45 -25 64 -39 24 -18 47 -26 75 -26
23 0 61 -9 85 -20 24 -11 45 -20 47 -20 12 0 1 56 -13 74 -17 20 -17 20 0 7
16 -12 17 -10 17 33 0 43 -1 46 -16 32 -8 -9 -20 -16 -25 -16 -6 0 2 10 16 23
19 16 26 30 23 49 -3 26 -3 26 -33 11z m-56 -99 c2 -2 -14 -4 -37 -4 -23 0
-45 0 -49 -1 -4 0 -9 4 -11 10 -2 7 12 9 45 5 26 -4 50 -8 52 -10z m41 -14 c8
-5 11 -10 5 -10 -5 0 -17 5 -25 10 -8 5 -10 10 -5 10 6 0 17 -5 25 -10z"/>
<path d="M1403 1970 c-78 -28 -194 -42 -276 -35 -54 5 -81 3 -107 -9 -27 -12
-30 -15 -13 -16 33 0 39 -20 6 -21 l-28 -1 33 -14 c22 -10 77 -16 155 -18 117
-3 202 -21 270 -58 13 -7 24 -6 35 4 31 26 72 38 130 38 57 1 57 1 29 16 -16
9 -41 17 -55 18 -44 5 -35 21 18 35 66 17 71 29 11 29 -29 0 -67 9 -97 23 -27
13 -51 24 -54 25 -3 1 -28 -6 -57 -16z m137 -80 c0 -11 -4 -20 -10 -20 -5 0
-10 9 -10 20 0 11 5 20 10 20 6 0 10 -9 10 -20z m-342 3 c-21 -2 -57 -2 -80 0
-24 2 -7 4 37 4 44 0 63 -2 43 -4z m130 0 c-15 -2 -42 -2 -60 0 -18 2 -6 4 27
4 33 0 48 -2 33 -4z m159 1 c-3 -3 -12 -4 -19 -1 -8 3 -5 6 6 6 11 1 17 -2 13
-5z"/>
<path d="M3400 1943 c0 -14 8 -36 18 -47 14 -18 15 -19 0 -8 -14 11 -17 10
-20 -5 -6 -30 3 -63 16 -56 8 5 8 3 0 -8 -12 -15 -27 -79 -18 -79 2 0 16 8 30
17 16 10 50 18 86 19 44 2 69 9 96 27 21 14 50 31 65 39 l28 14 -28 13 c-15 7
-45 24 -66 38 -26 18 -54 27 -88 29 -27 1 -63 10 -80 18 -41 20 -39 21 -39
-11z m188 -85 c-3 -7 -10 -13 -16 -12 -7 1 -29 2 -49 4 l-38 3 40 7 c62 11 67
11 63 -2z"/>
<path d="M3820 1924 c-30 -16 -62 -24 -100 -25 l-55 -1 34 -15 c19 -8 43 -15
53 -16 36 -3 17 -23 -32 -36 -27 -7 -50 -16 -50 -19 0 -4 25 -8 55 -9 37 -1
69 -9 99 -26 l44 -24 73 25 c63 22 93 26 204 28 74 0 149 7 175 14 l45 14 -35
7 c-35 6 -35 6 -5 8 17 2 24 5 15 8 -8 3 -26 10 -40 15 -14 5 -77 11 -140 12
-93 2 -129 8 -190 29 -41 14 -82 27 -90 30 -8 2 -35 -6 -60 -19z m-10 -68 c0
-8 -4 -18 -10 -21 -5 -3 -10 3 -10 14 0 12 5 21 10 21 6 0 10 -6 10 -14z m268
-13 c-16 -2 -40 -2 -55 0 -16 2 -3 4 27 4 30 0 43 -2 28 -4z m165 0 c-23 -2
-64 -2 -90 0 -26 2 -7 3 42 3 50 0 71 -1 48 -3z"/>
<path d="M1770 1783 c-8 -2 -22 -7 -30 -10 -8 -4 -21 -5 -27 -4 -22 3 -52 -19
-68 -49 -21 -40 -19 -48 12 -52 19 -2 32 -12 41 -31 12 -24 11 -32 -5 -60 -25
-44 -84 -71 -165 -75 -129 -8 -279 60 -397 178 l-65 65 29 -52 c35 -65 116
-148 187 -191 180 -108 400 -110 506 -5 41 41 55 84 32 98 -5 3 -10 -1 -10
-10 0 -9 -6 -15 -12 -12 -19 6 -16 38 4 51 37 23 62 -33 44 -96 -8 -26 -6 -28
24 -28 22 0 41 9 62 30 25 25 29 35 23 63 -4 17 -16 47 -27 66 -17 30 -17 33
-2 20 16 -13 17 -12 11 11 -4 14 -7 30 -7 36 0 26 -122 70 -160 57z m40 -83
c0 -5 -4 -10 -10 -10 -5 0 -10 5 -10 10 0 6 5 10 10 10 6 0 10 -4 10 -10z"/>
<path d="M3485 1751 c-52 -13 -95 -40 -95 -60 0 -11 -3 -28 -7 -38 -6 -16 -5
-17 12 -3 17 13 17 12 -2 -15 -27 -39 -37 -89 -23 -114 21 -40 120 -72 106
-35 -17 44 -17 66 -2 89 9 14 23 25 31 25 17 0 34 -30 28 -47 -6 -18 -23 -16
-23 2 0 8 -4 15 -10 15 -16 0 -11 -53 8 -82 88 -133 344 -143 545 -21 70 42
143 115 176 174 l25 44 -69 -63 c-73 -67 -190 -131 -278 -153 -68 -17 -175 -7
-224 21 -40 22 -73 65 -73 94 0 27 38 58 62 50 19 -6 20 -3 14 27 -8 44 -33
69 -67 69 -15 0 -29 4 -31 9 -5 14 -68 21 -103 12z m41 -88 c-10 -10 -19 5
-10 18 6 11 8 11 12 0 2 -7 1 -15 -2 -18z"/>
<path d="M2188 1690 c-57 -35 -68 -55 -68 -114 0 -35 4 -46 16 -46 36 0 96 47
120 93 24 45 6 49 -33 7 -33 -38 -73 -53 -73 -29 0 6 8 8 19 4 13 -4 28 5 50
30 32 37 36 51 23 72 -5 8 -21 4 -54 -17z"/>
<path d="M3076 1683 c-10 -26 45 -99 72 -96 12 2 22 -2 22 -7 0 -24 -42 -6
-74 32 -32 37 -36 39 -36 19 0 -31 33 -75 74 -100 51 -32 61 -28 63 26 2 58
-7 76 -59 113 -48 35 -54 36 -62 13z"/>
<path d="M2423 1633 c-7 -3 -13 -8 -13 -13 0 -10 24 -7 28 4 5 11 -1 14 -15 9z"/>
<path d="M2886 1611 c22 -21 27 -21 18 3 -3 9 -13 16 -22 16 -13 0 -12 -3 4
-19z"/>
<path d="M2855 1600 c-3 -5 -1 -10 4 -10 6 0 11 5 11 10 0 6 -2 10 -4 10 -3 0
-8 -4 -11 -10z"/>
<path d="M2790 1560 c0 -5 5 -10 10 -10 6 0 10 5 10 10 0 6 -4 10 -10 10 -5 0
-10 -4 -10 -10z"/>
<path d="M2750 1551 c0 -6 5 -13 10 -16 6 -3 10 1 10 9 0 9 -4 16 -10 16 -5 0
-10 -4 -10 -9z"/>
<path d="M2720 1541 c0 -6 5 -13 10 -16 6 -3 10 1 10 9 0 9 -4 16 -10 16 -5 0
-10 -4 -10 -9z"/>
<path d="M1961 1517 c-6 -8 -26 -21 -44 -28 -18 -7 -41 -19 -51 -28 -11 -9
-16 -11 -13 -4 4 7 -1 14 -13 18 -30 9 -135 -66 -160 -116 -12 -22 -28 -43
-36 -46 -13 -5 -13 -8 2 -24 38 -42 117 -9 148 60 13 29 25 41 40 41 15 0 17
-3 8 -12 -30 -30 3 -89 58 -103 34 -8 89 29 107 72 l13 32 -29 -5 c-22 -5 -32
-1 -44 16 -20 28 -11 55 27 85 28 22 30 26 15 40 -14 14 -17 14 -28 2z m-111
-87 c0 -5 -5 -10 -11 -10 -5 0 -7 5 -4 10 3 6 8 10 11 10 2 0 4 -4 4 -10z"/>
<path d="M3327 1492 c-17 -19 -17 -20 8 -36 34 -22 49 -61 34 -88 -9 -16 -18
-19 -44 -15 -33 5 -33 5 -24 -21 28 -77 98 -105 154 -60 24 18 26 26 21 60 -9
56 22 47 39 -12 16 -56 81 -92 134 -75 20 6 30 35 13 35 -5 0 -17 18 -27 41
-12 26 -40 56 -77 85 -47 36 -65 44 -97 42 -38 -1 -105 30 -113 53 -2 6 -11 2
-21 -9z m153 -92 c0 -5 -4 -10 -10 -10 -5 0 -10 5 -10 10 0 6 5 10 10 10 6 0
10 -4 10 -10z"/>
</g>
</svg>
