<svg width="54" height="57" viewBox="0 0 54 57" fill="none" xmlns="http://www.w3.org/2000/svg">
<g clip-path="url(#clip0_196_440)">
<path d="M9.24979 56.4679C8.72378 56.2116 8.50278 55.7754 8.40553 55.2082C7.37268 49.2586 6.32215 43.3105 5.27751 37.3624C4.1592 30.9988 3.04237 24.6337 1.92406 18.2701C1.2905 14.6736 0.65399 11.077 0.0219026 7.47896C-0.101863 6.77468 0.285641 6.31498 1.09306 6.17353C3.20886 5.80371 5.32318 5.42947 7.43751 5.0567C7.50823 5.04491 7.57453 5.01544 7.70567 4.97419C7.70567 3.84557 7.70567 2.71252 7.70567 1.57801C7.70567 0.319727 8.0195 0 9.25421 0C21.09 0 32.9273 0 44.7631 0C45.9786 0 46.3057 0.324147 46.3057 1.52939C46.3057 2.66832 46.3057 3.80578 46.3057 4.99629C47.4948 5.20846 48.6646 5.41768 49.8345 5.62396C50.8821 5.8096 51.9326 5.98788 52.9787 6.1809C53.7803 6.32971 54.1074 6.84393 53.9644 7.65872C53.0981 12.5946 52.2332 17.5305 51.3713 22.4678C51.2151 23.3651 50.692 23.8337 49.9981 23.6731C49.3763 23.5301 49.0448 23.041 49.1612 22.3396C49.4617 20.5288 49.7859 18.7225 50.1041 16.9146C50.5948 14.1313 51.0898 11.3481 51.582 8.56338C51.6011 8.4573 51.5952 8.34679 51.6055 8.17735C49.8537 7.86794 48.1106 7.56 46.3308 7.24617V37.9444C46.3499 37.9488 46.3691 37.9518 46.3882 37.9562C46.5798 36.8821 46.7713 35.808 46.9643 34.7339C47.1058 33.9382 47.2384 33.1411 47.3931 32.3499C47.5286 31.6559 48.0487 31.3023 48.7103 31.4261C49.3129 31.5381 49.6636 32.0862 49.5472 32.7536C48.2359 40.2208 46.9201 47.6865 45.6162 55.1551C45.516 55.7327 45.3097 56.2027 44.7601 56.4679H44.0986C44.0367 56.434 43.9778 56.3854 43.9114 56.3677C38.4024 54.9695 32.8934 53.5712 27.3799 52.1877C27.128 52.1244 26.8304 52.1406 26.5755 52.2039C22.3409 53.2589 18.1093 54.3227 13.8792 55.3938C12.5163 55.7386 11.1593 56.1099 9.79936 56.4679H9.24831H9.24979ZM9.94965 2.23072V49.8067H44.0735V2.23072H9.94965ZM2.36608 8.19209C4.12384 18.1655 5.87129 28.077 7.62021 37.9886C7.63936 37.9856 7.65852 37.9827 7.6762 37.9797V7.25206C5.9096 7.56442 4.17983 7.87089 2.36608 8.19209ZM17.766 52.1582C17.769 52.1376 17.7719 52.1155 17.7763 52.0949H10.1029C10.2222 52.7432 10.3327 53.3458 10.4536 54.0059C12.9406 53.3782 15.3541 52.7682 17.766 52.1582ZM36.2439 52.0846L36.2351 52.1479C38.6588 52.7609 41.0811 53.3723 43.5637 54C43.6845 53.3267 43.7921 52.7211 43.907 52.0846H36.2454H36.2439Z" fill="#101F9D"/>
<path d="M48.2671 27.5277C48.2744 26.9162 48.7459 26.4551 49.3603 26.458C49.9615 26.461 50.4506 26.9442 50.4536 27.538C50.4565 28.1465 49.9217 28.6711 49.322 28.649C48.7253 28.6283 48.2597 28.1318 48.2671 27.5262V27.5277Z" fill="#101F9D"/>
<path d="M27.0062 24.2642C22.5609 24.2642 18.1171 24.2642 13.6719 24.2642C13.4877 24.2642 13.3036 24.2745 13.1209 24.2539C12.5315 24.1876 12.1072 23.7028 12.1219 23.1326C12.1366 22.5831 12.5551 22.1307 13.1223 22.0674C13.3036 22.0467 13.4892 22.0585 13.6734 22.0585C22.5624 22.0585 31.4529 22.0585 40.3419 22.0585C41.357 22.0585 41.8742 22.418 41.8919 23.1341C41.911 23.8723 41.3732 24.2642 40.3404 24.2642C35.8952 24.2642 31.4514 24.2642 27.0062 24.2642Z" fill="#101F9D"/>
<path d="M27.0134 28.6752C22.5681 28.6752 18.1244 28.6752 13.6791 28.6752C13.495 28.6752 13.3108 28.6855 13.1281 28.6663C12.5387 28.6015 12.11 28.1226 12.1218 27.5524C12.1321 27.0029 12.549 26.5476 13.1148 26.4813C13.2784 26.4621 13.4449 26.471 13.6099 26.471C22.5357 26.471 31.4616 26.471 40.3889 26.471C40.5539 26.471 40.7204 26.4621 40.8839 26.4798C41.4733 26.5432 41.9021 27.025 41.8917 27.5937C41.8814 28.1433 41.4645 28.6 40.8987 28.6648C40.7174 28.6855 40.5318 28.6752 40.3476 28.6752C35.9024 28.6752 31.4586 28.6752 27.0134 28.6752Z" fill="#101F9D"/>
<path d="M13.8822 9.6511C13.8822 8.16297 13.8792 6.67484 13.8822 5.18671C13.8851 4.27468 14.2859 3.86949 15.1861 3.86212C15.8285 3.8577 16.4754 3.89896 17.1148 3.85476C19.5769 3.68384 21.1504 6.25787 20.231 8.47238C20.0749 8.84957 20.1014 9.04848 20.3813 9.35789C21.4245 10.5101 21.6838 11.8538 21.0724 13.2919C20.4653 14.7196 19.3308 15.4224 17.7793 15.4386C16.8967 15.4474 16.0157 15.4504 15.1331 15.4416C14.305 15.4342 13.8866 15.0128 13.8836 14.1744C13.8763 12.6671 13.8822 11.1613 13.8822 9.65405V9.6511ZM16.1129 13.2226C16.7803 13.2226 17.3859 13.2506 17.9885 13.2152C18.6575 13.1755 19.1378 12.6185 19.1717 11.9201C19.2041 11.2556 18.7856 10.5867 18.1815 10.5234C17.5008 10.4512 16.8083 10.5071 16.1144 10.5071V13.2226H16.1129ZM16.0996 8.28526C16.8157 8.14676 17.604 8.60352 18.1064 7.81525C18.3981 7.35702 18.3893 6.84723 18.0445 6.42436C17.5023 5.75986 16.7656 6.18272 16.0996 6.05012V8.28526Z" fill="#101F9D"/>
<path d="M30.2044 13.2357C30.7805 13.2357 31.2771 13.2269 31.7706 13.2372C32.4764 13.2534 32.9626 13.7131 32.9567 14.3452C32.9523 14.9773 32.4676 15.4281 31.7544 15.437C30.9087 15.4473 30.063 15.4473 29.2172 15.437C28.4467 15.4267 28.0032 15.0053 28.0017 14.2479C27.9929 11.1789 27.9943 8.1083 28.0017 5.03921C28.0032 4.3364 28.485 3.85313 29.1185 3.86344C29.7491 3.87376 30.1985 4.3585 30.2 5.07458C30.2074 7.57493 30.203 10.0738 30.203 12.5742C30.203 12.7731 30.203 12.9705 30.203 13.2342L30.2044 13.2357Z" fill="#101F9D"/>
<path d="M37.3741 13.2353C37.9531 13.2353 38.4482 13.2265 38.9433 13.2368C39.649 13.253 40.1338 13.7157 40.1279 14.3463C40.122 14.9784 39.6372 15.4277 38.9241 15.4366C38.0784 15.4469 37.2326 15.4484 36.3869 15.4366C35.6001 15.4263 35.1728 14.9931 35.1714 14.1901C35.1655 11.1755 35.1669 8.16095 35.1714 5.14638C35.1714 4.35664 35.6237 3.84979 36.2926 3.86305C36.9424 3.87483 37.3726 4.36842 37.3741 5.13164C37.3785 7.61284 37.3756 10.094 37.3756 12.5767C37.3756 12.7756 37.3756 12.9731 37.3756 13.2339L37.3741 13.2353Z" fill="#101F9D"/>
<path d="M27.0073 19.8523C25.5369 19.8523 24.0664 19.8538 22.596 19.8523C21.7311 19.8523 21.239 19.4559 21.2302 18.7634C21.2213 18.068 21.7179 17.6481 22.5665 17.6466C25.5251 17.6451 28.4837 17.6451 31.4437 17.6466C32.2924 17.6466 32.7904 18.0665 32.7816 18.762C32.7727 19.4559 32.2836 19.8508 31.4172 19.8508C29.9468 19.8523 28.4763 19.8508 27.0059 19.8508L27.0073 19.8523Z" fill="#101F9D"/>
<path d="M17.7472 44.1165C19.1956 44.1165 20.6454 44.1136 22.0937 44.1165C22.9115 44.118 23.3962 44.5217 23.408 45.1965C23.4198 45.8964 22.9277 46.3193 22.0819 46.3207C19.2029 46.3237 16.3224 46.3237 13.4434 46.3207C12.6345 46.3207 12.135 45.9052 12.1218 45.2407C12.1085 44.5556 12.6213 44.1195 13.4552 44.118C14.8859 44.1151 16.3165 44.118 17.7472 44.118V44.1165Z" fill="#101F9D"/>
<path d="M17.6913 30.8812C19.0674 30.8812 20.4421 30.8782 21.8183 30.8812C22.6242 30.8827 23.1281 31.2982 23.1428 31.9597C23.1576 32.6404 22.6389 33.0839 21.8094 33.0854C19.0217 33.0883 16.2341 33.0883 13.4449 33.0854C12.6375 33.0854 12.1366 32.6699 12.1218 32.0054C12.1071 31.3217 12.6228 30.8827 13.4538 30.8812C14.8668 30.8782 16.2783 30.8812 17.6913 30.8812Z" fill="#101F9D"/>
<path d="M15.4558 41.9092C14.7412 41.9092 14.0266 41.918 13.312 41.9062C12.6063 41.8945 12.123 41.4392 12.1215 40.8086C12.1201 40.1779 12.6033 39.7124 13.3076 39.7079C14.7545 39.6976 16.2028 39.6976 17.6497 39.7079C18.3555 39.7124 18.8387 40.175 18.8402 40.8041C18.8402 41.4333 18.3584 41.8945 17.6541 41.9062C16.9219 41.918 16.1881 41.9092 15.4558 41.9092Z" fill="#101F9D"/>
<path d="M25.7933 12.1893C25.7933 12.867 25.8007 13.5448 25.7919 14.2226C25.7815 14.9372 25.3425 15.4219 24.7163 15.4366C24.0695 15.4514 23.5965 14.9534 23.5921 14.2167C23.5832 12.8243 23.5832 11.4319 23.5921 10.0396C23.5965 9.32499 24.0385 8.84171 24.6677 8.82698C25.3145 8.81224 25.783 9.31025 25.7933 10.0455C25.8036 10.7601 25.7948 11.4747 25.7948 12.1893H25.7933Z" fill="#101F9D"/>
<path d="M24.8135 41.9091C24.1534 41.9091 23.4948 41.9165 22.8347 41.9077C22.0921 41.8973 21.5971 41.4421 21.6059 40.7923C21.6133 40.1632 22.0965 39.7123 22.8082 39.7079C24.1637 39.6976 25.5192 39.699 26.8762 39.7079C27.6188 39.7123 28.1139 40.1735 28.105 40.8218C28.0962 41.4701 27.6026 41.9018 26.8482 41.9091C26.1705 41.9165 25.4927 41.9091 24.8149 41.9091H24.8135Z" fill="#101F9D"/>
<path d="M24.7014 6.06163C24.0929 6.06752 23.5831 5.55478 23.5919 4.94627C23.6008 4.35838 24.0914 3.87069 24.6793 3.8648C25.2893 3.8589 25.7991 4.37164 25.7887 4.98016C25.7799 5.56804 25.2878 6.05721 24.6999 6.06311L24.7014 6.06163Z" fill="#101F9D"/>
<path d="M27.0161 33.0821C26.4076 33.088 25.8978 32.5753 25.9067 31.9668C25.9155 31.3789 26.4062 30.8912 26.994 30.8853C27.604 30.8794 28.1138 31.3922 28.1035 32.0007C28.0947 32.5886 27.6025 33.0777 27.0147 33.0836L27.0161 33.0821Z" fill="#101F9D"/>
<path d="M39.41 35.2763V36.2761H40.8264V38.009H39.31C39.1323 38.9977 38.699 39.7531 38.0103 40.2753C37.3215 40.7863 36.3162 41.0418 34.9942 41.0418V41.7083C34.9942 42.1415 35.0775 42.4804 35.2442 42.7248C35.4108 42.958 35.6996 43.0747 36.1107 43.0747C36.4995 43.0747 36.7772 42.958 36.9438 42.7248C37.1105 42.4915 37.1938 42.1415 37.1938 41.675H39.8266C39.7822 42.797 39.4489 43.669 38.8268 44.2911C38.2158 44.9132 37.3326 45.2243 36.1773 45.2243C34.9331 45.2243 33.9778 44.9021 33.3112 44.2578C32.6558 43.6024 32.3281 42.6248 32.3281 41.325V39.1755C33.4834 39.1755 34.3333 39.1533 34.8776 39.1088C35.433 39.0533 35.8441 38.9477 36.1107 38.7922C36.3884 38.6256 36.5717 38.3645 36.6606 38.009H32.0115V36.2761H36.7439V35.2763H32.0115V33.36H40.8264V35.2763H39.41Z" fill="#0905A1"/>
</g>
<defs>
<clipPath id="clip0_196_440">
<rect width="54" height="56.4679" fill="white"/>
</clipPath>
</defs>
</svg>
