<svg width="80" height="92" viewBox="0 0 80 92" fill="none" xmlns="http://www.w3.org/2000/svg">
<g clip-path="url(#clip0_719_1026)">
<path d="M48.3168 26.9604C48.527 26.7765 48.635 26.7133 48.6998 26.6204C49.613 25.296 50.8856 25.0034 52.4174 25.1062C54.1044 25.2189 55.8031 25.126 57.496 25.1339C58.4995 25.1378 58.9178 25.5648 58.9198 26.5887C58.9256 30.5659 58.9355 34.543 58.908 38.5202C58.904 39.1646 59.0278 39.39 59.7308 39.382C63.633 39.3425 67.5352 39.3623 71.4374 39.3643C72.6923 39.3643 73.0596 39.7339 73.0596 40.9911C73.0615 43.0904 73.0478 45.1916 73.0674 47.2909C73.0733 47.874 72.9025 48.3267 72.4901 48.7438C58.4956 62.818 44.507 76.8981 30.5242 90.9822C30.1334 91.3756 29.7092 91.5555 29.1515 91.5555C19.9233 91.5456 10.6951 91.5496 1.46492 91.5456C0.418181 91.5456 0.00576952 91.1226 0.00576952 90.0552C0.00576952 79.9759 0.00969725 69.8966 -0.00012207 59.8173C-0.00012207 59.252 0.196264 58.8349 0.58511 58.4435C13.7803 45.1718 26.9696 31.8962 40.1531 18.6127C40.5615 18.1996 40.9975 17.9979 41.5847 18.0058C43.3522 18.0296 45.1197 18.0098 46.8852 18.0177C47.8907 18.0217 48.311 18.4466 48.3129 19.4666C48.3188 21.9099 48.3149 24.3531 48.3149 26.9604H48.3168ZM45.9602 22.24C45.6637 22.2835 45.5674 22.4693 45.4378 22.6017C33.1833 34.9325 20.9307 47.2672 8.67231 59.594C8.36987 59.8984 8.24615 60.1969 8.24615 60.6258C8.25793 67.3447 8.254 74.0655 8.25989 80.7844C8.25989 80.988 8.15974 81.2232 8.37576 81.4169C8.47199 81.3319 8.56429 81.2568 8.64874 81.1718C12.329 77.4694 16.0034 73.7611 19.6955 70.0706C19.996 69.7701 20.0411 69.4578 20.0411 69.0782C20.0352 64.9034 20.0529 60.7286 20.0234 56.5538C20.0176 55.8026 20.2414 55.2551 20.7697 54.7233C28.6095 46.858 36.404 38.9472 44.289 31.1253C45.5223 29.9017 46.1625 28.7196 45.9916 26.9663C45.8404 25.4126 45.9602 23.8312 45.9602 22.2419V22.24ZM56.5651 29.2296C56.3353 29.4372 56.2253 29.5281 56.1252 29.6289C47.3624 38.4471 38.6036 47.2691 29.833 56.0794C29.5423 56.3699 29.4559 56.6664 29.4559 57.0578C29.4677 60.2443 29.4598 63.4288 29.4657 66.6153C29.4657 66.7951 29.3793 67.0066 29.6012 67.2004C31.1959 65.5933 32.7866 63.9902 34.3793 62.389C41.6142 55.1068 48.8491 47.8246 56.082 40.5404C56.298 40.323 56.5729 40.153 56.571 39.7616C56.5592 36.3083 56.5651 32.853 56.5651 29.2296ZM68.9963 41.7363C65.4103 41.7363 62.0011 41.7422 58.5918 41.7284C58.2442 41.7284 58.0596 41.9162 57.8514 42.1257C49.1083 50.928 40.3612 59.7284 31.622 68.5346C31.5022 68.6552 31.2666 68.7343 31.353 69.017C34.6169 69.017 37.8789 69.0051 41.1409 69.0288C41.6947 69.0328 42.0894 68.8845 42.4881 68.4813C51.1173 59.7719 59.7603 51.0783 68.3993 42.3807C68.5663 42.2127 68.7234 42.0328 68.9963 41.7383V41.7363ZM2.36241 74.9491C2.36241 79.4441 2.37615 83.9392 2.3467 88.4323C2.34277 89.0668 2.52737 89.1992 3.12439 89.1894C5.45549 89.1538 7.7866 89.1755 10.1157 89.1755C15.9308 89.1755 21.7458 89.1676 27.5608 89.1874C28.1106 89.1874 28.3522 89.0846 28.3011 88.4718C28.2422 87.7859 28.2344 87.0842 28.3011 86.4002C28.3699 85.7163 28.1126 85.6016 27.4881 85.6036C20.8384 85.6273 14.1908 85.6194 7.54112 85.6174C6.2489 85.6174 5.89736 85.2577 5.89736 83.9372C5.89736 80.2586 5.89736 76.5779 5.89736 72.8992C5.89736 69.096 5.87773 65.2928 5.917 61.4896C5.92486 60.8077 5.72258 60.6495 5.09807 60.699C4.41465 60.7523 3.7214 60.7503 3.03994 60.699C2.48417 60.6574 2.34866 60.8393 2.35062 61.3928C2.37419 65.9115 2.36437 70.4303 2.36437 74.9511L2.36241 74.9491ZM22.3938 66.6034C22.3938 69.5665 22.3997 72.5296 22.386 75.4907C22.384 75.9256 22.4292 76.143 22.9634 76.1411C28.8746 76.1213 34.7858 76.1213 40.6971 76.1411C41.1762 76.1411 41.2646 75.975 41.2548 75.5441C41.2293 74.3838 41.2136 73.2214 41.2607 72.0631C41.2823 71.5037 41.1173 71.3673 40.5694 71.3712C36.6201 71.395 32.6707 71.3851 28.7214 71.3831C27.4743 71.3831 27.1071 71.0115 27.1071 69.7484C27.1071 65.7732 27.0934 61.798 27.1209 57.8228C27.1248 57.2555 26.9637 57.1171 26.4237 57.1369C25.2964 57.1784 24.1672 57.1764 23.0399 57.1369C22.5313 57.1191 22.3762 57.2555 22.382 57.7853C22.4076 60.7227 22.3938 63.662 22.3938 66.5994V66.6034ZM10.0234 83.2454C10.3887 83.2454 10.6519 83.2454 10.915 83.2454C16.0152 83.2454 21.1212 83.1426 26.2175 83.2968C28.2265 83.358 29.7171 82.8836 30.9661 81.2864C31.7222 80.3198 32.7297 79.5548 33.6252 78.6989L33.4877 78.5013C33.0792 78.5013 32.6688 78.5013 32.2603 78.5013C28.6546 78.5013 25.0509 78.5052 21.4453 78.4993C20.4771 78.4993 20.0568 78.0664 20.0372 77.1037C20.0293 76.7084 20.0372 76.313 20.0372 75.9197C20.0372 75.0242 20.0372 74.1288 20.0372 73.1661C16.6672 76.5581 13.3934 79.8533 10.0234 83.2454ZM54.7937 27.6878L54.6935 27.502C53.743 27.502 52.7905 27.5257 51.842 27.4921C51.3628 27.4763 51.027 27.6245 50.6872 27.9685C42.005 36.7253 33.311 45.4723 24.6209 54.2232C24.4775 54.3675 24.2772 54.4822 24.2261 54.7807C25.1923 54.7807 26.1193 54.751 27.0443 54.7925C27.5784 54.8162 27.9476 54.6462 28.3267 54.2628C36.5376 45.9744 44.7642 37.6999 52.9889 29.4253C53.578 28.8343 54.1908 28.267 54.7917 27.6878H54.7937ZM43.6036 74.3719C43.7705 74.2513 43.8137 74.2276 43.8491 74.194C52.6982 65.2909 61.5474 56.3858 70.3946 47.4787C70.5125 47.3601 70.6774 47.2098 70.6813 47.0715C70.7049 45.9072 70.6951 44.7429 70.6951 43.4995C70.538 43.6122 70.4928 43.6359 70.4594 43.6695C61.6103 52.5727 52.7611 61.4778 43.9119 70.3829C43.7587 70.5371 43.5977 70.6754 43.5996 70.9383C43.6114 72.0413 43.6036 73.1444 43.6036 74.3699V74.3719ZM44.2399 20.6171C44.1868 20.54 44.1338 20.4609 44.0808 20.3838C43.741 20.3838 43.3954 20.4273 43.0635 20.3759C42.0953 20.2217 41.4473 20.6428 40.7717 21.3247C28.7823 33.4341 16.7674 45.5158 4.76225 57.6054C4.5639 57.805 4.30663 57.9632 4.17702 58.3368C4.53248 58.3368 4.8467 58.2953 5.14913 58.3447C6.19587 58.5167 6.89894 58.0581 7.62949 57.3188C19.5816 45.243 31.5612 33.1969 43.5407 21.1468C43.745 20.9413 44.0062 20.791 44.2399 20.6151V20.6171ZM39.4107 78.4993C38.7077 78.4993 38.0478 78.5171 37.3879 78.4914C37.0777 78.4795 36.8891 78.6297 36.6947 78.8254C34.7897 80.7488 32.8789 82.6662 30.974 84.5895C30.8227 84.7417 30.6362 84.8702 30.6401 85.1351C30.6499 85.8606 30.644 86.588 30.644 87.3332C33.5859 84.3681 36.4708 81.4624 39.4107 78.4993Z" fill="#101F9D"/>
<path d="M59.8037 54.0929C59.7271 54.0929 59.6485 54.0909 59.57 54.0869C57.4372 53.9743 55.7385 53.2982 54.3775 52.0252C53.099 50.8293 52.5079 49.3863 52.663 47.8425C50.3948 47.5183 48.6587 46.9016 47.2074 45.9073C45.0688 44.4425 44.35 42.5785 45.0177 40.2222C43.5684 39.8961 42.3861 39.4968 41.3158 38.971C40.6206 38.629 39.731 38.1348 39.0161 37.354C37.9969 36.2411 37.9498 34.6677 38.9042 33.5271C39.4659 32.855 40.2907 32.4557 41.1116 32.4557C41.6674 32.4557 42.1937 32.6356 42.6316 32.9776C44.3834 34.3435 46.5083 34.7171 48.535 34.98C49.9922 35.1698 51.4337 35.2666 52.8143 35.2666C55.1571 35.2666 57.4372 34.9879 59.5935 34.4403C59.9235 34.3573 60.2495 34.2466 60.5813 34.1241C59.3343 33.6734 57.9203 33.3828 56.1293 33.2029C54.6112 33.0507 53.044 33.0072 51.5299 32.9677C49.6701 32.9183 47.7495 32.8669 45.8465 32.6119C43.1147 32.2482 40.2141 31.7421 37.5079 30.5245C37.1898 30.3822 36.8637 30.2141 36.5397 30.0244C34.6112 28.9016 33.5409 27.342 33.5291 25.6321C33.5193 24.1377 34.3166 22.7461 35.7954 21.651C34.2734 21.1766 32.9085 20.6626 31.5888 19.9827C30.1768 19.2552 29.1202 18.514 28.2659 17.6462C25.6501 14.9875 25.5578 11.5974 28.0244 8.80234C29.132 7.54713 30.5539 6.52517 32.502 5.58425C37.3881 3.22801 42.5747 2.2772 46.5456 1.71186C50.3889 1.16431 54.293 0.887573 58.152 0.887573C60.2082 0.887573 62.2938 0.966642 64.352 1.12083C69.2282 1.48849 73.1521 2.18035 76.7008 3.29719C78.5684 3.88427 79.4875 5.37077 78.9847 6.99167C78.592 8.2627 77.5649 9.02176 76.2373 9.02176C75.8661 9.02176 75.4753 8.96246 75.0747 8.84583C70.0982 7.39295 64.7467 6.68726 58.7157 6.68726C56.3649 6.68726 53.9278 6.79202 51.2648 7.00749C45.4635 7.47597 40.815 8.45247 36.634 10.0753C35.3202 10.5853 33.8119 11.2594 32.6081 12.3723C32.0209 12.9159 32.0189 13.1155 32.0189 13.1175C32.0189 13.1175 32.0307 13.3152 32.6297 13.8034C34.3048 15.1733 36.3139 15.8098 38.0578 16.2526C43.1736 17.5473 48.2345 18.2056 53.1029 18.2056C56.6242 18.2056 60.1414 17.8636 63.5605 17.1856C64.6662 16.9662 65.9015 16.6539 67.0601 16.0055C66.0841 15.539 65.0256 15.3117 63.9415 15.11C61.7695 14.7068 59.5326 14.5012 57.2938 14.5012C54.0692 14.5012 50.709 14.9262 47.3017 15.7663L47.2722 15.7742C46.8775 15.8711 46.4317 15.9818 45.9486 15.9818C45.7895 15.9818 45.6324 15.9699 45.4812 15.9462C44.2007 15.7446 43.2286 14.6791 43.1167 13.3547C43.0008 11.977 43.8178 10.7771 45.1493 10.3699C46.7695 9.87372 48.5684 9.4942 50.6462 9.20757C53.0244 8.87944 55.3319 8.71339 57.504 8.71339C60.7247 8.71339 63.7098 9.05932 66.6301 9.77291C68.4329 10.2137 69.8351 10.7949 71.0389 11.6034C72.7239 12.734 73.6666 14.2502 73.698 15.8731C73.7275 17.4861 72.8476 19.0259 71.2216 20.208C68.8571 21.9258 66.0939 22.6295 63.4604 23.1355C60.5362 23.6969 57.3724 23.9697 53.7883 23.9697H53.1128C48.7294 23.9697 45.2062 24.3532 42.0248 25.1794C41.5751 25.2961 41.1116 25.4246 40.656 25.5926C41.2373 25.812 41.8186 25.9583 42.3528 26.0769C45.8602 26.8498 49.3677 27.2411 52.7769 27.2411C56.5103 27.2411 60.2436 26.7707 63.8728 25.8436C64.6917 25.6341 65.5028 25.2763 66.3571 24.7505C66.9207 24.4026 67.5236 24.2188 68.101 24.2188C69.0495 24.2188 69.9018 24.707 70.4399 25.557C71.3256 26.9565 70.9388 28.5497 69.4541 29.6132C68.5291 30.2754 67.5197 30.7083 66.5122 31.0799C67.3233 32.0031 67.7534 33.1021 67.7337 34.215C67.7121 35.4406 67.1407 36.6286 66.1273 37.5616C64.3912 39.1588 62.233 39.7735 60.3457 40.2242C58.4486 40.6769 56.5495 40.8765 54.2793 41.0367C53.1776 41.1137 52.2703 41.3075 51.4808 41.6395C52.5806 42.0724 53.7451 42.195 54.8685 42.2504C55.4616 42.28 56.0939 42.2919 56.9207 42.2919C57.2978 42.2919 57.6768 42.2899 58.0538 42.2859C58.4368 42.284 58.8178 42.28 59.2008 42.28C59.3736 42.28 59.5484 42.28 59.7212 42.28C61.577 42.2938 62.8692 43.4127 62.936 45.0632C63.0028 46.7158 61.7656 47.9552 59.9254 48.0757C59.6308 48.0955 59.3755 48.1331 59.1497 48.1904C59.3736 48.2477 59.6289 48.2833 59.9274 48.305C61.7891 48.4335 62.9989 49.6413 62.936 51.3116C62.8751 52.9483 61.5888 54.0909 59.8076 54.0909L59.8037 54.0929Z" fill="#1ABDFE"/>
<path d="M58.1481 1.77904C60.1905 1.77904 62.2349 1.85614 64.2812 2.01032C68.3975 2.32066 72.4745 2.90182 76.4317 4.14715C77.8299 4.58796 78.4918 5.58027 78.1363 6.72874C77.8574 7.6321 77.1701 8.13419 76.2333 8.13419C75.9486 8.13419 75.6422 8.08872 75.3181 7.99384C69.8507 6.39863 64.3028 5.79969 58.7137 5.79969C56.2137 5.79969 53.7058 5.91829 51.1921 6.12189C46.1076 6.53305 41.1017 7.38699 36.3138 9.24708C34.7604 9.85195 33.2541 10.5675 32.009 11.718C30.8307 12.8071 30.8327 13.4832 32.0719 14.4953C33.7588 15.875 35.7738 16.5926 37.8417 17.1164C42.9026 18.3993 47.991 19.0951 53.1029 19.0951C56.6339 19.0951 60.1768 18.763 63.7313 18.0593C65.4831 17.7134 67.2015 17.1856 68.698 15.9679C67.284 14.8946 65.6972 14.5348 64.1025 14.2383C61.8264 13.8153 59.5562 13.6156 57.2938 13.6156C53.8767 13.6156 50.4772 14.0722 47.0915 14.9064C46.7105 14.9993 46.3354 15.0962 45.9486 15.0962C45.8386 15.0962 45.7286 15.0883 45.6167 15.0705C44.7427 14.9341 44.0731 14.1889 43.9965 13.2816C43.9179 12.3525 44.4501 11.5144 45.4046 11.2218C47.1563 10.6861 48.9552 10.3382 50.7639 10.0892C53.0145 9.77881 55.2612 9.60289 57.502 9.60289C60.487 9.60289 63.4623 9.91521 66.4199 10.6367C67.879 10.9925 69.2871 11.4966 70.5479 12.3426C73.5055 14.3292 73.5782 17.3951 70.7031 19.4845C68.4918 21.0916 65.9152 21.7557 63.2934 22.2598C60.1532 22.8627 56.9796 23.0782 53.7883 23.0782C53.6823 23.0782 53.5762 23.0782 53.4702 23.0782C53.3504 23.0782 53.2306 23.0782 53.1108 23.0782C49.2969 23.0782 45.5106 23.3549 41.8009 24.3176C40.7443 24.5923 39.6917 24.9106 38.7156 25.5925C39.7977 26.3279 40.9682 26.6817 42.1603 26.9446C45.7011 27.7254 49.24 28.1306 52.773 28.1306C56.5495 28.1306 60.3201 27.6681 64.0868 26.7054C65.057 26.4564 65.9564 26.0373 66.8146 25.5075C67.2506 25.2387 67.6885 25.1082 68.097 25.1082C68.7392 25.1082 69.3087 25.4285 69.6917 26.0353C70.3162 27.0217 70.0275 28.1089 68.9395 28.8897C67.7357 29.7535 66.3413 30.1983 64.9489 30.6905C65.0589 31.0878 65.3967 31.2044 65.6167 31.4239C67.2801 33.0705 67.2643 35.3061 65.5263 36.9033C64.0024 38.3048 62.0876 38.8899 60.1375 39.3564C58.1913 39.8209 56.2058 40.0068 54.2125 40.1471C52.6119 40.2598 51.0683 40.6097 49.6583 41.6632C51.2628 42.7939 53.0322 43.0489 54.8193 43.1359C55.5165 43.1695 56.2156 43.1794 56.9148 43.1794C57.6728 43.1794 58.4328 43.1695 59.1929 43.1695C59.3637 43.1695 59.5365 43.1695 59.7074 43.1695C61.1017 43.1794 61.9973 43.9266 62.0444 45.0988C62.0915 46.267 61.2333 47.0972 59.8586 47.1862C59.1497 47.2336 58.478 47.374 57.8849 47.795C57.5177 48.0559 57.5138 48.3149 57.8849 48.5778C58.476 48.9988 59.1497 49.1392 59.8586 49.1886C61.2431 49.2835 62.0876 50.0999 62.0444 51.276C62.0012 52.4324 61.1214 53.1994 59.7997 53.1994C59.7388 53.1994 59.676 53.1994 59.6112 53.1934C57.8712 53.1005 56.2746 52.5866 54.9725 51.3689C53.9434 50.4063 53.3602 49.2103 53.5507 47.7851C53.6449 47.0814 53.3582 47.0399 52.826 46.9648C51.0035 46.7078 49.2439 46.2295 47.6964 45.168C45.7777 43.8534 45.216 42.28 45.9839 40.07C46.2117 39.4118 45.7659 39.473 45.4753 39.4098C44.1693 39.133 42.8987 38.7594 41.6968 38.1684C40.9466 37.7988 40.2278 37.3718 39.6583 36.7491C38.9376 35.9624 38.9179 34.8811 39.5719 34.0984C39.9666 33.6259 40.5381 33.3432 41.1017 33.3432C41.4454 33.3432 41.7852 33.448 42.0797 33.6793C43.9572 35.144 46.1705 35.569 48.4112 35.8616C49.8782 36.0533 51.3433 36.1561 52.8024 36.1561C55.1493 36.1561 57.4843 35.8912 59.7977 35.3022C60.4713 35.1302 61.1214 34.8653 61.7694 34.6103C62.0267 34.5095 62.4293 34.4522 62.4136 34.0984C62.4018 33.8216 62.0365 33.7702 61.8009 33.6635C60.0196 32.8629 58.1284 32.5111 56.2058 32.3173C52.7966 31.9734 49.3559 32.1849 45.9505 31.7302C43.1756 31.3606 40.434 30.8724 37.8555 29.712C37.553 29.5756 37.2565 29.4214 36.9698 29.2534C33.5625 27.2708 33.5428 23.9894 36.9226 21.9574C37.2035 21.7893 37.4882 21.6253 37.9478 21.3564C35.7856 20.7555 33.8217 20.1368 31.9776 19.19C30.8464 18.6088 29.7801 17.9328 28.8826 17.0195C26.6123 14.7107 26.5318 11.8208 28.6724 9.39138C29.8409 8.06698 31.302 7.14188 32.8712 6.38677C37.2368 4.28157 41.903 3.26949 46.6555 2.59345C50.4733 2.04985 54.3028 1.77904 58.1383 1.77904M58.1383 0C54.238 0 50.2907 0.280694 46.4081 0.832197C42.3743 1.40545 37.1013 2.37404 32.1072 4.78168C30.0491 5.77399 28.5369 6.86316 27.3488 8.21128C24.5856 11.3444 24.6936 15.2919 27.6237 18.2708C28.5448 19.2078 29.672 20.0024 31.1705 20.7753C32.1092 21.2576 33.0636 21.6589 34.075 22.0206C33.1304 23.094 32.6218 24.3433 32.6296 25.64C32.6434 27.6483 33.9022 29.5262 36.0821 30.7953C36.4317 30.9989 36.7852 31.1807 37.1308 31.3369C37.8044 31.6393 38.4859 31.9002 39.1732 32.1256C38.8158 32.345 38.4898 32.6257 38.2129 32.9538C36.9835 34.4225 37.0424 36.5277 38.3523 37.9569C39.1673 38.8464 40.1493 39.392 40.9152 39.7696C41.8284 40.2183 42.8123 40.58 43.9552 40.8824C43.5919 43.211 44.511 45.1442 46.6968 46.6426C48.0911 47.5973 49.7113 48.2279 51.7478 48.5976C51.8205 50.1058 52.5059 51.4994 53.7628 52.6775C55.2612 54.079 57.1956 54.8519 59.511 54.9764C59.6053 54.9824 59.6995 54.9843 59.7918 54.9843C62.0738 54.9843 63.7235 53.4899 63.804 51.3492C63.8531 50.0228 63.2738 48.902 62.2761 48.1983C63.2797 47.4946 63.859 46.3678 63.804 45.0335C63.7176 42.9106 62.0365 41.4142 59.7133 41.3964C59.5365 41.3964 59.3617 41.3964 59.185 41.3964C59.1477 41.3964 59.1084 41.3964 59.0711 41.3964C59.5621 41.3094 60.0491 41.2086 60.5361 41.092C62.5314 40.6156 64.8174 39.9613 66.7086 38.2218C67.9026 37.1227 68.5762 35.7074 68.6037 34.2347C68.6214 33.2839 68.37 32.347 67.879 31.493C68.5841 31.1886 69.2832 30.8249 69.9548 30.3426C71.8244 29.0024 72.3134 26.8893 71.1724 25.0845C70.4694 23.9716 69.3441 23.3332 68.0872 23.3332C67.3449 23.3332 66.5829 23.5625 65.8798 23.9954C65.1041 24.4737 64.3716 24.7979 63.641 24.9857C60.0845 25.895 56.4238 26.3556 52.7632 26.3556C50.002 26.3556 47.174 26.0927 44.3303 25.5748C46.8951 25.0905 49.7368 24.8612 53.099 24.8612C53.2149 24.8612 53.3327 24.8612 53.4505 24.8612C53.5585 24.8612 53.6685 24.8612 53.7765 24.8612C57.4156 24.8612 60.6343 24.5824 63.6135 24.0112C66.3472 23.4854 69.2243 22.75 71.7262 20.9314C73.5958 19.5734 74.6053 17.7727 74.5699 15.8592C74.5346 13.9378 73.4505 12.1647 71.5181 10.866C70.2239 9.99625 68.7333 9.37556 66.8264 8.91104C63.8786 8.19151 60.7384 7.8278 57.4921 7.8278C55.2808 7.8278 52.9321 7.99779 50.5145 8.32988C48.3896 8.62244 46.5475 9.01383 44.8802 9.52382C43.1677 10.0476 42.0738 11.6567 42.2251 13.4357C42.3547 14.9796 43.3798 16.2545 44.7918 16.7033C42.6335 16.387 40.4517 15.9521 38.26 15.3966C36.6104 14.9796 34.7152 14.3806 33.1736 13.1214C33.1599 13.1096 33.1461 13.0997 33.1343 13.0898C33.152 13.072 33.1716 13.0542 33.1913 13.0364C34.2871 12.0244 35.7011 11.3958 36.9383 10.9134C41.0369 9.32022 45.6068 8.36349 51.3217 7.90093C53.9611 7.68745 56.3747 7.58466 58.7019 7.58466C64.6485 7.58466 69.9195 8.27849 74.8154 9.70765C75.2965 9.848 75.7698 9.91916 76.2235 9.91916C77.9321 9.91916 79.3068 8.90115 79.8134 7.26245C80.4615 5.16714 79.2832 3.18844 76.9482 2.4531C73.3347 1.31649 69.348 0.612782 64.403 0.239183C62.3233 0.0830221 60.216 0.00197672 58.1383 0.00197672V0ZM46.0664 16.8713C46.6045 16.8555 47.0837 16.7369 47.4725 16.64L47.502 16.6321C50.8386 15.8098 54.13 15.3927 57.284 15.3927C59.4698 15.3927 61.6516 15.5923 63.7726 15.9857C63.967 16.0213 64.1595 16.0588 64.35 16.0964C64.02 16.1794 63.696 16.2506 63.3818 16.3119C60.0177 16.976 56.5574 17.3141 53.0931 17.3141C50.7914 17.3141 48.4446 17.1638 46.0683 16.8673L46.0664 16.8713ZM52.8005 34.3771C51.4572 34.3771 50.057 34.2822 48.6351 34.0984C47.5786 33.96 46.4945 33.792 45.4694 33.4599C45.5519 33.4717 45.6343 33.4816 45.7168 33.4935C47.6669 33.7524 49.6112 33.8058 51.4945 33.8552C53.0617 33.8967 54.5424 33.9363 56.0291 34.0865C56.1803 34.1023 56.3276 34.1181 56.4729 34.1339C55.2749 34.294 54.0475 34.3751 52.8024 34.3751L52.8005 34.3771Z" fill="white"/>
</g>
<defs>
<clipPath id="clip0_719_1026">
<rect width="80" height="91.5556" fill="white"/>
</clipPath>
</defs>
</svg>
