<svg width="90" height="94" viewBox="0 0 90 94" fill="none" xmlns="http://www.w3.org/2000/svg">
<g clip-path="url(#clip0_82_772)">
<path d="M15.2749 93.25C14.4063 92.8266 14.0413 92.1064 13.8807 91.1697C12.1751 81.3447 10.4403 71.5221 8.71516 61.6995C6.86841 51.1908 5.02409 40.6796 3.17734 30.1709C2.13109 24.2316 1.07997 18.2923 0.0361583 12.3506C-0.168225 11.1876 0.47169 10.4284 1.80505 10.1948C5.29904 9.58413 8.79059 8.96611 12.2821 8.35053C12.3989 8.33106 12.5084 8.2824 12.725 8.21427C12.725 6.35049 12.725 4.47941 12.725 2.60589C12.725 0.527991 13.2432 0 15.2822 0C34.8276 0 54.3754 0 73.9208 0C75.9282 0 76.4683 0.53529 76.4683 2.5256C76.4683 4.40641 76.4683 6.28479 76.4683 8.25077C78.4319 8.60114 80.3638 8.94665 82.2957 9.28729C84.0256 9.59386 85.7605 9.88827 87.488 10.207C88.8116 10.4528 89.3518 11.3019 89.1158 12.6474C87.6851 20.7985 86.2568 28.9495 84.8334 37.1029C84.5755 38.5847 83.7118 39.3584 82.5658 39.0932C81.539 38.8572 80.9915 38.0494 81.1837 36.8912C81.6801 33.9009 82.2154 30.9179 82.7409 27.9324C83.5512 23.3362 84.3687 18.74 85.1814 14.1414C85.213 13.9662 85.2033 13.7837 85.2203 13.5039C82.3273 12.993 79.4489 12.4844 76.5097 11.9662V62.6606C76.5413 62.6679 76.5729 62.6728 76.6046 62.6801C76.9209 60.9063 77.2372 59.1325 77.5559 57.3588C77.7895 56.0449 78.0085 54.7286 78.264 53.422C78.4878 52.276 79.3467 51.692 80.4392 51.8964C81.4343 52.0813 82.0134 52.9864 81.8212 54.0886C79.6557 66.4198 77.4829 78.7485 75.3296 91.0821C75.1642 92.0359 74.8235 92.812 73.916 93.25H72.8235C72.7213 93.194 72.624 93.1137 72.5145 93.0845C63.417 90.7755 54.3195 88.4665 45.2147 86.1817C44.7986 86.0771 44.3071 86.1039 43.8862 86.2085C36.8933 87.9506 29.9054 89.7074 22.9198 91.4762C20.6692 92.0456 18.4282 92.6587 16.1825 93.25H15.2725H15.2749ZM16.4306 3.68377V82.2498H72.7821V3.68377H16.4306ZM3.90728 13.5282C6.81001 29.9982 9.69571 46.3659 12.5838 62.7336C12.6155 62.7287 12.6471 62.7239 12.6763 62.719V11.9759C9.75898 12.4917 6.90247 12.9978 3.90728 13.5282ZM29.3384 86.1331C29.3433 86.099 29.3482 86.0625 29.3555 86.0285H16.6837C16.8808 87.099 17.0633 88.0942 17.2628 89.1842C21.3699 88.1477 25.3554 87.1404 29.3384 86.1331ZM59.8524 86.0114L59.8378 86.116C63.8403 87.1282 67.8404 88.138 71.9402 89.1745C72.1398 88.0625 72.3174 87.0625 72.5072 86.0114H59.8549H59.8524Z" fill="white"/>
<path d="M79.7072 45.4583C79.7193 44.4486 80.4979 43.687 81.5126 43.6919C82.5053 43.6967 83.3131 44.4948 83.3179 45.4753C83.3228 46.4802 82.4396 47.3464 81.4493 47.3099C80.4639 47.2759 79.695 46.4559 79.7072 45.4559V45.4583Z" fill="white"/>
<path d="M44.597 40.0689C37.2562 40.0689 29.9179 40.0689 22.5771 40.0689C22.273 40.0689 21.9688 40.0859 21.6671 40.0519C20.6939 39.9424 19.9931 39.1419 20.0175 38.2003C20.0418 37.2927 20.7328 36.5457 21.6696 36.4411C21.9688 36.407 22.2754 36.4265 22.5796 36.4265C37.2587 36.4265 51.9402 36.4265 66.6193 36.4265C68.2958 36.4265 69.1498 37.0202 69.179 38.2027C69.2106 39.4217 68.3225 40.0689 66.6169 40.0689C59.2761 40.0689 51.9378 40.0689 44.597 40.0689Z" fill="#1ABDFE"/>
<path d="M44.6092 47.3538C37.2684 47.3538 29.9301 47.3538 22.5893 47.3538C22.2852 47.3538 21.981 47.3708 21.6793 47.3392C20.7061 47.2321 19.998 46.4413 20.0175 45.4997C20.0345 44.5922 20.7231 43.8403 21.6574 43.7308C21.9275 43.6992 22.2024 43.7138 22.475 43.7138C37.2149 43.7138 51.9548 43.7138 66.6972 43.7138C66.9697 43.7138 67.2447 43.6992 67.5148 43.7284C68.488 43.833 69.1961 44.6287 69.179 45.5678C69.162 46.4754 68.4734 47.2297 67.5391 47.3367C67.2398 47.3708 66.9332 47.3538 66.6291 47.3538C59.2883 47.3538 51.95 47.3538 44.6092 47.3538Z" fill="#1ABDFE"/>
<path d="M22.9251 15.937C22.9251 13.4796 22.9202 11.0221 22.9251 8.56464C22.9299 7.05853 23.5918 6.38942 25.0784 6.37725C26.1392 6.36995 27.2074 6.43808 28.2634 6.36509C32.3292 6.08284 34.9277 10.3335 33.4095 13.9905C33.1515 14.6134 33.1953 14.9419 33.6576 15.4529C35.3803 17.3556 35.8085 19.5746 34.7988 21.9493C33.7963 24.307 31.9228 25.4676 29.3607 25.4944C27.9033 25.509 26.4483 25.5139 24.9908 25.4993C23.6234 25.4871 22.9324 24.7912 22.9275 23.4068C22.9153 20.9177 22.9251 18.431 22.9251 15.9419V15.937ZM26.6088 21.835C27.7111 21.835 28.7111 21.8812 29.7062 21.8228C30.8109 21.7571 31.6041 20.8374 31.66 19.6841C31.7136 18.5867 31.0226 17.4821 30.025 17.3775C28.9009 17.2582 27.7573 17.3507 26.6113 17.3507V21.835H26.6088ZM26.5869 13.6815C27.7694 13.4528 29.0712 14.2071 29.9009 12.9054C30.3826 12.1487 30.368 11.3068 29.7987 10.6085C28.9033 9.51113 27.6867 10.2094 26.5869 9.99046V13.6815Z" fill="#1ABDFE"/>
<path d="M49.8793 21.8569C50.8306 21.8569 51.6506 21.8423 52.4657 21.8593C53.6312 21.8861 54.4341 22.6452 54.4244 23.6891C54.4171 24.7329 53.6166 25.4774 52.4389 25.492C51.0423 25.5091 49.6457 25.5091 48.2491 25.492C46.9766 25.475 46.2442 24.7791 46.2417 23.5285C46.2271 18.4602 46.2296 13.3896 46.2417 8.32137C46.2442 7.16076 47.0398 6.36269 48.0861 6.37972C49.1274 6.39675 49.8696 7.19726 49.872 8.37976C49.8842 12.5088 49.8769 16.6354 49.8769 20.7644C49.8769 21.0929 49.8769 21.4189 49.8769 21.8545L49.8793 21.8569Z" fill="#1ABDFE"/>
<path d="M61.7189 21.8569C62.6751 21.8569 63.4927 21.8423 64.3102 21.8593C65.4757 21.8861 66.2762 22.6501 66.2664 23.6915C66.2567 24.7353 65.4562 25.4774 64.2786 25.492C62.8819 25.509 61.4853 25.5115 60.0887 25.492C58.7894 25.475 58.0838 24.7596 58.0814 23.4336C58.0716 18.4554 58.0741 13.4772 58.0814 8.49896C58.0814 7.19479 58.8283 6.35779 59.933 6.37969C61.006 6.39916 61.7165 7.21426 61.7189 8.47462C61.7262 12.572 61.7213 16.6694 61.7213 20.7693C61.7213 21.0977 61.7213 21.4238 61.7213 21.8544L61.7189 21.8569Z" fill="#1ABDFE"/>
<path d="M44.5994 32.7841C42.1711 32.7841 39.7428 32.7866 37.3145 32.7841C35.8863 32.7841 35.0736 32.1296 35.059 30.986C35.0444 29.8376 35.8644 29.1442 37.2659 29.1417C42.1516 29.1393 47.0374 29.1393 51.9255 29.1417C53.327 29.1417 54.1494 29.8352 54.1348 30.9836C54.1202 32.1296 53.3124 32.7817 51.8817 32.7817C49.4535 32.7841 47.0252 32.7817 44.5969 32.7817L44.5994 32.7841Z" fill="#1ABDFE"/>
<path d="M29.3072 72.853C31.699 72.853 34.0932 72.8481 36.485 72.853C37.8354 72.8554 38.6359 73.5221 38.6553 74.6365C38.6748 75.7922 37.8621 76.4905 36.4655 76.493C31.7112 76.4978 26.9544 76.4978 22.2 76.493C20.8642 76.493 20.0394 75.8068 20.0175 74.7095C19.9956 73.5781 20.8423 72.8579 22.2195 72.8554C24.5821 72.8506 26.9446 72.8554 29.3072 72.8554V72.853Z" fill="#1ABDFE"/>
<path d="M29.2146 50.9961C31.4872 50.9961 33.7573 50.9913 36.0298 50.9961C37.3608 50.9986 38.1929 51.6847 38.2172 52.7772C38.2416 53.9013 37.3851 54.6337 36.0152 54.6361C31.4117 54.641 26.8082 54.641 22.2023 54.6361C20.869 54.6361 20.0417 53.95 20.0174 52.8526C19.993 51.7236 20.8446 50.9986 22.2169 50.9961C24.5503 50.9913 26.8812 50.9961 29.2146 50.9961Z" fill="#1ABDFE"/>
<path d="M25.5235 69.2082C24.3435 69.2082 23.1634 69.2228 21.9833 69.2033C20.8178 69.1839 20.0198 68.432 20.0173 67.3906C20.0149 66.3492 20.813 65.5804 21.976 65.5731C24.3654 65.556 26.7571 65.556 29.1465 65.5731C30.3119 65.5804 31.11 66.3444 31.1124 67.3833C31.1124 68.4223 30.3168 69.1839 29.1538 69.2033C27.9445 69.2228 26.7328 69.2082 25.5235 69.2082Z" fill="#1ABDFE"/>
<path d="M42.5945 20.1294C42.5945 21.2486 42.6067 22.3678 42.5921 23.4871C42.5751 24.6672 41.85 25.4677 40.8159 25.492C39.7478 25.5163 38.9667 24.6939 38.9594 23.4774C38.9448 21.178 38.9448 18.8787 38.9594 16.5794C38.9667 15.3993 39.6967 14.6013 40.7356 14.5769C41.8038 14.5526 42.5775 15.375 42.5945 16.5891C42.6116 17.7692 42.597 18.9493 42.597 20.1294H42.5945Z" fill="#1ABDFE"/>
<path d="M40.9766 69.2081C39.8865 69.2081 38.7989 69.2203 37.7089 69.2057C36.4826 69.1887 35.665 68.4368 35.6796 67.3638C35.6918 66.3249 36.4899 65.5803 37.6651 65.573C39.9036 65.556 42.1421 65.5584 44.383 65.573C45.6093 65.5803 46.4268 66.3419 46.4122 67.4125C46.3976 68.4831 45.5825 69.196 44.3367 69.2081C43.2175 69.2203 42.0983 69.2081 40.979 69.2081H40.9766Z" fill="#1ABDFE"/>
<path d="M40.7916 10.0099C39.7867 10.0196 38.9448 9.17291 38.9594 8.16803C38.974 7.1972 39.7843 6.39183 40.7551 6.3821C41.7624 6.37237 42.6043 7.2191 42.5872 8.22399C42.5726 9.19481 41.76 10.0026 40.7891 10.0123L40.7916 10.0099Z" fill="#1ABDFE"/>
<path d="M44.6141 54.6312C43.6092 54.641 42.7673 53.7943 42.7819 52.7894C42.7965 51.8185 43.6068 51.0132 44.5776 51.0034C45.5849 50.9937 46.4268 51.8404 46.4097 52.8453C46.3951 53.8161 45.5825 54.6239 44.6116 54.6337L44.6141 54.6312Z" fill="#1ABDFE"/>
<path d="M52.8292 72.3921V72.5673H53.0774V72.871H52.8117C52.7805 73.0442 52.7046 73.1766 52.5839 73.268C52.4633 73.3576 52.2871 73.4024 52.0555 73.4024V73.5191C52.0555 73.5951 52.0701 73.6544 52.0993 73.6973C52.1285 73.7381 52.1791 73.7586 52.2511 73.7586C52.3192 73.7586 52.3679 73.7381 52.3971 73.6973C52.4263 73.6564 52.4409 73.5951 52.4409 73.5133H52.9022C52.8944 73.7099 52.836 73.8627 52.727 73.9717C52.62 74.0807 52.4652 74.1352 52.2628 74.1352C52.0448 74.1352 51.8774 74.0788 51.7606 73.9659C51.6457 73.851 51.5883 73.6797 51.5883 73.452V73.0753C51.7907 73.0753 51.9396 73.0714 52.035 73.0637C52.1324 73.0539 52.2044 73.0354 52.2511 73.0082C52.2998 72.979 52.3319 72.9332 52.3474 72.871H51.5328V72.5673H52.362V72.3921H51.5328V72.0563H53.0774V72.3921H52.8292Z" fill="#1ABDFE"/>
</g>
<defs>
<clipPath id="clip0_82_772">
<rect width="89.1745" height="93.25" fill="white"/>
</clipPath>
</defs>
</svg>
