<svg width="96" height="78" viewBox="0 0 96 78" fill="none" xmlns="http://www.w3.org/2000/svg">
<g clip-path="url(#clip0_82_757)">
<path d="M95.9965 36.7893C95.9965 37.0427 96.0177 37.2854 95.9309 37.5176C95.4914 38.6854 94.873 39.7255 93.6326 40.2146C92.9787 40.4716 92.2415 40.5903 91.5362 40.6222C90.6644 40.663 89.789 40.6576 88.9189 40.6505C88.1517 40.6435 87.5279 41.2637 87.5279 42.0292V71.8455C87.5279 72.6021 88.1393 73.217 88.8959 73.2241C89.4328 73.2294 89.9609 73.2294 90.489 73.2028C92.0377 73.1231 92.6952 74.0516 92.8582 74.8845C93.0531 75.8786 92.541 76.715 91.5398 77.158C91.3768 77.2307 91.1996 77.2661 91.0206 77.2714C90.7477 77.2785 90.4748 77.2856 90.2019 77.2856C62.3526 77.2856 34.5033 77.2856 6.65399 77.2874C6.41299 77.2874 6.17023 77.298 5.92923 77.3069C5.72367 77.3139 5.51812 77.2767 5.33028 77.1935C4.40528 76.7823 3.80102 75.7599 3.90911 74.9554C4.0491 73.9116 4.88373 73.217 6.04973 73.2117C6.4573 73.2099 6.86309 73.2099 7.26889 73.2099C8.03086 73.2099 8.64753 72.5932 8.64753 71.8313V42.0274C8.64753 41.2637 8.02555 40.6452 7.2618 40.6488C6.20212 40.6541 5.15662 40.6576 4.11467 40.6311C3.51395 40.6151 2.88487 40.5478 2.32668 40.3458C1.20853 39.94 0.636161 39.0291 0.147079 38.0545C0.0956899 37.2411 0.051389 36.5235 0 35.7101C0.0939179 35.4461 0.187836 35.1803 0.288842 34.9198C1.31485 32.2954 2.35503 29.6781 3.37396 27.0519C5.46318 21.6667 7.53824 16.2744 9.62747 10.8892C10.4816 8.69012 11.5678 6.55305 12.1615 4.28662C12.7321 2.10701 13.8166 0.687612 15.9022 0.0585394C16.0493 0.0142385 16.2035 -0.0017098 16.3559 0.00892241C16.5083 0.0195546 16.6713 0.0284148 16.8308 0.0284148C37.693 0.0284148 58.5551 0.0284148 79.4155 0.0284148C80.0393 0.0284148 80.663 0.0142385 81.2886 0.0036063C81.5207 6.22347e-05 81.7422 0.0709436 81.9548 0.163089C81.9708 0.170178 81.9885 0.175494 82.0062 0.179038C83.5036 0.453703 84.5775 1.27416 85.1587 2.68292C85.3518 3.15251 85.4103 3.67704 85.5716 4.16257C86.6312 7.36464 87.7104 10.5596 88.7683 13.7599M16.3789 6.6381C16.4303 6.68418 16.4835 6.73202 16.5349 6.7781C32.4814 6.78164 48.4297 6.78518 64.3763 6.7905C65.2623 6.7905 66.1483 6.77987 67.0343 6.80113C68.7302 6.84189 70.5235 8.09472 70.9239 9.46627C71.3173 10.8166 71.7054 12.1704 72.1484 13.5065C74.2022 19.7122 76.2737 25.9108 78.3364 32.1129C78.8414 33.6315 79.3376 35.1537 79.8249 36.6333H92.1937C88.6354 25.8966 85.0931 15.2059 81.5296 4.45141C81.3524 4.45141 81.0901 4.45141 80.8278 4.45141C60.3024 4.45141 39.7786 4.45319 19.2532 4.45496C17.793 4.45496 16.8367 5.15432 16.3842 6.55305C16.3754 6.57963 16.3789 6.61152 16.3771 6.64165L16.3789 6.6381ZM13.393 41.067V73.2383H38.3894C38.3894 72.875 38.3894 72.5578 38.3894 72.2388C38.3894 68.9907 38.3982 65.7426 38.3876 62.4944C38.3734 57.8889 38.3398 53.2852 38.3238 48.6814C38.3185 47.2709 39.1513 46.0234 40.2677 45.8284C40.9269 45.7132 41.6038 45.6565 42.2737 45.653C46.5248 45.6371 50.7777 45.6867 55.0288 45.6246C57.2031 45.5928 58.6296 46.7889 58.6136 49.2112C58.564 56.8877 58.6136 64.5659 58.626 72.2424C58.626 72.5596 58.626 72.8768 58.626 73.2152H83.6082V41.067H13.393ZM42.7822 73.0522H54.1977V50.0423H42.7822V73.0522ZM4.8536 36.6333H25.7122C25.9674 34.6061 26.2155 32.6374 26.4618 30.6811C25.5138 30.3621 8.98599 30.1955 7.20687 30.4631C6.42717 32.508 5.65102 34.5441 4.8536 36.6333ZM53.5704 30.4259C53.5704 30.7289 53.5509 30.9362 53.5739 31.14C53.7423 32.6356 53.9886 34.1277 54.0648 35.6286C54.1073 36.4437 54.3519 36.6847 55.1546 36.6812C61.4985 36.6546 67.8424 36.6652 74.1862 36.6652C74.5034 36.6652 74.8206 36.6652 75.1662 36.6652C74.4662 34.5299 73.7929 32.4761 73.1213 30.4259H53.5722H53.5704ZM49.1438 30.3887C48.1462 30.3887 47.2336 30.3887 46.321 30.3887C41.5064 30.3887 36.6935 30.4135 31.8789 30.3639C31.1081 30.3568 30.7997 30.6687 30.7147 31.3013C30.5605 32.4531 30.4648 33.6138 30.3443 34.7709C30.2805 35.3858 30.2132 36.0025 30.1494 36.6014H49.858C49.6152 34.4892 49.3813 32.462 49.1421 30.3869L49.1438 30.3887ZM52.5408 20.988C52.7269 22.7282 52.9006 24.339 53.0778 25.9923H71.6257C71.1454 24.5587 70.6174 23.196 70.2541 21.7908C70.0858 21.1404 69.8536 20.9597 69.2175 20.9632C64.7307 20.9898 60.2439 20.9845 55.7571 20.988C54.6974 20.988 53.6395 20.988 52.5426 20.988H52.5408ZM8.96118 26.0029H27.043C27.2521 24.3266 27.4559 22.6981 27.6579 21.066C27.6119 21.0412 27.5605 20.988 27.5108 20.988C22.1132 20.981 16.7156 20.9739 11.318 20.9863C11.1408 20.9863 10.8661 21.1493 10.8023 21.3035C10.1857 22.8168 9.60443 24.3443 8.96118 26.0029ZM52.0535 16.5987H68.5228C67.9079 14.77 67.3001 12.9696 66.6959 11.1763H51.5024C51.6867 12.9855 51.8639 14.7381 52.0535 16.5987ZM48.171 20.9739C46.5478 20.9739 44.9601 20.9739 43.3706 20.9739C39.8602 20.9739 36.3498 20.965 32.8394 20.9898C32.5417 20.9916 32.0065 21.183 31.9852 21.3407C31.7761 22.8806 31.6539 24.4311 31.505 25.9905H48.6743C48.5059 24.3195 48.3447 22.7087 48.1692 20.9721L48.171 20.9739ZM28.8948 11.1621H14.6725C14.0044 12.943 13.3328 14.7345 12.6399 16.5792H28.1807C28.4217 14.7523 28.6538 12.9855 28.893 11.1621H28.8948ZM47.1007 11.1603H33.2593C33.0431 12.9891 32.834 14.7593 32.6232 16.5526H47.7156C47.51 14.7416 47.3098 12.9873 47.1007 11.1603Z" fill="white"/>
<path d="M16.5348 6.59906C32.4813 6.6026 48.4296 6.60615 64.3762 6.61146C65.2622 6.61146 66.1482 6.60083 67.0342 6.6221C68.73 6.66285 70.5233 7.91568 70.9238 9.28724C71.3172 10.6375 71.7053 11.9914 72.1483 13.3275C74.2021 19.5331 76.2736 25.7317 78.3362 31.9338C78.6729 32.9457 79.9771 36.5039 80.8118 38.7686C81.1591 39.7149 80.4893 40.8897 79.4827 40.8897H9.59015C8.04848 40.8897 5.99646 40.7355 4.50086 40.6966C3.90014 40.6806 3.27107 40.6133 2.71288 40.4113C1.38385 39.9275 0.825661 38.7331 0.262153 37.5671L0.201904 36.293C0.359615 35.8571 0.506694 35.4159 0.675038 34.9853C1.70105 32.3609 2.74123 29.7436 3.76015 27.1175C5.84938 21.7322 7.92443 16.3399 10.0137 10.9547L11.2169 7.65342C11.4561 6.99599 12.0852 6.56007 12.7851 6.56716L16.4816 6.6026M4.8535 36.4561H25.7121C25.9673 34.4289 26.2154 32.4601 26.4617 30.5038C25.5137 30.1848 8.98588 30.0183 7.20676 30.2859C6.42706 32.3308 5.65091 34.3668 4.8535 36.4561ZM53.5703 30.2486C53.5703 30.5517 53.5508 30.759 53.5738 30.9628C53.7422 32.4584 53.9885 33.9504 54.0647 35.4513C54.1072 36.2665 54.3517 36.5075 55.1545 36.5039C61.4984 36.4773 67.8423 36.488 74.1861 36.488C74.5033 36.488 74.8205 36.488 75.1661 36.488C74.4661 34.3527 73.7927 32.2989 73.1211 30.2486H53.5721H53.5703ZM49.1437 30.2114C48.1461 30.2114 47.2335 30.2114 46.3209 30.2114C41.5063 30.2114 36.6934 30.2362 31.8788 30.1866C31.108 30.1795 30.7996 30.4914 30.7146 31.124C30.5604 32.2758 30.4647 33.4365 30.3442 34.5937C30.2804 35.2086 30.2131 35.8252 30.1493 36.4242H49.8579C49.6151 34.3119 49.3812 32.2847 49.142 30.2097L49.1437 30.2114ZM52.5407 20.8108C52.7268 22.5509 52.9005 24.1617 53.0777 25.815H71.6255C71.1453 24.3814 70.6173 23.0187 70.254 21.6135C70.0856 20.9632 69.8535 20.7824 69.2173 20.786C64.7306 20.8126 60.2438 20.8072 55.757 20.8108C54.6973 20.8108 53.6394 20.8108 52.5425 20.8108H52.5407ZM8.96107 25.8256H27.0429C27.252 24.1493 27.4558 22.5208 27.6578 20.8887C27.6117 20.8639 27.5604 20.8108 27.5107 20.8108C22.1131 20.8037 16.7155 20.7966 11.3179 20.809C11.1407 20.809 10.866 20.972 10.8022 21.1262C10.1855 22.6395 9.60432 24.167 8.96107 25.8256ZM52.0534 16.4214H68.5227C67.9078 14.5927 67.3 12.7923 66.6957 10.999H51.5023C51.6866 12.8083 51.8638 14.5608 52.0534 16.4214ZM48.1709 20.7966C46.5477 20.7966 44.96 20.7966 43.3704 20.7966C39.8601 20.7966 36.3496 20.7877 32.8392 20.8126C32.5415 20.8143 32.0064 21.0057 31.9851 21.1634C31.776 22.7033 31.6538 24.2538 31.5049 25.8132H48.6741C48.5058 24.1422 48.3445 22.5314 48.1691 20.7948L48.1709 20.7966ZM28.8947 10.9848H14.6723C14.0043 12.7657 13.3327 14.5573 12.6398 16.402H28.1806C28.4216 14.575 28.6537 12.8083 28.8929 10.9848H28.8947ZM47.1006 10.9831H33.2592C33.043 12.8118 32.8339 14.5821 32.6231 16.3754H47.7155C47.5099 14.5644 47.3097 12.81 47.1006 10.9831Z" fill="#1ABDFE"/>
<path d="M70.7538 62.9799C68.3917 62.9799 66.0296 62.9923 63.6675 62.9764C61.8334 62.964 60.8145 61.9362 60.8145 60.1376C60.8145 56.2391 60.896 52.3406 60.7773 48.4457C60.7224 46.6577 62.0478 45.6724 63.5222 45.6583C68.1879 45.614 72.8519 45.6264 77.5177 45.6423C78.0901 45.6441 78.6837 45.7256 79.2259 45.8975C80.3707 46.259 80.998 47.1698 81.0051 48.4793C81.0263 52.4062 81.0281 56.333 81.0086 60.2598C81.0015 61.8423 79.7381 62.9728 78.0174 62.9835C75.5968 62.9959 73.1744 62.987 70.7538 62.987V62.9817V62.9799ZM65.1135 58.3868C65.1666 58.463 65.2198 58.5392 65.2729 58.6154H76.6281V50.0122H65.2712C65.218 50.0866 65.1648 50.1628 65.1135 50.2372C65.1135 52.9537 65.1135 55.6703 65.1135 58.385V58.3868Z" fill="white"/>
<path d="M25.8557 62.9604C23.4369 62.9604 21.0181 62.9835 18.5993 62.9533C16.9814 62.9338 15.9377 61.8423 15.9359 60.235C15.9306 56.3401 16.0121 52.4452 15.9058 48.5538C15.8526 46.6045 17.2561 45.6547 18.7889 45.6547C21.1191 45.6547 23.4511 45.6583 25.7813 45.6547C27.9343 45.6512 30.0909 45.5839 32.2404 45.6583C33.1353 45.6902 34.0532 45.9276 34.902 46.2342C35.7543 46.5407 36.068 47.347 36.0715 48.21C36.0892 52.252 36.1016 56.294 36.0715 60.3343C36.0591 61.9273 34.9055 62.9587 33.2008 62.9728C30.7519 62.9923 28.3029 62.9781 25.854 62.9781V62.964L25.8557 62.9604ZM20.1604 58.6331H31.7407V49.9962H20.1604V58.6331Z" fill="white"/>
<path d="M65.2712 50.0121C65.2181 50.0866 65.1649 50.1628 65.1135 50.2372C65.1667 50.1628 65.2198 50.0866 65.2712 50.0121Z" fill="#DEE0F2"/>
</g>
<defs>
<clipPath id="clip0_82_757">
<rect width="96" height="77.3086" fill="white"/>
</clipPath>
</defs>
</svg>
