<svg width="91" height="96" viewBox="0 0 91 96" fill="none" xmlns="http://www.w3.org/2000/svg">
<g clip-path="url(#clip0_82_765)">
<path d="M48.3539 90.2113H13.7322C7.55065 90.2113 2.49316 85.1538 2.49316 78.9723V23.7322C2.49316 17.5506 7.55065 12.4931 13.7322 12.4931H56.9018C63.0833 12.4931 68.1408 17.5506 68.1408 22.3075V40.4927" stroke="white" stroke-width="4.98625" stroke-miterlimit="10" stroke-linecap="round"/>
<path d="M15.9219 30.8379H56.5627" stroke="#1ABDFE" stroke-width="3.56161" stroke-miterlimit="10" stroke-linecap="round"/>
<path d="M15.9219 41.6993H56.5627" stroke="#1ABDFE" stroke-width="3.56161" stroke-miterlimit="10" stroke-linecap="round"/>
<path d="M79.3512 83.3901C80.5949 83.034 81.0978 82.1208 81.3428 81.0124C81.367 80.8999 81.4041 80.7873 81.4069 80.6748C81.414 80.4112 81.5294 80.3029 81.8058 80.3884V80.387C82.0238 80.4981 82.2688 80.5323 82.5039 80.5508C82.7418 80.5708 82.843 80.6833 82.9441 80.86C84.6708 83.8603 86.4017 86.8563 88.1312 89.8538C88.2623 90.0817 88.362 90.3082 88.1939 90.5604C88.0187 90.8225 87.7594 90.8453 87.4688 90.8125C85.8618 90.6288 84.2534 90.4535 82.6478 90.2669C82.0993 90.2028 81.9469 90.2655 81.7061 90.7356C80.9781 92.1546 80.2487 93.5721 79.5292 94.9953C79.4096 95.2318 79.2272 95.3586 78.9665 95.3614C78.7186 95.3643 78.5334 95.2403 78.4109 95.0266C76.442 91.6061 74.4703 88.1869 72.5015 84.7706C72.5684 84.6809 72.6268 84.7535 72.6781 84.7692C73.8093 85.1011 74.7866 84.8048 75.5217 83.9087C75.8009 83.5682 76.0246 83.1964 76.2098 82.8046C76.2981 82.618 76.3708 82.5482 76.5873 82.6835C77.1985 83.0653 77.8567 83.3488 78.5904 83.4514C78.9437 83.5298 79.1503 83.5141 79.354 83.393L79.3512 83.3901Z" fill="#1ABCFC"/>
<path d="M62.938 83.4486C63.6817 83.346 64.3398 83.0411 64.9667 82.6664C65.1205 82.5738 65.1961 82.5781 65.2815 82.7491C65.4596 83.1066 65.6591 83.4557 65.9012 83.7805C66.6335 84.7607 67.6208 85.0969 68.8389 84.7692C68.9144 84.7407 68.9856 84.7222 68.9799 84.8404C67.0338 88.2154 65.0878 91.5904 63.146 94.9682C63.0121 95.2004 62.8397 95.36 62.559 95.3586C62.2627 95.3586 62.0875 95.1891 61.9607 94.9383C61.2469 93.5251 60.5232 92.1147 59.8009 90.7043C59.5815 90.2755 59.402 90.2014 58.9062 90.2584C57.2879 90.4464 55.6695 90.6245 54.0511 90.8097C53.759 90.8425 53.4997 90.8168 53.3273 90.5547C53.1621 90.3025 53.2618 90.076 53.3943 89.8481C55.1309 86.8406 56.8662 83.8318 58.5971 80.8215C58.6897 80.6605 58.7923 80.5736 58.996 80.5537C59.2453 80.5309 59.4975 80.4739 59.7354 80.3941C60.0075 80.3029 60.0802 80.4069 60.1129 80.6392C60.1485 80.8871 60.2055 81.1335 60.2739 81.3757C60.5859 82.4883 61.2569 83.2534 62.5149 83.4471C62.4679 83.507 62.4009 83.4813 62.3154 83.487C62.4479 83.4899 62.5576 83.497 62.6645 83.4856C62.7556 83.4756 62.8596 83.5397 62.938 83.4471V83.4486Z" fill="#1ABCFC"/>
<path d="M90.4351 64.0249C90.1587 63.7201 89.8054 63.5064 89.4635 63.2798C89.1387 63.0647 88.8024 62.8624 88.5246 62.5917C88.1927 62.2683 88.15 62.029 88.3537 61.6287C88.5175 61.3081 88.7341 61.0204 89.0119 60.7782C89.2412 60.4092 89.5888 60.1171 89.7755 59.7211C89.9792 59.2894 89.8966 59.0145 89.4706 58.7651C89.1301 58.5657 88.7483 58.4588 88.3722 58.3392C87.9762 58.2124 87.5701 58.1098 87.2068 57.9018C86.8122 57.6753 86.6968 57.436 86.7909 57.0057C86.8621 56.6766 87.0003 56.3689 87.1356 56.0583C87.3066 55.6637 87.5117 55.2776 87.5773 54.8474C87.6528 54.3544 87.4946 54.1194 86.9903 53.9954C86.5273 53.88 86.0515 53.8843 85.5785 53.8786C85.2252 53.8729 84.8733 53.8558 84.5314 53.7618C84.1196 53.6478 83.9544 53.4526 83.9216 53.0423C83.896 52.7076 83.9216 52.3742 83.9601 52.0408C84.0057 51.6562 84.0684 51.2729 84.0498 50.884C84.0228 50.28 83.7279 50.0392 83.0968 50.0919C82.7662 50.1204 82.4457 50.1959 82.1251 50.2714C81.6978 50.3726 81.2775 50.5022 80.8316 50.5079C80.3515 50.5136 80.1563 50.3925 79.9754 49.968C79.8671 49.7144 79.8115 49.448 79.7602 49.1801C79.6733 48.7285 79.6235 48.2684 79.4497 47.8353C79.2246 47.274 78.8855 47.1343 78.3057 47.3765C78.0036 47.5033 77.7159 47.66 77.4295 47.8168C77.0947 47.9991 76.7713 48.1986 76.4137 48.341C75.898 48.5476 75.5533 48.4635 75.2413 48.0248C75.0689 47.7826 74.9321 47.519 74.7868 47.2611C74.5589 46.8565 74.3751 46.4263 74.0545 46.073C73.7753 45.7653 73.4476 45.7225 73.0858 45.9377C72.7738 46.1243 72.5359 46.3864 72.2823 46.6343C72.0372 46.8751 71.8022 47.1258 71.5457 47.3552C70.9659 47.8766 70.5656 47.8752 69.9729 47.3552C69.7792 47.1842 69.6011 46.999 69.4173 46.8181C69.1124 46.5161 68.8332 46.1884 68.46 45.9562C68.0639 45.7083 67.7491 45.7567 67.4442 46.1001C67.2291 46.3422 67.0723 46.6172 66.927 46.8993C66.729 47.2839 66.5424 47.6757 66.2817 48.0276C65.9597 48.4621 65.6149 48.5533 65.1063 48.3382C64.8556 48.2313 64.6148 48.1045 64.3755 47.9749C63.9937 47.7669 63.6233 47.5375 63.2158 47.3751C62.6303 47.1429 62.2912 47.2768 62.0733 47.8381C61.9935 48.0433 61.9451 48.2598 61.8952 48.4735C61.7826 48.9522 61.7485 49.4465 61.5661 49.911C61.3738 50.4011 61.1743 50.5293 60.6216 50.5051C60.4791 50.4994 60.3381 50.4723 60.197 50.4523C59.6528 50.374 59.1414 50.1574 58.5872 50.1218C58.3906 50.1774 58.194 50.1247 57.9974 50.1218C57.7181 50.1589 57.5842 50.3341 57.5215 50.5749C57.4389 50.8954 57.4617 51.2174 57.4987 51.5408C57.5486 51.9881 57.6227 52.4326 57.6099 52.8842C57.5913 53.4982 57.352 53.7433 56.7052 53.8259C56.2664 53.8815 55.8262 53.8729 55.386 53.8929C55.0455 53.9085 54.7022 53.9199 54.3788 54.0382C54.0169 54.1721 53.8759 54.4143 53.9286 54.779C53.9784 55.1252 54.1166 55.4429 54.2534 55.762C54.4286 56.168 54.6281 56.5655 54.7264 56.9972C54.8261 57.4274 54.715 57.6639 54.3204 57.8961C54.0753 58.04 53.8046 58.1298 53.534 58.2181C53.0453 58.3791 52.5396 58.4973 52.0879 58.7438C51.6164 59.0016 51.5224 59.3037 51.7631 59.7681C51.9113 60.0516 52.1293 60.2895 52.3316 60.536C52.6079 60.8736 52.9256 61.1828 53.1351 61.5674C53.3787 62.0162 53.3345 62.2812 52.9499 62.6331C52.6706 62.8881 52.3458 63.0861 52.0295 63.2955C51.6791 63.5292 51.3087 63.7428 51.0408 64.0719C50.7858 64.3839 50.7858 64.6404 51.0451 64.9524C51.2944 65.253 51.6278 65.461 51.954 65.6747C52.2888 65.8941 52.6322 66.1049 52.9313 66.3699C53.3488 66.7417 53.3886 67.0081 53.1151 67.484C52.9285 67.8074 52.6735 68.0823 52.4313 68.3672C52.1834 68.6607 51.9213 68.9457 51.746 69.2861C51.5309 69.705 51.6235 70.0013 52.0367 70.2478C52.3572 70.4387 52.7176 70.5398 53.0709 70.6538C53.4869 70.7891 53.9172 70.8931 54.299 71.1054C54.7093 71.3334 54.8176 71.5898 54.7193 72.0272C54.6338 72.4075 54.4671 72.7608 54.3118 73.1184C54.1565 73.476 53.9898 73.8293 53.9286 74.2168C53.8659 74.6115 54.0155 74.8551 54.4144 74.9904C54.6979 75.0859 54.9956 75.0958 55.292 75.1158C55.8177 75.1528 56.3505 75.1186 56.8705 75.2255C57.3905 75.3323 57.5799 75.5503 57.5999 76.0475C57.6127 76.3609 57.5842 76.6729 57.5557 76.9863C57.5144 77.4508 57.3805 77.9152 57.5187 78.3839C57.5928 78.3212 57.5443 78.24 57.5628 78.1346C57.5543 78.2557 57.5856 78.3469 57.5301 78.4295C57.6583 78.8697 57.9532 79.0236 58.5715 78.9125C59.1656 78.807 59.7497 78.6489 60.3438 78.5392C61.1145 78.3953 61.4279 78.5777 61.6245 79.3028C61.757 79.7872 61.8225 80.2872 61.9422 80.7759C62.1986 81.813 62.5933 81.9811 63.5834 81.4768C64.0393 81.2446 64.4766 80.9782 64.9368 80.7545C65.6449 80.4098 66.0067 80.5166 66.4056 81.1805C66.6663 81.6164 66.8857 82.0752 67.1479 82.5097C67.6807 83.3873 68.1394 83.4371 68.8959 82.7134C69.2535 82.3715 69.5868 82.0082 69.9516 81.6748C70.5513 81.1264 70.9745 81.1321 71.5714 81.6877C71.9489 82.0381 72.2951 82.4214 72.6755 82.769C73.3963 83.4272 73.8337 83.3702 74.3352 82.5482C74.623 82.078 74.8566 81.5794 75.1472 81.1121C75.5105 80.5237 75.888 80.4226 76.5306 80.7346C77.0107 80.9668 77.4666 81.246 77.9424 81.4854C78.924 81.9783 79.2986 81.8116 79.5636 80.7916C79.7061 80.2445 79.7346 79.6732 79.9355 79.1376C80.1378 78.6019 80.4284 78.4267 81.021 78.515C81.3459 78.5634 81.6664 78.6432 81.9884 78.7144C82.4058 78.8056 82.8161 78.9381 83.252 78.9353C83.7222 78.9338 83.9416 78.7643 84.0213 78.3255C84.0669 78.0762 84.0498 77.8255 84.0228 77.5747C83.9672 77.0448 83.8718 76.5162 83.9116 75.9805C83.943 75.5788 84.1139 75.3722 84.5157 75.2525C84.8362 75.1571 85.1682 75.1728 85.4973 75.1486C85.9574 75.1144 86.4233 75.14 86.8792 75.0488C87.4832 74.9292 87.6727 74.6585 87.5545 74.0815C87.4861 73.751 87.3408 73.4447 87.2054 73.1355C87.0487 72.7779 86.8792 72.4261 86.7909 72.0457C86.6826 71.5869 86.7994 71.3362 87.2239 71.0997C87.5488 70.9174 87.9106 70.8205 88.2654 70.7065C88.6814 70.5726 89.1102 70.4643 89.4863 70.2364C89.888 69.9942 89.9792 69.7078 89.7669 69.3004C89.6601 69.0952 89.519 68.9072 89.3922 68.712C89.0161 68.3046 88.6301 67.9028 88.3608 67.4184C88.1343 67.011 88.1742 66.7602 88.5118 66.4283C88.8124 66.1334 89.1814 65.9211 89.5304 65.6875C89.8524 65.4709 90.1901 65.2701 90.4451 64.9752C90.7357 64.6361 90.7271 64.3554 90.4251 64.0235L90.4351 64.0249ZM80.1919 61.8623C78.5151 63.1217 76.844 64.3839 75.1544 65.6277C74.8709 65.8357 74.7953 66.0038 74.9008 66.3457C75.4977 68.2704 76.059 70.2036 76.6317 72.134C76.6545 72.2124 76.6702 72.2936 76.6944 72.3976C76.5633 72.4004 76.4892 72.3192 76.4066 72.2679C74.593 71.1197 72.7766 69.9728 70.9702 68.8132C70.7778 68.6892 70.6639 68.7462 70.5072 68.8445C68.705 69.9928 66.9014 71.1353 65.0949 72.2779C65.0194 72.3263 64.9553 72.4118 64.8143 72.389C65.1206 71.3604 65.4255 70.3375 65.7275 69.3146C66.0409 68.259 66.3501 67.2019 66.6649 66.1462C66.7005 66.0237 66.7518 65.9226 66.6079 65.8157C65.2531 64.8142 63.9025 63.8055 62.5505 62.7997C62.1972 62.6259 61.8653 62.4265 61.6274 62.1131L61.6231 62.1102C61.445 62.0561 61.2968 61.9592 61.1786 61.8239C61.1401 61.7783 61.0988 61.7184 61.1886 61.6743C62.5178 61.6301 63.8455 61.5874 65.1747 61.5446C65.273 61.5418 65.3727 61.546 65.471 61.5475C65.9796 61.6287 66.4882 61.5147 66.9968 61.5503C67.3231 61.5731 67.6479 61.5332 67.9713 61.4848C68.0254 61.4762 68.081 61.4748 68.1337 61.4876C68.2747 61.5204 68.2961 61.5147 68.3275 61.4378C68.3403 61.4079 68.3417 61.3794 68.3175 61.3537C68.8061 60.0801 69.2948 58.805 69.7863 57.5328C70.0655 56.8077 70.3505 56.0854 70.634 55.3617C70.6639 55.2876 70.7009 55.2149 70.7593 55.0881C70.8348 55.2562 70.8932 55.3731 70.9403 55.4956C71.6341 57.2764 72.3364 59.0543 73.0103 60.8423C73.1499 61.2113 73.2753 61.5133 73.7625 61.4677C73.6556 61.566 73.516 61.4834 73.422 61.5161C74.1756 61.5703 74.9535 61.5332 75.7299 61.5717C75.8353 61.5774 75.9479 61.5988 76.0519 61.5475C77.4694 61.5931 78.8869 61.6401 80.3016 61.6857C80.3429 61.8082 80.2403 61.8239 80.1905 61.8623H80.1919Z" fill="#1ABCFC"/>
</g>
<defs>
<clipPath id="clip0_82_765">
<rect width="90.6672" height="95.36" fill="white"/>
</clipPath>
</defs>
</svg>
