<?xml version="1.0" encoding="utf-8"?>
<!-- Generator: Adobe Illustrator 25.0.0, SVG Export Plug-In . SVG Version: 6.00 Build 0)  -->
<svg version="1.1" id="Layer_1" xmlns="http://www.w3.org/2000/svg" xmlns:xlink="http://www.w3.org/1999/xlink" x="0px" y="0px"
	 viewBox="0 0 600 300" style="enable-background:new 0 0 600 300;" xml:space="preserve">
<style type="text/css">
	.st0{fill:#42B9EA;}
	.st1{fill:#101F9D;}
	.st2{font-family:'MyriadPro-Regular';}
	.st3{font-size:25.696px;}
</style>
<circle class="st0" cx="290.6" cy="155.9" r="103.2"/>
<g>
	<path class="st1" d="M420.2,56.9c2.5,0,5,0,7.5,0c3.4,1.2,4,3.3,1.6,6.2c-3.8,4.6-7.6,9.1-11.3,13.8c-1,1.2-1.9,2.3-3.1,2.4
		c-0.9,1.7-1.6,3.1-2.2,4.3c3.1-0.3,6.3-0.8,9.6-0.9c11-0.5,21.3,2,31.1,6.8c1.4,0.7,2.4,1.6,2.4,3.3c0,1.6-1,2.5-2.3,3.1
		c-8.4,4.1-16.8,8.3-25.2,12.4c-0.4,0.2-0.8,0.4-1.3,0.7c0.2,0.2,0.3,0.2,0.3,0.3c10.2,2.3,19.3,6.8,27.3,13.6
		c4.2,3.6,8.1,7.5,11.1,12.2c0,0.5,0,1,0,1.5c-0.7,1.9-2.2,2.5-4.2,2.5c-5.3,0-10.6,0-15.9,0c-0.4,0-0.9,0-1.6,0
		c0.3,0.4,0.5,0.6,0.7,0.7c7.2,7.1,12.3,15.5,15.7,25c0.5,1.5,0.6,2.8-0.5,4c-1.1,1.2-2.5,1.1-3.9,0.6c-9.6-3.2-19.2-6.4-28.8-9.6
		c-1.4-0.5-2.9-0.9-3.3-2c-1.5-0.1-2.6,0-3.7-0.4c-4.1-1.3-8.1-2.6-12.1-4c-1.2-0.4-2.1-1.3-3.1-1.8c-1.2-0.1-2.5-0.1-3.7-0.4
		c-6.4-2-12.7-4.2-19.1-6.3c-0.3-0.1-0.7-0.2-1.1-0.3c0,0.5,0,0.8,0,1.2c0.5,12.8,1,25.5,1.5,38.3c0.7,17.5,1.4,35,2.2,52.5
		c0.1,2.1-0.5,3.6-2.5,4.4c-11.4,0-22.8,0-34.1,0c-2-0.8-2.7-2.3-2.5-4.4c0.2-2.5,0.2-5,0.3-7.5c0.6-15.5,1.3-31.1,1.9-46.6
		c0.5-11.8,1-23.6,1.4-35.4c0-0.8,0-1.6,0-2.5c-0.4,0.1-0.7,0.2-1.1,0.3c-6.3,2.1-12.6,4.1-18.9,6.3c13.3-6-33.7-69.8-44-65
		c8.1-2.8,16.5-4,25.1-3.2c2.5,0.2,5,0.6,7.6,0.9c-0.9-1.4-2.4-2.4-2-4c-1.1-0.8-2.1-1.2-2.8-2c-4.3-5.1-8.5-10.2-12.6-15.3
		c-1.3-1.6-1.1-3.6,0.4-4.7c0.5-0.4,1.2-0.5,1.8-0.8c2.5,0,5,0,7.5,0c0.4,0.1,0.7,0.2,1.1,0.2c4.7,0.3,9.4,1.2,13.9,2.7
		c17.4,5.8,30.2,16.9,38.5,33.5c0.5,1,1,2.1,1.6,3.3c0.2-0.4,0.4-0.7,0.5-0.9c3.9-9,9.5-16.8,16.9-23.2c8.9-7.7,19-12.6,30.5-14.7
		C415.5,57.5,417.9,57.2,420.2,56.9z M306.9,148.8c0.5,0.4,1.1,0.8,1.5,1.3c0.7,0.7,1.3,0.8,2.2,0.5c2.1-0.8,4.1-1.6,6.3-2.1
		c2.2-0.5,3.5-1.5,3.5-3.9c0-0.1,0.1-0.2,0.1-0.4c0.7-2.2,3.1-3,4.9-1.7c0.6,0.4,1.1,0.9,1.6,1.4c0.6,0.6,1.2,0.7,2,0.4
		c7.3-2.5,14.6-4.9,21.9-7.3c2.2-0.7,4.4-1.5,6.7-2.2C329.7,119,305,147.4,306.9,148.8z M372.9,134.8c0.4,0.1,0.7,0.3,1,0.3
		c8.4,2.8,16.8,5.6,25.2,8.5c2.3,0.8,4,1.2,6-0.9c1.6-1.7,4.2-0.7,5,1.5c0.2,0.7,0.4,1.5,0.5,2.2c0.1,0.8,0.5,1.1,1.2,1.4
		c2,0.6,4,1.2,5.9,2c2.3,1,4,1.1,6-0.9c1.6-1.7,4.2-0.8,5,1.5c0.2,0.7,0.4,1.5,0.5,2.2c0.1,0.7,0.5,1.1,1.2,1.4
		c6.8,2.2,13.6,4.5,20.5,6.8c0.4,0.1,0.8,0.2,1.2,0.3C438.1,130.1,400.3,119.2,372.9,134.8z M372.6,122.9c2.3-1.6,4.3-3.3,6.5-4.7
		c7.4-4.9,15.4-8.2,24.1-9.5c3.6-0.5,7.2-0.7,10.9-1c1.5-0.1,1.7-0.3,1.8-1.8c0.1-0.7,0.1-1.4,0.2-2c0.4-2.2,2.5-3.3,4.6-2.3
		c0.7,0.4,1.4,0.8,2,1.3c0.6,0.5,1.1,0.4,1.8,0.1c3.4-1.7,6.8-3.3,10.1-5c3.4-1.7,6.9-3.4,10.4-5.1
		C419.7,82.4,385.9,93.3,372.6,122.9z M357.7,122.6c-13.7-30.8-43.7-21-43.3-18.4c0.1,0.5,0.1,0.9,0.2,1.4c0.1,2,0.2,2.2,2.2,2.2
		c10.7,0.1,20.8,2.6,30.1,7.8C350.7,117.7,354.2,120.3,357.7,122.6z M420.6,63.7c0-0.1-0.1-0.2-0.1-0.4c-2.4,0.3-4.8,0.5-7.1,1
		c-19.4,4.1-33.2,15.3-41.7,33.4c-2.7,5.8-3.8,11.9-3.3,18.2c0,0.1,0.1,0.3,0.2,0.5c0.2-0.2,0.3-0.4,0.3-0.5
		c6.4-11.7,15.5-20.8,27.5-26.5c3.8-1.8,6.6-4.3,9.2-7.4c1.5-1.8,2.5-3.4,1.1-5.6c0,0,0-0.1,0-0.1c-0.6-2.2,0.9-4.1,3.2-4.1
		c0.9,0,1.8,0.3,2.7,0.3c0.4,0,0.9-0.2,1.1-0.4C416.1,69.2,418.4,66.5,420.6,63.7z M362,116.1c0-2.8,0-5.7,0-8.7
		c0-0.2-0.1-0.4-0.1-0.6c-6.1-23.2-24.9-39.9-48.3-43c-1.2-0.2-2.4-0.2-3.9-0.4c2.2,2.6,4.2,4.9,6,7.3c1.1,1.4,2.2,2,3.9,1.4
		c0.3-0.1,0.7-0.1,1.1-0.1c2.3,0,3.7,1.9,3.1,4.1c-0.2,0.7-0.6,1.4-0.7,2.2c-0.1,0.5,0,1.3,0.3,1.7c1.6,2.1,3.3,4.1,5,6
		c0.6,0.6,1.3,1.2,2.1,1.5c9.3,3.9,17.2,9.7,23.6,17.5C357,108.6,359.4,112.5,362,116.1z M347.8,123.6c-12.2-8-14.2-11.2-28.5-9.1
		C306.4,116.5,329,118.7,347.8,123.6z M455.3,132.5c0-0.1,0.1-0.2,0.1-0.4c-10.1-10.4-22.2-16.5-36.6-17.7
		c-13-1.1-25.1,1.9-36.1,9.2c18.8-4.8,36.4-2.1,52.8,8.5c0.5-0.8,0.9-1.6,1.4-2.3c1.3-2,3.9-2,5.3-0.1c0.5,0.7,0.9,1.5,1.3,2.1
		c0.2,0.3,0.6,0.7,0.9,0.7C448.1,132.5,451.7,132.5,455.3,132.5z M352.7,219.7c-0.2,4.9-0.4,9.8-0.6,14.7c8.9,0,17.5,0,26.2,0
		c-0.2-4.9-0.4-9.8-0.6-14.7C369.4,219.7,361.1,219.7,352.7,219.7z M377.5,213.1c-0.2-5.1-0.4-10.1-0.6-15.1c-7.8,0-15.5,0-23.3,0
		c-0.2,5.1-0.4,10.1-0.6,15.1C361.2,213.1,369.3,213.1,377.5,213.1z M354.5,176.3c-0.2,5.1-0.4,10.1-0.6,15.2c7.7,0,15.1,0,22.8,0
		c-0.2-5.1-0.4-10.1-0.6-15.2C368.9,176.3,361.8,176.3,354.5,176.3z M355.4,154.5c-0.2,5.1-0.4,10.1-0.6,15.1c7.1,0,14,0,21,0
		c-0.2-5.1-0.4-10.1-0.6-15.1C368.5,154.5,362,154.5,355.4,154.5z M374.7,148c0-1.7,0-3.3,0-4.9c0-0.7-0.3-1-1-1.2
		c-2.6-0.8-5.2-1.7-7.7-2.5c-0.4-0.1-0.9-0.2-1.3-0.1c-2.7,0.9-5.4,1.8-8.1,2.7c-0.3,0.1-0.7,0.4-0.7,0.7c-0.1,1.8,0,3.5,0,5.3
		C362.1,148,368.4,148,374.7,148z"/>
	<path class="st1" d="M168.1,57.9c11.5,2,21.7,7,30.5,14.7c7.4,6.4,13.1,14.1,16.9,23.2c0.1,0.3,0.2,0.5,0.5,0.9
		c0.6-1.2,1-2.3,1.6-3.3c8.2-16.6,21.1-27.7,38.5-33.5c4.5-1.5,9.1-2.4,13.9-2.7c0.4,0,0.7-0.1,1.1-0.2c2.5,0,5,0,7.5,0
		c0.6,0.3,1.3,0.4,1.8,0.8c1.5,1.1,1.7,3.1,0.4,4.7c-4.2,5.1-8.4,10.2-12.6,15.3c-0.7,0.8-1.7,1.2-2.8,2c0.4,1.5-1.1,2.6-2,4
		c2.6-0.3,5.1-0.6,7.6-0.9c8.6-0.8,16.9,0.4,25.1,3.2c-10.3-4.8-57.3,59-44,65c-6.3-2.1-12.6-4.2-18.9-6.3c-0.3-0.1-0.6-0.2-1.1-0.3
		c0,0.9,0,1.7,0,2.5c0.5,11.8,1,23.6,1.4,35.4c0.6,15.5,1.3,31.1,1.9,46.6c0.1,2.5,0.1,5,0.3,7.5c0.2,2.1-0.5,3.6-2.5,4.4
		c-11.4,0-22.8,0-34.1,0c-2-0.8-2.6-2.3-2.5-4.4c0.8-17.5,1.5-35,2.2-52.5c0.5-12.8,1-25.5,1.5-38.3c0-0.3,0-0.7,0-1.2
		c-0.4,0.1-0.7,0.2-1.1,0.3c-6.4,2.1-12.7,4.2-19.1,6.3c-1.2,0.4-2.5,0.3-3.7,0.4c-1,0.6-2,1.4-3.1,1.8c-4,1.4-8.1,2.8-12.1,4
		c-1,0.3-2.2,0.2-3.7,0.4c-0.4,1.1-1.9,1.6-3.3,2c-9.6,3.2-19.2,6.3-28.8,9.6c-1.5,0.5-2.8,0.6-3.9-0.6c-1.1-1.2-1-2.6-0.5-4
		c3.4-9.5,8.5-18,15.7-25c0.2-0.2,0.3-0.3,0.7-0.7c-0.7,0-1.1,0-1.6,0c-5.3,0-10.6,0-15.9,0c-1.9,0-3.4-0.6-4.2-2.5c0-0.5,0-1,0-1.5
		c3-4.7,6.9-8.6,11.1-12.2c8-6.8,17.1-11.3,27.3-13.6c0.1,0,0.1-0.1,0.3-0.3c-0.5-0.3-0.9-0.5-1.3-0.7c-8.4-4.1-16.8-8.3-25.2-12.4
		c-1.4-0.7-2.3-1.5-2.3-3.1c0-1.6,1-2.6,2.4-3.3c9.8-4.8,20.2-7.3,31.1-6.8c3.2,0.1,6.5,0.6,9.6,0.9c-0.6-1.2-1.3-2.6-2.2-4.3
		c-1.1-0.1-2.1-1.2-3.1-2.4c-3.8-4.6-7.6-9.2-11.3-13.8c-2.4-2.9-1.8-5,1.6-6.2c2.5,0,5,0,7.5,0C163.4,57.2,165.8,57.5,168.1,57.9z
		 M223.6,134.8c2.3,0.8,4.5,1.5,6.7,2.2c7.3,2.4,14.6,4.9,21.9,7.3c0.8,0.3,1.4,0.2,2-0.4c0.5-0.5,1-1,1.6-1.4
		c1.8-1.3,4.3-0.5,4.9,1.7c0,0.1,0.1,0.2,0.1,0.4c0,2.4,1.4,3.4,3.5,3.9c2.1,0.5,4.2,1.3,6.3,2.1c0.9,0.3,1.6,0.2,2.2-0.5
		c0.5-0.5,1-0.9,1.5-1.3C276.3,147.4,251.6,119,223.6,134.8z M129.3,161.2c0.5-0.1,0.9-0.2,1.2-0.3c6.8-2.3,13.6-4.6,20.5-6.8
		c0.8-0.2,1.1-0.6,1.2-1.4c0.1-0.7,0.3-1.5,0.5-2.2c0.8-2.3,3.3-3.3,5-1.5c1.9,2,3.7,1.9,6,0.9c1.9-0.8,3.9-1.4,5.9-2
		c0.7-0.2,1.1-0.6,1.2-1.4c0.1-0.7,0.3-1.5,0.5-2.2c0.7-2.3,3.4-3.3,5-1.5c1.9,2.1,3.7,1.7,6,0.9c8.4-2.9,16.8-5.7,25.2-8.5
		c0.3-0.1,0.5-0.2,1-0.3C181,119.2,143.2,130.1,129.3,161.2z M136.2,92.8c3.5,1.7,6.9,3.4,10.4,5.1c3.4,1.7,6.8,3.3,10.1,5
		c0.7,0.3,1.2,0.4,1.8-0.1c0.6-0.5,1.3-0.9,2-1.3c2-1,4.2,0.1,4.6,2.3c0.1,0.7,0.2,1.3,0.2,2c0.1,1.5,0.4,1.7,1.8,1.8
		c3.6,0.3,7.3,0.4,10.9,1c8.7,1.3,16.7,4.6,24.1,9.5c2.2,1.4,4.3,3.1,6.5,4.7C195.4,93.3,161.6,82.4,136.2,92.8z M234.4,115.6
		c9.3-5.3,19.5-7.7,30.1-7.8c2,0,2.1-0.2,2.2-2.2c0-0.5,0.1-0.9,0.2-1.4c0.4-2.5-29.6-12.4-43.3,18.4
		C227.1,120.3,230.6,117.7,234.4,115.6z M167.5,72c0.2,0.3,0.8,0.4,1.1,0.4c0.9,0,1.8-0.3,2.7-0.3c2.3,0,3.7,1.9,3.2,4.1
		c0,0,0,0.1,0,0.1c-1.4,2.2-0.4,3.8,1.1,5.6c2.6,3.2,5.4,5.6,9.2,7.4c12,5.7,21.1,14.8,27.5,26.5c0.1,0.1,0.2,0.3,0.3,0.5
		c0.1-0.2,0.2-0.3,0.2-0.5c0.5-6.4-0.5-12.4-3.3-18.2c-8.5-18.1-22.3-29.3-41.7-33.4c-2.3-0.5-4.8-0.7-7.1-1c0,0.1-0.1,0.2-0.1,0.4
		C162.9,66.5,165.2,69.2,167.5,72z M227.2,105.1c6.4-7.8,14.4-13.6,23.6-17.5c0.8-0.3,1.5-0.9,2.1-1.5c1.7-2,3.4-4,5-6
		c0.3-0.4,0.4-1.1,0.3-1.7c-0.1-0.7-0.5-1.4-0.7-2.2c-0.6-2.2,0.9-4.1,3.1-4.1c0.4,0,0.8,0,1.1,0.1c1.7,0.6,2.8,0,3.9-1.4
		c1.8-2.4,3.8-4.7,6-7.3c-1.5,0.1-2.7,0.2-3.9,0.4c-23.4,3-42.2,19.8-48.3,43c-0.1,0.2-0.1,0.4-0.1,0.6c0,3,0,6,0,8.7
		C221.9,112.5,224.3,108.6,227.2,105.1z M262,114.5c-14.3-2.2-16.3,1.1-28.5,9.1C252.3,118.7,274.9,116.5,262,114.5z M136.8,132.4
		c0.3,0,0.7-0.4,0.9-0.7c0.5-0.7,0.9-1.5,1.3-2.1c1.4-1.9,4-1.9,5.3,0.1c0.5,0.8,1,1.6,1.4,2.3c16.5-10.5,34-13.3,52.8-8.5
		c-11-7.2-23-10.3-36.1-9.2c-14.4,1.2-26.6,7.3-36.6,17.7c0,0.1,0.1,0.2,0.1,0.4C129.6,132.5,133.2,132.5,136.8,132.4z M203.5,219.7
		c-0.2,4.9-0.4,9.7-0.6,14.7c8.7,0,17.4,0,26.2,0c-0.2-4.9-0.4-9.7-0.6-14.7C220.2,219.7,211.9,219.7,203.5,219.7z M228.3,213.1
		c-0.2-5-0.4-10-0.6-15.1c-7.8,0-15.5,0-23.3,0c-0.2,5-0.4,10-0.6,15.1C212,213.1,220.1,213.1,228.3,213.1z M205.3,176.3
		c-0.2,5.1-0.4,10.1-0.6,15.2c7.6,0,15.1,0,22.8,0c-0.2-5.1-0.4-10.1-0.6-15.2C219.5,176.3,212.4,176.3,205.3,176.3z M206.2,154.5
		c-0.2,5-0.4,10-0.6,15.1c7,0,13.9,0,21,0c-0.2-5-0.4-10-0.6-15.1C219.3,154.5,212.8,154.5,206.2,154.5z M225.5,148
		c0-1.8,0-3.6,0-5.3c0-0.2-0.4-0.6-0.7-0.7c-2.7-0.9-5.4-1.8-8.1-2.7c-0.4-0.1-0.9-0.1-1.3,0.1c-2.6,0.8-5.2,1.7-7.7,2.5
		c-0.7,0.2-1,0.5-1,1.2c0,1.6,0,3.2,0,4.9C212.9,148,219.2,148,225.5,148z"/>
	<g>
		<path class="st1" d="M266.5,96.5c-2.6-0.2-5.2-0.3-8.2-0.5c6.3-6,13.2-7.6,21.5-5.9c-1-1.2-2-2.5-2.9-3.7c0.2-0.3,0.3-0.7,0.5-1
			c3.5,1.1,7.1,2.1,11.2,3.4c2.7-3.1,6.8-5.1,12.3-4.5c-1.3,1.6-2.3,2.9-3.4,4.1c8.1-1.8,15-0.1,21.4,5.8c-3,0.3-5.7,0.5-8.3,0.8
			c9.4,4.6,17.9,9.7,22.6,20.3c-2.2-0.6-3.7-1-5.2-1.4c5.5,5.3,10.4,10.9,13.2,18.9c-2.8-1.9-5.2-3.4-7.5-4.9
			c4.1,6.2,6.5,12.6,5.6,20.2c-2.9-3.9-5.6-7.7-8.4-11.5c-0.3,0.2-0.5,0.3-0.8,0.5c0.4,0.8,0.8,1.6,1.1,2.4
			c3.1,6.9,3.1,13.8-2.4,19.3c-4.3,4.3-9.3,8.2-14.6,11c-11.2,5.8-22.9,10.7-34.3,16.1c-3.3,1.6-6.5,3.4-9.6,5.4
			c-10.2,6.7-12.2,11.7-9.5,23.7c-7.3-4.2-11.2-10.3-12.3-18.2c-1.6-11.5,2.3-21.7,7.9-31.4c1.1-1.9,2.3-3.8,3.2-5.9
			c-10.3,5.8-17,14-18,26.3c-6.1-15.3,0.6-28,8.4-40.6c-6.6,3.5-9.5,10-13.2,16c-3.1-7.3,0.7-18.3,11-33.4c-3.2,2.3-6.3,4.5-9.9,7.1
			c1.6-10,7.9-15.9,15.3-21.2c-2.8,1-5.6,2-8.4,3C245.9,110.1,252.7,104.1,266.5,96.5z M313.6,118.6c-1.3-4.8-1.4-9-5.9-11.2
			c-7.6-3.8-13.1-1.6-16.8,6.3c-1.4-1.7-2.3-2.7-3.2-3.8c-4.5-5.5-4.8-5.6-11.2-2.5c-0.9,0.4-2,1.8-2,2.8c0,2.4-1.2,3.4-3.2,4.2
			c-1.5,0.6-2.8,1.7-4.2,2.7c0.2,0.5,0.3,1,0.5,1.4c2.2-0.1,4.4-0.1,6.5-0.5c6.2-1.3,10.7,2.3,10.5,8.7c0,1.9-0.2,3.8-0.4,6.1
			c2.1,0,4,0,5.9,0c2,0,4.1,0,6.1,0.3c0.9,0.1,1.8,0.8,2.7,1.3c-0.5,0.9-0.9,1.9-1.6,2.5c-1.1,1-2.5,1.7-3.7,2.7
			c-2.3,1.9-2.2,4.6,0.3,6.1c1.9,1.1,4,2.3,6.1,3c5.2,1.7,8.3-1.1,7.3-6.4c-0.3-1.5-0.8-3-1.6-4.2c-1.8-2.6-1.2-4.4,1.3-5.9
			c1.9-1.2,3.9-2.3,5.7-3.6c2.3-1.6,2.3-4.4,0.4-7.5c-1.8-2.9-2.9-0.4-4.3,0.3c-1,0.5-2.1,1-3,0.9c-3-0.3-5.8-0.5-7.2,3.4
			c-1.6-4.5,2.3-8.8,6.6-8.2C307.8,117.8,310.3,118.1,313.6,118.6z M294.3,166.3c1.9-1.3,4.4-2.3,5.7-4.2c1.6-2.3,3.6-6.3,2.6-7.9
			c-1.4-2.5-5.1-4.6-8.1-5.1c-5.1-0.9-10.1-0.2-14.3,4c-2.6,2.7-3.2,6.2-0.2,8.4c2.7,1.9,5.7,3.3,9,5.3c0.4-2.4,0.8-4.5,1.1-6.6
			c0.3-0.1,0.6-0.2,0.9-0.3C292.2,161.9,293.2,164,294.3,166.3z M280.9,149.3c1.2-0.6,3.3-1.3,5.2-2.5c4.9-3,4.9-5.2,0.3-8.6
			c-7-5.3-9.1-4.6-12,3.8C272.8,146.7,274.8,149.4,280.9,149.3z M280.3,127c0.4-3.6-0.7-5.6-3.3-4.9c-2.9,0.8-4.9-0.1-7.1-1.8
			c-0.6-0.5-2.7-0.3-2.7-0.2c-0.4,2.6-1.4,5.4-0.7,7.7c0.7,2.4,3.5,1.7,5.7,1.1C274.9,128.2,277.5,127.7,280.3,127z"/>
		<path class="st1" d="M284,224.8c-6.6-0.2-12.2-1.8-15.2-7.9c-2.7-5.4-1.6-12.8,3.4-17.2c3.9-3.4,8.4-6.5,13.1-8.6
			c9-4.2,18.5-7.3,27.4-11.5c6.1-2.8,11.9-6.5,17.3-10.4c4.2-3,6.5-7.7,7.3-13c1.6,2.6,1.8,6.8,0.7,10.6c-1.8,6-5.6,10.9-10.7,14.2
			c-9.3,6.2-19.1,11.6-28.7,17.4c-3.7,2.2-7.5,4.3-10.9,6.9C280.6,211.2,279.7,216.4,284,224.8z"/>
		<path class="st1" d="M304.2,232c-3.5-1.9-7.4-3.3-10.5-5.8c-5.3-4.2-5.2-12,0.1-16.3c2.9-2.3,6.3-4.1,9.6-6
			c5.8-3.3,11.7-6.4,17.4-10c2.8-1.8,5.1-4.5,7.8-7c0.7,3.7-0.5,7-2.4,10.1c-3,4.8-7.4,8-12.3,10.7c-2.5,1.3-5,2.5-7.3,4.1
			c-6.8,4.7-7.8,10.8-2.8,17.4c0.4,0.5,0.8,1,1.1,1.5C304.6,231.3,304.4,231.6,304.2,232z"/>
	</g>
</g>
</svg>
