<?xml version="1.0" standalone="no"?>
<!DOCTYPE svg PUBLIC "-//W3C//DTD SVG 20010904//EN"
 "http://www.w3.org/TR/2001/REC-SVG-20010904/DTD/svg10.dtd">
<svg version="1.0" xmlns="http://www.w3.org/2000/svg"
 width="1238.000000pt" height="728.000000pt" viewBox="0 0 1238.000000 728.000000"
 preserveAspectRatio="xMidYMid meet">

<g transform="translate(0.000000,728.000000) scale(0.100000,-0.100000)"
fill="#000000" stroke="none">
<path d="M7263 4659 c-144 -28 -263 -144 -308 -302 -14 -50 -24 -63 -70 -98
-48 -36 -56 -39 -94 -33 -54 9 -79 -8 -135 -92 -26 -40 -69 -85 -109 -115
l-65 -50 -60 12 c-57 12 -63 11 -108 -12 -35 -18 -54 -37 -71 -69 -13 -24 -25
-45 -26 -47 -2 -1 -39 -10 -83 -18 -66 -13 -93 -14 -164 -4 -75 11 -89 10
-117 -5 -18 -9 -33 -20 -33 -24 -1 -23 -36 -45 -90 -58 -61 -14 -62 -14 -124
15 -160 77 -344 54 -460 -56 -114 -109 -182 -297 -175 -483 l3 -77 -57 -64
c-57 -64 -71 -102 -41 -113 9 -3 52 -6 96 -6 l80 0 57 -52 c78 -72 179 -135
264 -165 101 -36 236 -38 322 -4 109 44 214 169 245 293 10 40 21 54 66 88 47
36 59 40 89 34 55 -10 89 10 136 83 26 39 70 87 111 120 l68 55 48 -12 c69
-18 115 -7 162 40 21 21 40 49 42 62 3 20 13 25 88 40 68 14 98 16 152 8 105
-16 126 -13 157 18 15 15 30 33 32 41 3 8 34 19 73 26 62 12 71 11 100 -5 63
-36 139 -54 226 -55 75 0 93 4 152 32 117 55 192 148 245 303 21 60 27 101 31
205 l5 130 58 65 c86 94 81 103 -54 106 l-87 2 -57 52 c-171 157 -352 223
-520 189z m208 -65 c30 -9 84 -32 121 -51 79 -41 185 -133 174 -151 -12 -20
-30 -14 -112 41 -185 124 -355 128 -467 13 -74 -76 -123 -206 -78 -206 14 0
27 16 45 55 35 77 72 122 125 153 64 38 150 37 241 -2 66 -29 150 -81 150 -94
0 -14 -388 -181 -443 -191 -31 -5 -74 -19 -96 -31 -22 -11 -43 -20 -46 -20
-11 0 -85 170 -85 195 0 13 10 50 22 82 29 79 131 182 203 205 65 22 177 22
246 2z m469 -242 c0 -4 -17 -24 -37 -44 -28 -27 -103 -65 -287 -147 -137 -61
-252 -111 -257 -111 -10 0 -42 71 -35 78 6 5 439 200 486 217 39 15 130 20
130 7z m-864 -375 c63 -141 114 -263 114 -271 0 -8 -18 -16 -47 -20 -44 -6
-50 -4 -70 21 -13 16 -23 36 -23 47 0 10 -16 34 -35 52 -28 26 -34 38 -30 57
9 33 -18 92 -50 113 -22 14 -26 22 -21 48 4 21 0 43 -13 66 -37 71 -37 80 5
116 22 18 43 32 47 31 5 -1 60 -118 123 -260z m791 131 c-15 -215 -94 -370
-228 -443 -75 -40 -189 -47 -280 -16 -85 29 -93 36 -130 117 -55 123 -55 112
-2 135 25 11 68 35 94 54 36 27 414 205 435 205 18 0 -18 -164 -51 -229 -29
-57 -89 -115 -134 -130 -50 -16 -139 -13 -200 8 -30 11 -60 17 -68 14 -22 -9
-14 -39 13 -52 37 -17 143 -41 180 -41 56 0 130 29 176 69 74 66 138 213 138
321 0 52 15 80 42 80 20 0 21 -3 15 -92z m-1057 51 c13 -9 13 -12 -4 -22 -10
-7 -36 -25 -59 -42 -22 -16 -46 -34 -53 -40 -31 -22 -23 8 15 59 42 57 68 68
101 45z m470 -89 c11 -21 20 -46 20 -53 0 -15 -107 -77 -132 -77 -14 0 -23 15
-54 87 l-13 31 62 26 c84 34 93 33 117 -14z m-430 -5 c20 -24 3 -48 -61 -89
-59 -38 -62 -39 -75 -21 -8 10 -14 22 -14 26 0 11 113 99 126 99 6 0 17 -7 24
-15z m-133 -260 c46 -104 80 -192 76 -196 -5 -4 -35 -11 -68 -14 l-60 -7 -73
163 c-39 90 -72 167 -72 171 0 12 93 79 104 75 5 -2 47 -88 93 -192z m195 118
c23 -21 23 -65 1 -86 -18 -15 -97 -47 -120 -47 -11 0 -50 87 -42 94 15 13 108
55 123 56 11 0 28 -7 38 -17z m-463 -20 c37 -35 161 -313 161 -361 0 -78 -105
-122 -165 -69 -27 24 -165 321 -165 357 0 28 26 77 47 89 35 20 91 13 122 -16z
m-472 -128 c24 -4 45 -10 48 -14 6 -11 -158 -42 -168 -32 -21 21 27 64 63 56
8 -2 34 -7 57 -10z m323 -148 c39 -87 70 -162 70 -167 0 -13 -88 -82 -100 -78
-13 4 -182 379 -175 386 8 8 78 20 108 19 26 -2 32 -12 97 -160z m694 121 c17
-28 -10 -46 -88 -58 -55 -9 -71 -8 -77 2 -21 32 -9 45 54 60 75 19 97 18 111
-4z m-1430 -29 l59 -23 43 -94 c24 -51 44 -95 44 -98 0 -2 -26 -17 -59 -33
-32 -16 -71 -41 -87 -54 -33 -27 -422 -203 -430 -194 -3 3 1 41 9 84 45 236
169 325 367 264 67 -21 90 -19 90 9 0 38 -161 77 -249 60 -99 -19 -148 -55
-205 -153 -31 -52 -66 -183 -66 -243 0 -33 -5 -46 -22 -58 -12 -9 -24 -14 -26
-11 -2 2 -4 44 -3 93 3 234 115 415 291 473 46 15 181 3 244 -22z m259 -48 c9
-16 17 -37 17 -46 0 -10 15 -32 34 -49 27 -26 33 -39 33 -73 0 -46 31 -98 64
-108 15 -5 18 -12 13 -28 -11 -32 -6 -68 11 -88 9 -9 18 -32 21 -50 4 -31 1
-37 -37 -62 -22 -16 -43 -27 -44 -25 -14 13 -234 525 -231 535 4 11 31 18 81
22 13 0 27 -10 38 -28z m246 7 c5 -13 7 -26 5 -29 -1 -3 -37 -14 -79 -24 -69
-17 -77 -18 -91 -3 -27 27 -4 51 63 64 85 17 93 16 102 -8z m971 -38 c0 -11
-10 -26 -23 -35 -20 -12 -33 -13 -83 -4 -81 15 -87 26 -18 35 33 3 68 10 79
15 33 13 45 10 45 -11z m-917 -85 c9 -20 17 -41 17 -48 0 -16 -94 -67 -124
-67 -46 0 -74 72 -40 101 16 14 98 47 120 48 6 1 18 -15 27 -34z m-358 -172
c14 -31 22 -59 18 -63 -16 -14 -113 -50 -133 -50 -15 0 -26 12 -41 46 -24 53
-19 63 50 99 68 35 76 33 106 -32z m421 35 c5 -18 -2 -30 -42 -65 -59 -51 -81
-60 -101 -40 -23 22 -11 40 54 86 67 46 79 49 89 19z m-629 -123 c10 -22 13
-39 7 -44 -5 -5 -122 -59 -260 -120 -213 -94 -259 -111 -303 -111 -28 0 -51 4
-51 8 0 10 47 54 82 76 28 18 488 225 501 226 4 0 15 -16 24 -35z m663 30 c0
-14 -74 -114 -87 -120 -19 -7 -66 22 -58 35 4 6 12 10 20 10 8 0 35 18 60 40
42 36 65 49 65 35z m-364 -147 c41 -90 42 -126 4 -206 -101 -214 -330 -264
-576 -127 -77 43 -170 127 -160 143 12 20 39 14 76 -16 91 -74 214 -122 313
-122 116 0 203 64 269 197 31 64 32 93 1 93 -12 0 -29 -22 -52 -70 -52 -110
-135 -170 -232 -170 -74 1 -296 107 -272 131 19 19 373 171 430 185 33 7 81
22 105 33 23 10 47 15 52 11 4 -5 23 -41 42 -82z"/>
<path d="M6904 4175 c-7 -18 12 -45 32 -45 18 0 26 17 19 40 -7 23 -43 27 -51
5z"/>
<path d="M6954 4075 c-13 -33 25 -70 48 -47 8 8 8 18 0 37 -13 28 -39 33 -48
10z"/>
<path d="M7000 3956 c0 -33 26 -54 45 -35 18 19 2 59 -25 59 -14 0 -20 -7 -20
-24z"/>
<path d="M7055 3867 c-14 -11 -16 -17 -6 -35 16 -31 51 -29 51 2 0 33 -22 49
-45 33z"/>
<path d="M7103 3763 c-18 -7 -16 -38 2 -53 32 -26 63 18 33 48 -13 13 -16 13
-35 5z"/>
<path d="M6580 3896 c0 -33 22 -49 45 -33 14 11 16 17 6 35 -16 31 -51 29 -51
-2z"/>
<path d="M6635 3807 c-15 -11 -16 -17 -6 -36 15 -27 45 -24 49 5 4 30 -20 47
-43 31z"/>
<path d="M6674 3696 c-8 -21 15 -58 34 -54 9 2 18 11 20 21 7 36 -42 65 -54
33z"/>
<path d="M6171 3726 c-15 -18 2 -56 25 -56 19 0 30 29 17 48 -14 22 -28 25
-42 8z"/>
<path d="M6214 3616 c-7 -19 14 -58 28 -54 23 8 32 36 19 52 -17 20 -40 21
-47 2z"/>
<path d="M6262 3493 c3 -30 35 -44 49 -22 11 19 -8 49 -32 49 -16 0 -20 -5
-17 -27z"/>
<path d="M5751 3671 c-12 -8 -13 -14 -3 -35 13 -29 39 -34 49 -10 6 17 -6 46
-23 51 -5 1 -15 -1 -23 -6z"/>
<path d="M5794 3556 c-7 -19 14 -58 28 -54 23 8 32 36 19 52 -17 20 -40 21
-47 2z"/>
<path d="M5840 3446 c0 -28 12 -46 30 -46 25 0 33 16 20 40 -12 23 -50 27 -50
6z"/>
<path d="M5893 3348 c-14 -17 2 -58 22 -58 20 0 31 28 18 48 -13 22 -28 25
-40 10z"/>
<path d="M5935 3240 c-9 -14 3 -47 19 -53 23 -9 39 9 32 37 -6 26 -38 36 -51
16z"/>
<path d="M4418 2313 l-178 -3 0 -44 c0 -41 2 -44 40 -59 31 -12 44 -25 56 -53
15 -37 136 -454 169 -584 9 -36 25 -95 36 -131 l19 -65 107 13 c60 8 111 17
115 21 3 4 22 52 42 107 42 120 177 501 214 604 21 59 33 78 57 91 25 14 31
24 33 58 l3 42 -184 0 -184 0 -7 -31 c-11 -57 -10 -59 43 -59 32 0 56 -6 71
-18 l22 -18 -27 -99 c-45 -169 -146 -479 -161 -494 -7 -8 -15 -13 -17 -10 -6
6 -93 374 -117 491 -11 54 -17 105 -13 114 7 18 43 34 78 34 20 0 25 7 31 35
9 51 0 65 -38 63 -18 -1 -113 -4 -210 -5z m167 -59 c-49 -18 -75 -47 -75 -86
0 -30 82 -402 122 -550 l20 -78 44 0 43 0 75 231 c41 127 85 271 98 320 21 82
22 92 8 117 -9 15 -26 32 -38 38 -12 6 -25 13 -27 16 -4 4 209 3 235 -1 3 -1
-9 -10 -26 -20 -23 -14 -38 -36 -54 -78 -18 -47 -168 -467 -239 -668 -19 -54
-30 -60 -135 -67 -49 -3 -50 -3 -58 32 -50 203 -189 682 -210 723 -11 23 -32
44 -53 54 -19 9 -33 19 -31 22 2 3 80 7 173 8 156 1 165 0 128 -13z"/>
<path d="M5592 2310 c-35 -4 -67 -11 -73 -17 -8 -8 -129 -342 -240 -665 -28
-81 -45 -107 -91 -141 -10 -6 -20 -31 -24 -54 l-7 -43 192 0 191 0 0 45 0 45
-44 0 c-28 0 -52 7 -67 19 l-24 19 23 78 c13 43 29 82 35 86 7 5 68 7 137 6
l124 -3 20 -82 c23 -96 18 -108 -49 -119 -41 -6 -44 -8 -50 -46 -4 -22 -5 -42
-2 -45 6 -6 409 -4 415 2 2 2 6 21 9 42 5 38 4 40 -35 55 -22 9 -47 26 -55 39
-16 25 -69 196 -131 424 -19 72 -49 183 -67 248 l-31 117 -47 -1 c-25 -1 -74
-5 -109 -9z m161 -176 c161 -589 176 -631 234 -670 l32 -21 -162 -5 c-89 -3
-164 -4 -166 -2 -1 1 15 8 38 14 47 12 71 42 71 85 0 31 -32 164 -44 184 -8
12 -232 16 -298 5 -35 -6 -37 -9 -62 -85 -39 -117 -33 -165 25 -188 17 -7 -8
-10 -95 -10 l-119 -1 35 34 c42 41 73 120 258 656 24 69 44 126 45 128 3 3
148 20 160 17 5 -1 27 -64 48 -141z"/>
<path d="M5501 1973 c-34 -104 -61 -194 -61 -201 0 -11 29 -13 149 -10 82 1
152 5 154 8 3 3 -3 37 -13 75 -10 39 -33 125 -51 193 l-32 122 -42 0 -43 0
-61 -187z m153 -7 c32 -123 37 -149 25 -157 -8 -5 -54 -9 -103 -9 -66 0 -87 3
-83 13 2 6 26 79 52 160 28 86 53 146 59 144 6 -2 29 -70 50 -151z"/>
<path d="M6369 2313 l-167 -3 -6 -41 c-4 -22 -4 -44 -1 -49 3 -4 23 -6 44 -3
34 5 41 2 56 -21 15 -23 17 -60 13 -393 -4 -356 -5 -370 -26 -419 -13 -28 -43
-71 -68 -95 -49 -48 -51 -55 -25 -86 18 -22 21 -22 60 -8 56 19 122 66 165
116 64 75 67 96 77 479 5 190 14 362 19 383 9 30 17 39 41 44 25 5 29 10 29
38 0 19 3 40 6 49 5 13 0 16 -22 14 -16 -1 -104 -4 -195 -5z m156 -58 c-41
-29 -53 -47 -59 -88 -3 -23 -10 -188 -16 -367 -12 -373 -18 -407 -83 -477 -37
-40 -137 -104 -137 -87 0 4 18 26 39 49 71 77 74 100 78 525 4 403 3 412 -47
437 -22 11 -16 12 50 16 184 8 197 8 175 -8z"/>
<path d="M8162 2310 c-35 -4 -67 -11 -71 -16 -5 -5 -18 -36 -29 -69 -72 -212
-232 -655 -246 -682 -9 -18 -29 -39 -45 -47 -20 -11 -31 -26 -35 -51 -4 -19
-4 -40 -1 -45 4 -6 80 -10 189 -10 l184 0 6 31 c11 56 9 59 -38 59 -91 0 -104
21 -75 117 12 37 26 74 31 81 7 8 48 12 137 12 l127 0 17 -64 c30 -112 22
-133 -53 -143 l-40 -6 0 -46 0 -46 197 3 c109 1 204 5 211 7 7 3 12 21 12 43
0 36 -3 40 -39 54 -26 11 -45 27 -57 49 -18 36 -65 192 -143 484 -27 99 -57
206 -66 238 l-16 57 -47 -1 c-26 -1 -75 -5 -110 -9z m126 -42 c5 -7 13 -29 17
-48 13 -62 135 -502 166 -600 36 -114 48 -134 97 -159 l37 -20 -115 -1 c-63 0
-139 -3 -169 -7 -40 -4 -52 -3 -47 5 4 7 15 12 25 12 10 0 30 9 45 21 33 26
35 80 4 184 l-22 75 -131 0 c-71 0 -146 -3 -166 -6 -37 -6 -37 -6 -63 -99 -34
-118 -24 -162 39 -178 11 -2 -35 -5 -102 -6 l-123 -1 38 38 c41 41 45 50 191
472 118 336 102 308 169 315 32 3 64 8 72 9 8 2 18 4 21 5 4 0 11 -5 17 -11z"/>
<path d="M8072 1967 c-34 -107 -62 -197 -62 -201 0 -10 296 -4 305 6 5 5 -46
213 -91 371 -4 13 -16 17 -48 17 l-42 0 -62 -193z m152 10 c41 -163 41 -163
20 -171 -23 -9 -174 -7 -174 2 -2 23 97 312 106 312 6 0 27 -64 48 -143z"/>
<path d="M6796 2288 c-14 -54 -8 -68 28 -68 67 0 66 3 66 -345 0 -180 -4 -325
-10 -339 -5 -15 -25 -33 -47 -44 -47 -21 -53 -29 -53 -70 l0 -32 192 2 193 3
6 40 c7 44 0 55 -43 55 -46 0 -58 31 -58 152 l0 108 53 0 52 0 72 -144 c111
-222 135 -242 281 -227 46 5 84 10 86 12 2 2 6 18 9 36 7 35 -3 47 -47 57 -17
4 -44 23 -62 41 -31 33 -174 257 -174 273 0 4 16 16 36 27 44 24 96 81 125
137 32 62 31 160 -2 219 -30 54 -101 103 -169 118 -29 6 -156 11 -289 11
l-239 0 -6 -22z m575 -49 c82 -39 104 -75 104 -171 0 -69 -3 -80 -30 -120 -27
-37 -83 -83 -151 -124 -16 -10 -11 -21 55 -130 105 -171 143 -219 192 -241 38
-16 39 -18 18 -24 -13 -4 -50 -7 -81 -8 -83 -1 -102 19 -200 215 l-81 164 -84
0 -83 0 0 -146 0 -146 29 -29 c16 -16 37 -29 45 -29 9 0 16 -3 16 -7 0 -5 -65
-8 -145 -8 -80 0 -145 2 -145 5 0 3 15 12 33 20 64 30 67 48 67 407 0 177 -4
333 -9 346 -6 14 -19 28 -30 32 -50 16 -7 20 202 20 219 0 223 0 278 -26z"/>
<path d="M7065 2220 c-16 -18 -20 -47 -26 -193 -4 -95 -5 -175 0 -180 4 -4 44
-12 90 -17 80 -10 84 -10 126 14 77 46 115 110 115 196 0 124 -89 200 -235
200 -39 0 -56 -5 -70 -20z m182 -47 c78 -39 104 -130 61 -213 -40 -77 -101
-103 -198 -83 l-33 6 6 149 c3 82 9 154 13 160 10 15 106 3 151 -19z"/>
</g>
</svg>
