<svg width="90" height="97" viewBox="0 0 90 97" fill="none" xmlns="http://www.w3.org/2000/svg">
<g clip-path="url(#clip0_730_1551)">
<path d="M71.5766 74.9787C68.1893 73.9938 64.7915 72.9675 61.3696 72.0256C59.1541 71.4143 57.8195 68.8194 58.4167 67.094C58.9325 65.6063 58.8148 65.503 57.2397 65.138C57.0805 65.1018 56.9299 65.0329 56.7758 64.9813C55.289 64.4819 54.5932 63.2249 54.9861 61.7079C55.2007 60.8831 55.405 60.0514 55.6906 59.249C56.8191 56.0841 59.7512 54.5826 63.0087 55.3437C64.679 55.7329 66.3112 56.2735 67.9712 56.7109C68.2689 56.7901 68.7293 57.0777 68.8193 56.3872C68.9595 55.311 69.1534 54.24 69.3282 53.1689C69.6103 51.4367 70.0084 49.7131 70.1469 47.9705C70.2715 46.4173 70.1936 44.8349 70.0499 43.28C69.9149 41.8164 69.4891 40.3803 69.3455 38.9166C69.0772 36.1702 69.6865 33.6338 71.4866 31.4504C71.6147 31.2955 71.9903 30.8925 72.2222 30.6497L74.2733 29.0191C74.6212 28.809 74.8168 28.6627 75.0332 28.5628C77.0687 27.6278 79.1873 27.4608 81.3803 27.8551C85.1294 28.5301 87.627 30.7014 89.0065 34.1762C89.3856 35.1302 89.3822 36.0169 89.6677 37.007C89.6677 37.5219 89.6262 39.1526 89.5362 39.4005C89.1052 40.5886 88.894 41.9162 88.2207 42.9477C86.5729 45.4754 84.6655 47.8362 82.9519 50.3243C80.977 53.1896 79.6304 56.3803 78.2682 59.6847C80.0302 60.1943 81.749 60.6971 83.4712 61.1913C85.5707 61.7923 87.0576 63.0321 87.8174 65.1242C88.4959 66.989 87.9888 68.723 87.4886 70.5138C87.1337 71.7845 86.4847 72.7729 85.19 72.9382C84.3332 73.0484 83.3847 72.7505 82.5331 72.4699C82.0328 72.3046 81.9186 72.5026 81.7819 72.8194C81.6849 73.045 81.659 73.2998 81.5897 73.5375C81.1345 75.1147 79.2063 76.7798 77.4668 76.4888C76.996 76.4561 71.5714 74.9839 71.5714 74.9839L71.5766 74.9787ZM57.4197 62.4363C66.5674 65.1052 75.677 67.7622 84.7867 70.4208C84.9701 69.7785 85.0619 69.286 85.2488 68.8332C86.2198 66.4759 84.9926 64.2581 82.5331 63.5865C78.9467 62.6067 75.3828 61.5392 71.812 60.506C68.7258 59.6123 65.6622 58.6308 62.5466 57.8508C60.8867 57.4341 59.0364 57.7647 58.2159 59.9533C57.9269 60.7264 57.7088 61.5254 57.4197 62.4397V62.4363ZM83.6616 38.0195C83.6477 35.2386 81.974 33.8508 78.6559 33.8663C76.7346 33.8749 75.1491 35.8947 75.2097 38.3639C75.2564 40.2839 77.0306 42.2813 79.3448 42.2761C81.6053 42.2709 83.7724 40.3992 83.6616 38.0178V38.0195Z" fill="white"/>
<path d="M39.9207 28.5991C34.8544 28.5991 29.7881 28.5422 24.7236 28.6232C22.1117 28.6645 20.7131 27.33 20.4535 24.8298C20.3289 23.6331 20.4777 22.3967 20.6024 21.188C20.8758 18.5242 22.785 17.8268 24.7409 17.8285C28.1663 17.8302 31.5917 17.8285 35.0171 17.8285C41.752 17.8285 48.4886 17.8251 55.2234 17.8319C56.5545 17.8319 57.844 18.0368 58.706 19.1768C59.0989 19.6951 59.5593 20.327 59.5852 20.9245C59.6579 22.5603 59.6597 24.2271 59.4225 25.8423C59.1733 27.5435 57.6744 28.5939 55.8967 28.5956C50.5725 28.6042 45.2466 28.5991 39.9224 28.5991H39.9207Z" fill="#1ABDFE"/>
<path d="M32.3394 70.4759C32.2858 71.0734 32.4294 71.5194 33.2205 71.7467C34.5169 72.1204 34.8319 72.9934 34.0374 74.1006C33.5874 74.7291 33.7328 75.1268 34.0582 75.671C34.7488 76.8281 34.4736 77.6632 33.1945 78.0369C32.4987 78.2401 32.3291 78.6051 32.3308 79.2336C32.3343 80.5078 31.6211 81.0123 30.3507 80.6714C29.7258 80.5044 29.2273 80.4699 28.8431 81.2138C28.4207 82.03 27.2732 82.1316 26.6898 81.4428C26.0806 80.7213 25.4713 80.4441 24.5193 80.785C23.7958 81.0433 23.0238 80.3942 23.0238 79.6279C23.0238 78.7756 22.7296 78.2211 21.8815 77.8853C20.8256 77.4686 20.5504 76.5715 21.2307 75.6778C21.6997 75.0614 21.6132 74.5844 21.2583 74.0179C20.5885 72.9521 20.7668 72.2409 21.9663 71.8276C22.8646 71.5194 22.8802 70.8169 23.0031 70.1402C23.1865 69.126 23.7508 68.6869 24.7149 69.045C25.48 69.3309 25.949 69.0898 26.4493 68.5543C27.313 67.6296 28.1161 67.6262 28.9331 68.6111C29.3918 69.1638 29.8331 69.2086 30.4614 69.0295C31.5432 68.7213 32.3394 69.3291 32.336 70.4742L32.3394 70.4759Z" fill="#1ABDFE"/>
<path d="M40.0227 36.1324C32.1957 36.1324 24.3669 36.1324 16.5398 36.1324C15.3888 36.1324 14.8955 35.7329 14.9042 34.8186C14.9111 34.0007 15.4805 33.5564 16.5433 33.5564C29.897 33.5564 43.2491 33.5564 56.6028 33.5564C58.962 33.5564 61.3229 33.5547 63.6821 33.5564C64.6566 33.5564 65.3247 34.0523 65.3368 34.7669C65.3507 35.6434 64.7656 36.1324 63.6786 36.1324C55.7928 36.1324 47.9086 36.1324 40.0227 36.1324Z" fill="white"/>
<path d="M39.9344 44.7419C32.0779 44.7419 24.2232 44.7436 16.3667 44.7401C15.3801 44.7401 14.8868 44.2304 14.8989 43.3213C14.9093 42.5654 15.4528 42.3449 16.0274 42.1745C16.2386 42.1108 16.4844 42.1607 16.7146 42.1607C32.2821 42.1607 47.8514 42.1573 63.4189 42.1693C64.1199 42.1693 64.9179 42.0539 65.1792 43.0647C65.3921 43.8861 65.039 44.5834 64.1909 44.7229C63.9105 44.7694 63.6163 44.7436 63.3289 44.7436C55.5313 44.7436 47.732 44.7436 39.9344 44.7436V44.7419Z" fill="white"/>
<path d="M55.9572 75.1838C56.717 74.2798 57.3834 73.3758 58.1675 72.5854C59.1904 71.5523 60.4557 71.263 61.875 71.6969C62.5622 71.907 62.9811 72.3891 62.8738 73.0452C62.7664 73.7012 62.3337 74.2402 61.5012 74.1162C59.7063 73.8493 59.1714 75.2716 58.4237 76.396C58.2419 76.6681 58.1242 76.9832 57.9217 77.3913C59.3601 77.3913 60.7413 77.3913 62.1243 77.3913C62.4116 77.3913 62.7007 77.3775 62.9863 77.3947C63.9279 77.4515 64.4662 77.9234 64.4679 78.6775C64.4679 79.4369 63.8465 79.9759 62.9205 79.9759C57.5426 79.981 52.1665 79.981 46.7887 79.9759C45.9059 79.9759 45.3261 79.4731 45.2949 78.724C45.2638 77.9802 45.8229 77.3431 46.7039 77.4119C47.6091 77.4825 47.9415 77.0383 48.2409 76.3478C48.5628 75.6056 48.9644 74.8997 49.3037 74.1644C49.8939 72.8867 50.9324 72.2204 52.2964 72.2496C53.7018 72.2806 54.9308 72.7817 55.5314 74.2143C55.6595 74.5191 55.7979 74.8205 55.9589 75.1855L55.9572 75.1838ZM50.6797 77.3362H54.0636C53.7728 76.7008 53.5547 76.0981 53.2276 75.5626C53.0389 75.2544 52.6806 74.8738 52.3812 74.8583C52.1025 74.8446 51.7113 75.2165 51.5296 75.5161C51.1903 76.0775 50.9653 76.7077 50.6797 77.3362Z" fill="white"/>
<path d="M32.3359 53.3636C27.0688 53.3636 21.8 53.3671 16.533 53.3619C15.3508 53.3619 14.9008 53.0106 14.8956 52.1307C14.8904 51.3662 15.2746 50.9099 16.0327 50.798C16.3149 50.7566 16.6074 50.7756 16.8947 50.7756C27.2281 50.7756 37.5632 50.7756 47.8965 50.779C48.2358 50.779 48.5906 50.7911 48.9143 50.8823C49.5928 51.0717 49.9597 51.6245 49.7416 52.2323C49.5824 52.6766 49.0631 53.0244 48.6425 53.3309C48.4729 53.4549 48.1388 53.3636 47.8809 53.3636C42.6987 53.3636 37.5182 53.3636 32.3359 53.3636Z" fill="white"/>
<path d="M24.2249 61.9852C21.5801 61.9852 18.9353 61.9938 16.2922 61.9783C15.7885 61.9749 15.1775 61.9817 15.0754 61.3136C15.0045 60.8539 14.9352 60.2375 15.1741 59.9292C15.4285 59.6038 16.0447 59.4282 16.5103 59.4161C18.4628 59.3627 20.4186 59.3937 22.3728 59.3937C25.5923 59.3937 28.8117 59.3886 32.0311 59.3972C33.0541 59.4006 33.5318 59.7984 33.5491 60.5973C33.5699 61.5616 33.1458 61.98 32.0709 61.9852C29.4556 61.9955 26.8402 61.9886 24.2231 61.9852H24.2249Z" fill="white"/>
<path d="M75.8866 69.8646V86.3847C75.8866 90.0162 72.9268 92.9607 69.2764 92.9607H10.9647C7.3143 92.9607 4.35449 90.0162 4.35449 86.3847V10.5843C4.35449 6.95277 7.3143 4.0083 10.9647 4.0083H69.2764C72.9268 4.0083 75.8866 6.95277 75.8866 10.5843V30.5327" stroke="white" stroke-width="8" stroke-miterlimit="10"/>
</g>
<defs>
<clipPath id="clip0_730_1551">
<rect width="88.692" height="95.6678" fill="white" transform="translate(0.979248 0.650635)"/>
</clipPath>
</defs>
</svg>
