<svg width="98" height="89" viewBox="0 0 98 89" fill="none" xmlns="http://www.w3.org/2000/svg">
<g clip-path="url(#clip0_730_1486)">
<path d="M85.5713 88.9896C69.912 88.9144 54.251 88.8409 38.5916 88.7657C38.5371 88.7133 38.4908 88.6267 38.4297 88.6153C35.2935 88.0774 32.6977 86.6209 30.6438 84.1933C28.5618 81.7331 27.4961 78.9475 27.5159 75.7058C27.6332 56.506 27.7109 37.3061 27.8183 18.1063C27.8232 17.1827 27.8926 16.2394 28.0893 15.337C28.9204 11.5053 31.0751 8.56601 34.5434 6.71714C35.9693 5.95699 37.6167 5.60553 39.165 5.06934C50.8141 5.12492 62.4632 5.1805 74.1123 5.23608C74.3998 5.34724 74.6823 5.47802 74.9765 5.56466C76.8221 6.10575 78.5141 6.91004 79.8906 8.29138C84.6923 13.1089 89.5023 17.9183 94.3073 22.7342C94.537 22.9647 94.7502 23.2132 94.9452 23.4731C96.0836 24.9868 96.7247 26.7115 97.0932 28.5473C97.085 28.629 97.0701 28.7091 97.0701 28.7908C96.9957 44.5758 96.9214 60.359 96.847 76.1439C96.8454 76.5788 96.8487 77.012 96.8503 77.4468C96.7908 77.6479 96.7082 77.8441 96.6768 78.05C96.0258 82.2676 93.7356 85.3687 89.9881 87.3516C88.6133 88.0791 87.0502 88.4551 85.5747 88.9912L85.5713 88.9896ZM90.4425 53.2251C90.4788 45.6236 90.5168 38.0221 90.5499 30.4207C90.5499 30.0692 90.502 29.7177 90.4821 29.3663C90.4541 28.8464 90.226 28.6421 89.6576 28.6454C87.1576 28.665 84.6576 28.6355 82.1576 28.6241C81.8552 28.6241 81.5413 28.6944 81.2537 28.6306C78.7901 28.0895 76.6172 27.0858 75.0492 24.9966C73.8446 23.3913 73.0548 21.6667 73.0515 19.6446C73.0482 17.4099 73.0696 15.1768 73.0812 12.9422C73.0845 12.1608 72.6995 11.7679 71.9262 11.7635C61.6519 11.7145 51.3759 11.6605 41.1016 11.6279C40.4918 11.6262 39.8672 11.7374 39.2707 11.8796C36.3973 12.5662 34.4293 15.3142 34.4244 18.2338C34.388 37.3323 34.2674 56.4308 34.1749 75.5293C34.1749 75.8023 34.1782 76.0736 34.1865 76.3466C34.2872 79.4804 37.3656 82.2186 40.3795 82.2333C54.8029 82.3052 69.2263 82.3739 83.6497 82.4393C85.3979 82.4474 86.9098 81.8017 88.1721 80.6394C89.7518 79.1845 90.3268 77.3079 90.3351 75.2122C90.3615 67.8837 90.4028 60.5536 90.4392 53.2251H90.4425Z" fill="white"/>
<path d="M62.1905 54.5412C56.3428 54.5412 50.4952 54.5641 44.6491 54.5265C42.972 54.5167 41.893 53.5227 41.2535 52.0466C40.6554 50.6636 40.9545 49.3918 41.8831 48.2622C42.744 47.2143 43.899 46.8089 45.2522 46.8106C56.6452 46.822 68.0382 46.8155 79.4312 46.8171C81.3975 46.8171 82.9639 47.8404 83.5092 49.4637C84.3304 51.9093 82.5442 54.4365 79.8971 54.5461C79.0197 54.582 78.1407 54.5542 77.2616 54.5542C72.2385 54.5542 67.2137 54.5542 62.1905 54.5542C62.1905 54.5493 62.1905 54.5461 62.1905 54.5412Z" fill="#1ABDFE"/>
<path d="M62.1427 71.2169C56.3231 71.2169 50.5035 71.2136 44.6839 71.2185C43.2414 71.2185 41.8484 70.2458 41.2222 68.688C40.6654 67.3033 40.9628 66.0315 41.9145 64.9036C42.7952 63.8606 43.9519 63.483 45.2986 63.4846C56.6635 63.4944 68.03 63.4895 79.3949 63.4912C81.3777 63.4912 82.9557 64.4982 83.5076 66.1035C84.2875 68.3757 82.7508 70.8409 80.3384 71.1727C79.9881 71.2218 79.6279 71.2251 79.2726 71.2251C73.5621 71.2283 67.8532 71.2267 62.1427 71.2267C62.1427 71.2234 62.1427 71.2185 62.1427 71.2152V71.2169Z" fill="#1ABDFE"/>
<path d="M54.902 37.888C51.4453 37.888 47.9853 37.9534 44.5302 37.8586C42.9324 37.8145 41.8335 36.8124 41.2321 35.3509C40.662 33.9663 40.9561 32.6962 41.9013 31.5666C42.7754 30.522 43.9287 30.1313 45.2787 30.1345C51.784 30.1493 58.2893 30.1247 64.7947 30.1509C66.9361 30.1591 68.5372 31.3181 68.9834 33.5871C69.3684 35.5488 67.2914 37.8848 65.1945 37.8848C61.7642 37.8848 58.3323 37.8848 54.902 37.8848V37.888Z" fill="#1ABDFE"/>
<path d="M45.2275 41.563L44.5451 41.514L44.5071 41.4927L44.2361 41.4617L43.5669 41.3914L42.7589 41.2982L41.8286 41.1968L40.6059 40.6901L40.7083 39.0406L40.7348 38.9475L40.7397 38.9017C40.7678 38.6287 40.7959 38.3573 40.8207 38.0843C40.8372 37.9061 40.8504 37.7263 40.8637 37.5481L40.8868 37.2359L40.8967 37.1738C40.9479 36.8763 40.9711 36.6376 40.9727 36.4218V36.2927L40.9975 36.1652C41.0438 35.9281 41.0686 35.678 41.0719 35.4246V35.3037L41.0966 35.1843C41.1396 34.9587 41.1644 34.7103 41.171 34.4274V34.3751L41.2718 33.391L41.4073 32.0228L41.4717 31.3885L41.5015 31.2152C41.5163 31.0403 41.5296 30.8637 41.5444 30.6888L41.5643 30.4469L41.6122 29.9597L41.6386 29.6802L41.7411 28.6847L41.8386 27.6646L41.8468 27.6155C41.898 27.3148 41.9228 27.0712 41.9228 26.8521V26.7328L41.9443 26.6151C41.9922 26.3535 42.0154 26.1296 42.0137 25.9334V25.801L42.0385 25.6719C42.0847 25.425 42.1095 25.1765 42.1128 24.9346V24.8104L42.1376 24.6894C42.1822 24.4556 42.207 24.2088 42.212 23.939V23.8312C42.212 23.8312 42.2384 23.6922 42.2417 23.6775C42.2368 23.5729 42.2285 23.4682 42.2219 23.3653L42.2037 23.0939L42.207 23.0171C42.2153 22.834 42.1872 22.6018 42.1558 22.3534L42.1409 22.2389V22.2079C42.1178 21.9414 42.0947 21.7044 42.0451 21.5033L42.0269 21.4281L42.017 21.3513C42.0104 21.3055 42.0054 21.2597 42.0005 21.214C41.9955 21.1682 41.9922 21.1241 41.9823 21.0799C41.9559 20.9475 41.9261 20.8167 41.8947 20.6876L41.8419 20.4587L41.8352 20.4228C41.8286 20.3819 41.822 20.3394 41.8154 20.2969C41.8105 20.2675 41.8072 20.238 41.8022 20.2086C41.784 20.135 41.7658 20.0549 41.746 19.9765C41.7097 19.8163 41.675 19.6659 41.6353 19.5792L41.5543 19.401L41.5263 19.2082C41.5114 19.0986 41.4469 18.9302 41.3792 18.7537L41.3627 18.7112L41.3494 18.6671C41.2701 18.4071 41.1826 18.1358 41.0702 17.9134L41.0438 17.8611L40.8752 17.4443L40.6108 16.8558C40.5134 16.6286 40.4159 16.4128 40.3085 16.2526L40.2738 16.2019L40.0755 15.8455L40.049 15.785C39.9796 15.6265 39.8772 15.4548 39.7368 15.2603L39.7153 15.2309L39.3848 14.7192L39.3666 14.6881C39.3104 14.59 39.2377 14.4691 39.175 14.4037L39.0395 14.2631L38.9486 14.0915C38.9337 14.0637 38.9007 14.0146 38.8247 13.9362L38.78 13.8888L38.4083 13.4229L38.0067 12.9602L37.5937 12.5189L37.4251 12.3505C37.3441 12.2851 37.24 12.187 37.1442 12.053C37.1211 12.0203 37.0401 11.9483 36.9674 11.8846L36.8402 11.8453L36.204 11.2454V11.2405C36.1363 11.1882 35.8653 10.974 35.8653 10.974L35.5646 10.7517L35.1416 10.4444L35.1234 10.4297C34.9251 10.2744 34.7318 10.1501 34.5335 10.0471L34.5004 10.0292L34.008 9.74145L33.932 9.67606C33.9238 9.6728 33.9089 9.66626 33.8891 9.65808L33.8164 9.63029L32.9687 9.19709L32.934 9.17257C32.4928 8.96986 32.1227 8.8162 31.7807 8.69359C31.7807 8.69359 31.7146 8.67725 31.6881 8.66907L31.5791 8.63965L31.475 8.59224C31.3279 8.52522 31.1528 8.468 30.9413 8.41733L30.8967 8.40588L30.1729 8.20808L29.9201 8.14923C29.7169 8.10182 29.512 8.05442 29.3071 8.01191C29.2146 7.99393 29.1022 7.97759 28.9816 7.96124C28.9138 7.95143 28.8461 7.94326 28.7783 7.93345L28.7255 7.92527L28.6742 7.91383C28.4908 7.87296 28.3289 7.85171 28.1802 7.85008H28.1009L27.6267 7.79286H27.6151H27.2631L27.126 7.76671C27.0764 7.7569 27.007 7.75199 26.9128 7.75199C26.8286 7.75199 26.7426 7.75526 26.6584 7.75853H26.6038L26.4816 7.75526C26.4039 7.75199 26.3263 7.74872 26.2486 7.74872C26.1709 7.74872 26.1296 7.75363 26.1147 7.7569L26.0073 7.77651L25.7297 7.78469C25.6207 7.78796 25.5116 7.78959 25.4026 7.7945L25.3761 7.7994C25.3398 7.80594 25.3034 7.81084 25.2671 7.81738L25.1597 7.83209H25.0506C24.887 7.83209 24.7069 7.86152 24.5665 7.88604L24.5368 7.89094L24.507 7.89585C24.436 7.90566 24.3666 7.91383 24.2955 7.92364C24.1699 7.93999 24.051 7.9547 23.9518 7.97268C23.7403 8.01355 23.5305 8.05932 23.3206 8.10673L23.005 8.17539L22.9802 8.18029C22.7704 8.21789 22.5919 8.26366 22.4366 8.32251L22.3342 8.36175L22.2268 8.38463C22.0483 8.42223 21.8732 8.47781 21.6881 8.55464L21.6567 8.56772L20.9264 8.83582L20.6223 8.96169L20.1977 9.15132L20.158 9.16603C19.9614 9.23959 19.778 9.3295 19.6111 9.43086L19.5747 9.45374L18.9006 9.81665L18.8295 9.87223L18.7023 9.93435C18.5156 10.0259 18.3289 10.1436 18.1306 10.294L18.0893 10.3251L17.5374 10.7108L17.3127 10.8743C17.3127 10.8743 17.2317 10.9217 17.2185 10.9299L17.1193 11.0084C16.9706 11.1244 16.8285 11.2356 16.7046 11.3435C16.5261 11.4988 16.351 11.6623 16.1659 11.8339C16.0899 11.9042 16.0139 11.9761 15.9362 12.0464L15.4951 12.4829L15.2026 12.7886L14.73 13.3215L14.469 13.6403L14.008 14.2402L13.7898 14.5475L13.3487 15.2096L13.3007 15.2668C13.0298 15.7017 12.7736 16.1643 12.5374 16.6416L12.4927 16.7577L12.3341 17.1092L12.2879 17.1844C12.2118 17.3086 12.1474 17.4819 12.0945 17.6339L12.0813 17.6731L11.9954 17.8758C11.9524 17.9756 11.9111 18.0737 11.8731 18.175C11.8417 18.2616 11.8153 18.3483 11.7888 18.4366C11.7723 18.4905 11.7558 18.5445 11.7393 18.5968L11.6847 18.7684L11.6418 18.8354C11.4666 19.3667 11.3361 19.8506 11.2436 20.3116L11.0568 21.2663L11.0486 21.3006C10.9759 21.5932 10.9428 21.9316 10.9098 22.2912L10.9065 22.319C10.8916 22.4711 10.8834 22.6247 10.8751 22.7784C10.8701 22.8601 10.8569 23.0923 10.8569 23.0923L10.8453 23.1626C10.8222 23.3048 10.8206 23.4241 10.8437 23.5287L10.8586 23.5958L10.9693 24.5929L10.9742 24.691L11.1791 26.5938L11.194 26.7655C11.2039 26.8832 11.2138 27.0025 11.227 27.1202C11.2353 27.202 11.2485 27.2837 11.2601 27.3654L11.2832 27.5289L11.3857 28.5065C11.3857 28.5065 11.4336 29.0329 11.4501 29.211L11.5046 29.3467L11.4997 29.6279C11.4964 29.7865 11.5294 29.9957 11.5641 30.2148L11.574 30.2801L11.5922 30.4992C11.6021 30.6169 11.612 30.733 11.6236 30.8507C11.6319 30.9324 11.6451 31.0125 11.6567 31.0926L11.6814 31.2626L11.7327 31.7939V31.8479C11.736 32.0113 11.7492 32.1323 11.7723 32.2287L11.7938 32.317L11.9029 33.3453V33.4025C11.9095 33.6346 11.9342 33.8733 11.9805 34.1103L11.9904 34.1675L12.2003 36.1864L12.4448 38.4979L12.4861 38.8526L12.506 39.0766C12.5126 39.1355 12.5208 39.2254 12.5225 39.3316C12.5225 39.4526 12.5126 39.5507 12.506 39.6095L12.392 40.7636L11.2436 40.8879L10.5331 40.9582L9.83906 41.0301L9.02611 41.1086C9.02611 41.1086 8.61467 41.1429 8.47257 41.156L8.38499 41.1821L7.45802 41.2655L7.33244 41.2753C7.18373 41.2868 7.01519 41.2998 6.82847 41.2998C6.67646 41.2998 6.53436 41.2917 6.39556 41.2737L6.24024 41.2541L6.09318 41.2018C5.83706 41.1102 5.51155 40.9925 5.18769 40.762L5.04393 40.6868L4.90844 40.5609C4.85887 40.5152 4.8126 40.4678 4.77129 40.422L4.5284 40.3844L4.13679 39.5425C4.07896 39.4183 4.02113 39.294 3.96164 39.1698C3.94016 39.1256 3.91703 39.0831 3.89224 39.0406L3.81458 38.8968L3.73692 38.7219L3.29244 37.6479L3.00989 36.8795L2.93057 36.6507L2.62323 35.6764L2.34068 34.64L2.20023 33.9697L2.16223 33.9256L2.08457 33.3485C2.0697 33.2292 2.05317 33.1099 2.035 32.9922C2.02508 32.9219 2.01021 32.8516 1.99699 32.7813L1.96064 32.5884C1.96064 32.5884 1.91107 32.0195 1.89455 31.825L1.85985 31.7481L1.82019 30.6104L1.83176 29.5543L1.90446 28.5261L1.94246 28.2907C1.96229 28.1697 1.98212 28.0487 2.0003 27.9278C2.01352 27.8395 2.02343 27.7529 2.035 27.6662L2.05978 27.4668L2.16058 26.996L2.33242 26.3257L2.68933 25.2599C2.7009 25.0376 2.74055 24.812 2.80995 24.5782C2.8116 24.5651 2.84795 24.3837 2.84795 24.3837L3.01154 24.0257L3.20817 23.7429C3.6163 23.1544 4.17479 22.7555 4.83739 22.5741L4.89357 21.8335L5.01584 20.8396L5.05385 20.6091C5.08194 20.4456 5.10837 20.2822 5.13481 20.1171C5.14307 20.0647 5.14968 20.0108 5.15795 19.9569L5.17612 19.8277L5.23065 19.5351L5.4091 18.7177L5.45537 18.5706C5.46363 18.5477 5.47189 18.5248 5.47685 18.5019C5.52146 18.3254 5.56608 18.1456 5.60904 17.9658L5.67183 17.7075L5.74784 17.4802C5.78914 17.356 5.83211 17.2334 5.87176 17.1075C5.89159 17.0421 5.90977 16.9751 5.92794 16.9097L5.97751 16.7315L6.36747 15.6771L6.7409 14.7895L6.845 14.5541L7.21017 13.7939C7.21017 13.7939 7.47785 13.3101 7.55551 13.1678L7.67448 12.4714L8.00991 12.3652C8.06278 12.2802 8.11566 12.1952 8.16688 12.1085C8.2148 12.0301 8.26107 11.9516 8.30733 11.8715L8.3916 11.7276L8.47587 11.5952L9.23595 10.5081L9.84567 9.7202L10.0291 9.50278L10.7479 8.67888L10.8586 8.55628L11.0056 8.41079C11.1609 8.25712 11.3163 8.10346 11.4699 7.94816L11.9276 7.27956H12.1838C12.3705 7.11608 12.5572 6.95098 12.7439 6.7875C12.881 6.66817 13.0198 6.55047 13.1603 6.43277L13.3734 6.25295C13.3734 6.25295 13.6907 6.02082 13.7452 5.98159L13.8097 5.56473L14.0427 5.51242L14.312 5.01219L14.8259 5.21163L14.968 5.11191L15.8272 4.58389L16.693 4.10492L16.9211 3.99703C17.0665 3.92837 17.2119 3.85971 17.3556 3.78942C17.4184 3.75836 17.4762 3.72566 17.5357 3.69297L17.7076 3.59815L18.352 3.32352L19.1286 3.01619L19.3897 2.92955C19.5615 2.87234 19.7334 2.81512 19.9052 2.75627C20.0076 2.72194 20.1101 2.68434 20.2109 2.64838L20.4207 2.57482L20.8371 2.45875L21.6137 2.25768L22.4763 2.07459L23.3206 1.93237L24.1137 1.82611L24.9928 1.7362H25.2407L25.4621 1.72639C25.7958 1.70841 26.1412 1.69043 26.4997 1.69043C26.6617 1.69043 26.812 1.6937 26.9591 1.70187C27.4168 1.72476 27.8729 1.75255 28.3306 1.78034C28.4991 1.79015 28.6676 1.80486 28.8362 1.81794L29.084 1.83755L29.9449 1.95689L30.8058 2.11382L31.6237 2.30672L32.7407 2.60097L32.7952 2.64838L34.1336 3.09629L35.0804 3.48209L35.173 3.55075C35.5728 3.74528 35.9727 3.93981 36.3726 4.13271C36.3759 4.13271 36.5047 4.17848 36.5047 4.17848L36.6469 4.26022L36.6849 4.24224L37.3541 4.65909L37.44 4.71304L37.4648 4.72775L37.4681 4.73102L37.5143 4.75881L38.3025 5.25577L38.4033 5.34568C38.8494 5.67262 39.2956 5.9963 39.7401 6.31997C39.7582 6.33305 39.7781 6.34613 39.7979 6.35921L39.8954 6.42623L40.1449 6.62894L40.7827 7.18147L41.3081 7.66372L41.6386 7.98903L42.2335 8.60859L42.4367 8.83091L42.5309 8.94207C42.5788 8.99929 42.6284 9.05814 42.6779 9.11372C42.7771 9.22815 42.8779 9.34258 42.9787 9.45538L43.096 9.58779L43.3273 9.87387L43.9569 10.6994L44.0791 10.8694L44.208 11.0656C44.3237 11.2405 44.4394 11.417 44.555 11.5903C44.5782 11.6263 44.6046 11.6606 44.631 11.695L44.7219 11.8192L44.864 12.0497L45.3647 12.8997L45.5943 13.3084L45.9446 13.9983L45.9975 14.147L46.1727 14.5345C46.2569 14.7208 46.3412 14.9056 46.4238 15.0919C46.4932 15.2488 46.561 15.4058 46.6304 15.5627L46.7378 15.8096L47.1145 16.864L47.2996 17.4655L47.4367 17.9151L47.6813 18.909L47.906 19.9945L47.9159 20.1138C47.9886 20.5699 48.0795 21.1666 48.1373 21.7943C48.1406 21.8041 48.1737 21.9414 48.1737 21.9414L48.2365 22.8945C48.4926 22.9582 48.7289 23.0449 48.9519 23.156L49.0544 23.2067L49.1469 23.2737C49.4889 23.5206 49.7831 23.8148 50.0194 24.1499L50.1119 24.2807L50.4556 25.1308L50.4886 25.7258L50.6985 26.5775L50.7414 26.8243C50.7679 26.9796 50.7943 27.1349 50.8224 27.2902C50.8323 27.3442 50.8439 27.3981 50.8571 27.4537L50.8934 27.6204L51.019 28.6961L51.0851 29.6851L51.1165 30.7395L51.0851 31.6484L51.0653 31.874C51.0504 32.0375 51.0372 32.201 51.024 32.3644C51.0207 32.4053 51.0207 32.4462 51.0207 32.4854L51.0157 32.6848L50.9711 32.9562L50.8802 33.7049L50.8488 33.8586C50.8389 33.906 50.829 33.955 50.8191 34.0024C50.7927 34.1561 50.7662 34.3114 50.7414 34.4667L50.6968 34.7315L50.4688 35.7058L50.4077 35.8987L50.1135 36.8616L49.7583 37.8211L49.6211 38.1808L49.5071 38.4342L49.2527 39.003L49.1849 39.1028C49.1188 39.2008 49.0709 39.3333 49.0412 39.5065L49.0081 39.6864L48.7768 40.1768L48.6628 40.3304C48.6297 40.3762 48.595 40.4236 48.5603 40.4678C47.9622 41.2361 47.1525 41.6431 46.2189 41.6431H46.1628L46.0834 41.6464L45.9793 41.6497L45.2226 41.5614L45.2275 41.563Z" fill="#1ABDFE"/>
<path d="M26.5096 3.07672C26.6385 3.07672 26.769 3.07998 26.8979 3.08652C27.349 3.10941 27.8017 3.13557 28.2528 3.16336C28.4825 3.17807 28.7105 3.19932 28.9402 3.2173C29.2029 3.25327 29.4657 3.29086 29.73 3.32683C29.9944 3.37587 30.2605 3.42328 30.5248 3.47232C30.7743 3.53117 31.0238 3.59002 31.2717 3.64887C31.5361 3.71753 31.7988 3.78782 32.0632 3.85648C32.0698 3.86138 32.0747 3.86956 32.0813 3.87283C32.6035 4.04774 33.1273 4.22266 33.6494 4.39757L34.3913 4.7C34.4112 4.71471 34.4277 4.73106 34.4492 4.74087C34.9102 4.96482 35.3712 5.18878 35.8322 5.41274C35.8603 5.42745 35.8933 5.43399 35.9231 5.44543C36.1412 5.56967 36.3576 5.69555 36.5757 5.81979L36.5857 5.82959L36.5989 5.82305C36.6418 5.85085 36.6832 5.877 36.7261 5.90479C36.741 5.91296 36.7559 5.92114 36.7691 5.93095C36.9987 6.07644 37.2284 6.22029 37.4581 6.36578C37.4812 6.38704 37.5044 6.40992 37.5308 6.42954C37.9918 6.76629 38.4545 7.10304 38.9171 7.4398C38.9634 7.47249 39.0097 7.50355 39.0559 7.53625C39.1187 7.58692 39.1815 7.6376 39.2443 7.68991C39.4459 7.86483 39.6491 8.03974 39.8507 8.21466C40.0143 8.36505 40.1779 8.51708 40.3431 8.66748C40.4423 8.76556 40.543 8.86364 40.6422 8.96336C40.8273 9.15626 41.014 9.34916 41.199 9.54369C41.2618 9.61235 41.323 9.67937 41.3857 9.74803C41.4651 9.84121 41.5411 9.93439 41.622 10.0259C41.7559 10.1796 41.8914 10.3316 42.0269 10.4853C42.093 10.567 42.1607 10.6504 42.2268 10.7321C42.4251 10.9921 42.6234 11.2536 42.8216 11.5135C42.8563 11.5626 42.891 11.61 42.9257 11.659C43.0811 11.8944 43.2347 12.1282 43.3901 12.362C43.4429 12.4421 43.5024 12.5173 43.5586 12.5941C43.5916 12.648 43.6247 12.702 43.6577 12.7559C43.8197 13.0306 43.9816 13.3052 44.1435 13.5798C44.2162 13.7073 44.2873 13.8365 44.36 13.964C44.4591 14.1602 44.5599 14.3563 44.6591 14.5525C44.6756 14.5966 44.6888 14.644 44.7086 14.6865C44.854 15.0102 45.0028 15.3339 45.1465 15.6592C45.2456 15.8799 45.3398 16.1022 45.4357 16.3229C45.553 16.6498 45.6703 16.9768 45.786 17.3054C45.8454 17.4966 45.9033 17.6863 45.9628 17.8775C46.0041 18.0132 46.0454 18.1489 46.0867 18.2846C46.1627 18.5952 46.2404 18.9074 46.3164 19.218C46.3841 19.5466 46.4519 19.8735 46.5213 20.2021C46.5246 20.2348 46.5246 20.2675 46.5295 20.2986C46.6221 20.8691 46.703 21.4396 46.7526 22.015C46.7575 22.0624 46.7741 22.1098 46.7856 22.1572C46.8038 22.4351 46.822 22.713 46.8402 22.9909C46.8468 23.3179 46.8534 23.6448 46.86 23.9718C46.8451 24.0192 46.8352 24.065 46.8831 24.1156C47.1045 24.1581 47.3392 24.1827 47.5755 24.1876C47.8365 24.2219 48.0893 24.2857 48.3273 24.4034C48.5404 24.557 48.7239 24.7385 48.8742 24.9526C48.9403 25.1161 49.0064 25.2796 49.0725 25.443C49.0824 25.6081 49.0907 25.7733 49.1006 25.9384C49.1766 26.249 49.2526 26.5579 49.3286 26.8685C49.3666 27.0925 49.4046 27.3181 49.4459 27.542C49.4641 27.645 49.4889 27.748 49.5104 27.851C49.5484 28.1779 49.5864 28.5032 49.6244 28.8302C49.6459 29.1391 49.6657 29.4497 49.6872 29.7587C49.6971 30.0857 49.707 30.4142 49.7153 30.7412C49.7053 31.0191 49.6954 31.2954 49.6855 31.5733C49.6657 31.8054 49.6442 32.0359 49.6277 32.268C49.6211 32.3645 49.6211 32.4593 49.6178 32.5557C49.6012 32.6538 49.5847 32.7519 49.5682 32.85C49.5385 32.881 49.5335 32.9137 49.5599 32.9481C49.5385 33.1295 49.517 33.3093 49.4938 33.4908C49.474 33.5856 49.4525 33.6804 49.436 33.7752C49.3964 34.0057 49.3584 34.2379 49.3204 34.4684C49.2526 34.7626 49.1832 35.0552 49.1155 35.3495C49.1006 35.3985 49.0841 35.4476 49.0692 35.4982C48.975 35.8088 48.8792 36.1194 48.785 36.4284C48.671 36.7357 48.557 37.043 48.4446 37.3504C48.4049 37.4534 48.3669 37.5547 48.3273 37.6577C48.3124 37.6904 48.2975 37.7231 48.2827 37.7558C48.1951 37.9503 48.1075 38.1465 48.0216 38.341C47.8299 38.6238 47.7225 38.9393 47.663 39.2728C47.6316 39.3398 47.6003 39.4069 47.5672 39.4755C47.5292 39.5278 47.4912 39.5801 47.4515 39.6308C47.1392 40.0313 46.741 40.2618 46.2222 40.2618C46.2123 40.2618 46.2024 40.2618 46.1908 40.2618C46.1858 40.2618 46.1809 40.2618 46.1743 40.2618C46.1313 40.2618 46.0867 40.2651 46.0437 40.2667C45.8141 40.2389 45.586 40.2128 45.3564 40.185C45.32 40.1817 45.2837 40.1801 45.2473 40.1768C45.1498 40.1703 45.0507 40.1621 44.9532 40.1556C44.8904 40.1212 44.8243 40.1131 44.7565 40.1131C44.7235 40.1131 44.6888 40.1147 44.6541 40.1163C44.5897 40.1082 44.5269 40.1016 44.4624 40.0934C44.2129 40.0673 43.9634 40.0411 43.7123 40.0133C43.4479 39.9823 43.1819 39.9529 42.9175 39.9218C42.6729 39.8956 42.4267 39.8679 42.1822 39.8417C42.1458 39.827 42.1078 39.8106 42.0665 39.7943C42.0781 39.621 42.088 39.4526 42.0979 39.2826C42.1045 39.2597 42.1144 39.2369 42.1177 39.2123C42.1524 38.8805 42.1871 38.547 42.2169 38.2151C42.2417 37.9471 42.2582 37.679 42.2797 37.4109C42.3359 37.0856 42.3739 36.7586 42.3755 36.4284C42.4383 36.1047 42.4697 35.7761 42.473 35.4476C42.5341 35.1239 42.5639 34.7953 42.5721 34.4667C42.6035 34.1561 42.6349 33.8455 42.6663 33.5349C42.6994 33.208 42.7308 32.8794 42.7638 32.5525C42.7969 32.2255 42.8299 31.9002 42.8629 31.5733C42.8745 31.5013 42.891 31.431 42.8977 31.3591C42.9191 31.1025 42.939 30.8458 42.9588 30.5908C42.9753 30.4289 42.9918 30.2655 43.0084 30.1036C43.0183 30.0072 43.0265 29.9107 43.0364 29.8143C43.0695 29.4873 43.1042 29.1588 43.1372 28.8318C43.1686 28.5049 43.2 28.1779 43.2314 27.851C43.286 27.5257 43.3256 27.1971 43.3273 26.8669C43.3834 26.5579 43.4198 26.2473 43.4198 25.9335C43.4809 25.6098 43.5156 25.2828 43.5189 24.9526C43.5801 24.6289 43.6115 24.302 43.6181 23.9718C43.6313 23.9015 43.6561 23.8296 43.6528 23.7593C43.6445 23.5353 43.628 23.313 43.6131 23.089C43.6296 22.7572 43.5834 22.4302 43.5421 22.1017C43.5173 21.7911 43.4892 21.4805 43.4132 21.1764C43.3967 21.0554 43.3884 20.9328 43.3636 20.8135C43.3223 20.6059 43.2727 20.4015 43.2248 20.1956C43.2066 20.0909 43.1967 19.9863 43.1703 19.8833C43.0976 19.5924 43.048 19.2932 42.9224 19.0169C42.8844 18.757 42.7936 18.5134 42.701 18.2699C42.6002 17.938 42.4928 17.6094 42.3359 17.2988C42.283 17.1697 42.2318 17.0389 42.1789 16.9098C42.0897 16.712 42.0004 16.5142 41.9112 16.3164C41.7873 16.0303 41.66 15.7475 41.4849 15.4876C41.4386 15.4042 41.3924 15.3224 41.3461 15.2391C41.2238 14.9612 41.0652 14.7045 40.8867 14.4593C40.7892 14.3089 40.6918 14.1585 40.5959 14.0081C40.4819 13.8103 40.3613 13.6191 40.2027 13.454C40.1101 13.279 39.9879 13.1254 39.8507 12.9815C39.7351 12.836 39.6177 12.6905 39.5021 12.545C39.3567 12.3767 39.2096 12.2083 39.0642 12.0399C38.9138 11.8813 38.7651 11.7211 38.6147 11.5609C38.5288 11.4759 38.4429 11.3893 38.3553 11.3043C38.3372 11.2896 38.314 11.2781 38.3008 11.2602C38.1339 11.0248 37.8993 10.8547 37.6911 10.6602C37.6663 10.6357 37.6184 10.6357 37.5804 10.6242C37.5457 10.5915 37.5093 10.5572 37.4746 10.5245C37.468 10.5016 37.4713 10.4689 37.4565 10.4559C37.2152 10.263 36.9723 10.0717 36.7294 9.88044C36.6237 9.80198 36.5179 9.72351 36.4122 9.64504C36.275 9.54533 36.1362 9.44397 35.9991 9.34425C35.7446 9.14482 35.4753 8.96827 35.1861 8.81951C35.0705 8.75248 34.9564 8.68546 34.8408 8.61844C34.7102 8.50564 34.5582 8.42881 34.3979 8.36832C34.1716 8.25226 33.9452 8.13619 33.7188 8.02013C33.699 8.00541 33.6825 7.98907 33.661 7.97762C33.1934 7.75857 32.7208 7.55423 32.2334 7.38095C32.1805 7.36133 32.1243 7.34989 32.0681 7.33518C31.8137 7.21911 31.5476 7.13574 31.2766 7.07199C31.0271 7.00333 30.776 6.93467 30.5265 6.86764C30.2158 6.79735 29.9068 6.72052 29.5962 6.65677C29.3963 6.6159 29.193 6.59465 28.9914 6.56522C28.7304 6.50637 28.466 6.46877 28.1967 6.46714C28.0479 6.44916 27.8992 6.43117 27.7505 6.41319C27.7175 6.41319 27.6844 6.40992 27.6514 6.40829C27.5688 6.40829 27.4861 6.40829 27.4035 6.40829C27.2416 6.37723 27.0797 6.36742 26.9177 6.36742C26.8153 6.36742 26.7128 6.37069 26.6087 6.37559C26.4898 6.37069 26.3725 6.36578 26.2535 6.36578C26.123 6.36578 25.9908 6.37232 25.8602 6.39684C25.6752 6.40175 25.4901 6.40502 25.3067 6.41483C25.2274 6.4181 25.1497 6.43608 25.0704 6.44752C25.0621 6.44752 25.0539 6.44752 25.0456 6.44752C24.8011 6.44752 24.5598 6.48185 24.3186 6.52599C24.1087 6.55541 23.8972 6.57503 23.6907 6.61426C23.3718 6.67475 23.0545 6.74994 22.7356 6.8186C22.4646 6.86601 22.1986 6.93303 21.9408 7.02948C21.6649 7.0867 21.3972 7.17334 21.1395 7.28287C20.8982 7.37114 20.657 7.45942 20.4141 7.54933C20.2984 7.59673 20.1827 7.64577 20.0671 7.69318C19.9332 7.75367 19.7977 7.81252 19.6639 7.873C19.3863 7.97599 19.1219 8.10513 18.8708 8.26043C18.6874 8.35851 18.504 8.45823 18.3205 8.55632C18.2181 8.56776 18.152 8.64132 18.076 8.70017C17.7951 8.83912 17.5324 9.00914 17.2812 9.19713C17.0945 9.32791 16.9061 9.45868 16.7194 9.58946C16.6583 9.63524 16.5955 9.67937 16.5343 9.72515C16.493 9.74967 16.4484 9.77092 16.4104 9.80034C16.1973 9.96872 15.9808 10.1322 15.7776 10.3087C15.5016 10.5507 15.2356 10.8041 14.9646 11.0525C14.8076 11.2078 14.649 11.3648 14.492 11.5201L14.1682 11.8585C13.9996 12.0497 13.8294 12.241 13.6609 12.4306C13.5634 12.55 13.4659 12.6677 13.3684 12.787C13.2049 12.9995 13.0413 13.2136 12.8777 13.4262C12.7967 13.5406 12.7141 13.6567 12.6331 13.7711C12.496 13.9771 12.3588 14.183 12.2217 14.389C12.2019 14.4135 12.1771 14.4364 12.1606 14.4626C11.8334 14.9808 11.536 15.517 11.2666 16.0662C11.2419 16.1169 11.2237 16.1709 11.2039 16.2232C11.1675 16.3049 11.1311 16.385 11.0931 16.4668C10.9527 16.694 10.8569 16.9392 10.7693 17.1893C10.6982 17.3609 10.6222 17.5293 10.5578 17.7026C10.4999 17.8595 10.4537 18.023 10.4025 18.1832C10.3892 18.2045 10.3711 18.2225 10.3645 18.2453C10.1629 18.8371 9.98937 19.4371 9.8671 20.0501C9.80596 20.359 9.74648 20.6664 9.68534 20.9753C9.5862 21.3758 9.54819 21.7862 9.50854 22.1948C9.4854 22.4433 9.47549 22.6934 9.46062 22.9435C9.41105 23.2378 9.40774 23.532 9.47053 23.8247C9.50358 24.1205 9.53663 24.4148 9.56967 24.7107C9.56967 24.7417 9.57298 24.7744 9.57463 24.8055C9.60768 25.1177 9.64238 25.43 9.67542 25.7406C9.71012 26.0691 9.74648 26.3961 9.78117 26.7247C9.7977 26.9094 9.81092 27.0941 9.83074 27.2772C9.84562 27.4211 9.86875 27.5633 9.88858 27.7055C9.92162 28.0161 9.95467 28.3283 9.98772 28.6389C10.0158 28.9413 10.0422 29.2438 10.0703 29.5478C10.072 29.5707 10.0869 29.592 10.0968 29.6149C10.0918 29.8993 10.1364 30.1772 10.181 30.4567C10.1976 30.6398 10.2108 30.8246 10.2306 31.0076C10.2455 31.1499 10.2686 31.2921 10.2884 31.4343C10.3033 31.5831 10.3182 31.7335 10.3314 31.8822C10.3364 32.1111 10.3545 32.3367 10.4091 32.559C10.4405 32.8532 10.4719 33.1459 10.5033 33.4401C10.5099 33.754 10.5446 34.0646 10.6024 34.3735C10.6371 34.7005 10.6701 35.0258 10.7048 35.3527C10.7395 35.6797 10.7726 36.0083 10.8073 36.3352C10.8403 36.654 10.875 36.9728 10.9081 37.2915C10.9428 37.6103 10.9758 37.9291 11.0105 38.2495C11.0254 38.3835 11.0386 38.5159 11.0535 38.65C11.0667 38.7611 11.0799 38.8723 11.0915 38.9818C11.0964 39.0423 11.1031 39.1044 11.108 39.1649C11.113 39.227 11.1212 39.2892 11.1229 39.3513C11.1229 39.4052 11.1146 39.4575 11.1097 39.5115C10.8734 39.5344 10.6354 39.5589 10.3992 39.5818C10.1662 39.6063 9.93154 39.6292 9.69856 39.6537C9.43583 39.6799 9.17311 39.7044 8.91204 39.7305C8.67905 39.7502 8.44607 39.7698 8.21309 39.791C8.1817 39.7943 8.15195 39.809 8.12056 39.8172C7.87105 39.8401 7.62155 39.8629 7.37039 39.8842C7.19194 39.8956 7.01348 39.9136 6.83503 39.9136C6.75076 39.9136 6.66649 39.9104 6.58056 39.8989C6.36245 39.8204 6.14434 39.7436 5.96093 39.5949C5.9378 39.5752 5.9064 39.5654 5.87831 39.5507C5.76926 39.4494 5.69325 39.3235 5.60733 39.2058C5.57759 39.1649 5.54619 39.1355 5.49662 39.1273C5.4107 38.9426 5.32643 38.7579 5.23885 38.5748C5.19424 38.48 5.14136 38.3884 5.09179 38.2969C5.07692 38.2642 5.06205 38.2299 5.04718 38.1972C4.90177 37.8473 4.75802 37.4975 4.61261 37.1493C4.52504 36.9106 4.43581 36.672 4.34823 36.4317C4.32675 36.3679 4.30362 36.3025 4.28214 36.2388C4.183 35.9233 4.08386 35.6061 3.98306 35.2906C3.89549 34.9669 3.80626 34.6433 3.71869 34.3196C3.66416 34.0597 3.60963 33.7981 3.5551 33.5382C3.56171 33.4679 3.56171 33.3992 3.51214 33.342C3.48736 33.1573 3.46422 32.9726 3.43779 32.7879C3.41796 32.6603 3.39152 32.5345 3.36839 32.407C3.34195 32.0964 3.31551 31.7841 3.28742 31.4735C3.28742 31.4588 3.2742 31.4441 3.2676 31.4294C3.25768 31.1515 3.24777 30.8736 3.23785 30.5957C3.24116 30.2671 3.24446 29.9402 3.24942 29.6116C3.2709 29.301 3.29238 28.9904 3.31551 28.6798C3.34526 28.4967 3.37665 28.3136 3.40474 28.1305C3.42622 27.9867 3.44274 27.8428 3.46092 27.699C3.48901 27.5698 3.5171 27.4407 3.54519 27.3115C3.59641 27.1121 3.64598 26.9143 3.69721 26.7149C3.80626 26.3895 3.91532 26.0659 4.02437 25.7406C4.10038 25.6572 4.1136 25.5558 4.10864 25.4479C4.09873 25.2681 4.13343 25.0948 4.18796 24.9248C4.19952 24.8872 4.20448 24.8464 4.21109 24.8071C4.22596 24.7744 4.24083 24.7401 4.25735 24.7074C4.29866 24.6486 4.33997 24.5881 4.38128 24.5292C4.6407 24.1549 4.9943 23.926 5.45366 23.8655C5.56767 23.8508 5.68003 23.8312 5.79404 23.8132C5.81718 23.8148 5.84196 23.8165 5.8651 23.8165C5.98076 23.8165 6.09147 23.7903 6.20383 23.7691C6.21209 23.7397 6.22366 23.7168 6.22366 23.6939C6.22861 23.4438 6.23027 23.1937 6.23357 22.9419C6.25836 22.6166 6.28314 22.2929 6.30793 21.9676C6.34593 21.657 6.38393 21.3464 6.42359 21.0358C6.46325 20.802 6.5029 20.5699 6.54091 20.3362C6.55578 20.2397 6.56735 20.1433 6.58056 20.0468C6.59544 19.9667 6.61031 19.8882 6.62518 19.8081C6.67971 19.5613 6.73258 19.3144 6.78711 19.0676C6.81024 18.9908 6.83833 18.9156 6.85816 18.8387C6.92095 18.5886 6.98209 18.3385 7.04322 18.0884C7.10601 17.9004 7.17211 17.7124 7.23159 17.5228C7.2696 17.4018 7.30099 17.2776 7.33569 17.155C7.35882 17.0912 7.38361 17.0275 7.40674 16.9637C7.50258 16.7022 7.60007 16.4422 7.6959 16.1807C7.81322 15.9011 7.93054 15.6232 8.04786 15.3437C8.0776 15.2783 8.10569 15.2129 8.13543 15.1475C8.25109 14.9056 8.36676 14.6653 8.48242 14.4233C8.62783 14.1585 8.77489 13.8921 8.9203 13.6256C8.93517 13.5994 8.93186 13.5635 8.93682 13.5324C8.9897 13.5161 9.01448 13.4785 9.01779 13.4245C9.14171 13.2235 9.26729 13.024 9.38957 12.8213C9.46557 12.6971 9.53828 12.5696 9.61263 12.4437C9.63081 12.4143 9.64899 12.3865 9.66716 12.3571C9.87536 12.0579 10.0852 11.7587 10.2934 11.4596C10.3248 11.4155 10.3562 11.3713 10.3876 11.3255C10.5793 11.0787 10.7709 10.8319 10.9626 10.585C11.0122 10.5262 11.0617 10.4673 11.1113 10.4085C11.3443 10.1404 11.5773 9.87391 11.8103 9.60581C11.84 9.57475 11.8681 9.54206 11.8978 9.511C12.154 9.25761 12.4101 9.0026 12.6645 8.74758C12.6794 8.73287 12.6778 8.70344 12.6844 8.68056L12.6893 8.67402C12.6893 8.67402 12.6893 8.67402 12.691 8.67402C12.7653 8.67402 12.8017 8.6168 12.8496 8.5743C13.1305 8.32582 13.4097 8.07571 13.6923 7.82886C13.8823 7.66376 14.0756 7.50192 14.269 7.34008C14.4887 7.17988 14.7085 7.01967 14.9266 6.8562C14.9547 6.83495 14.9646 6.79081 14.9811 6.75812C14.996 6.76302 15.0092 6.76629 15.0208 6.76629C15.0489 6.76629 15.0671 6.74831 15.0737 6.70908C15.1051 6.70254 15.1414 6.70417 15.1662 6.68783C15.3661 6.55051 15.5644 6.41156 15.7643 6.2726C16.0304 6.10913 16.2948 5.94566 16.5608 5.78382C16.8268 5.6367 17.0928 5.48794 17.3605 5.34081C17.5737 5.23946 17.7885 5.13974 18 5.03512C18.1156 4.9779 18.228 4.91251 18.342 4.85203C18.5254 4.77356 18.7088 4.69509 18.8923 4.61826C19.1385 4.52018 19.3863 4.42209 19.6325 4.32401C19.882 4.24064 20.1315 4.1589 20.3794 4.0739C20.543 4.01832 20.7032 3.95947 20.8668 3.90225C20.9825 3.86956 21.0965 3.8385 21.2122 3.8058C21.46 3.74041 21.7095 3.67666 21.9574 3.61127C22.2251 3.55406 22.4911 3.49684 22.7588 3.44126C23.0231 3.39712 23.2859 3.35135 23.5502 3.30721C23.7997 3.27452 24.0493 3.24019 24.2971 3.20749C24.5582 3.18134 24.8193 3.15355 25.0803 3.12739C25.1332 3.12739 25.1877 3.12903 25.2406 3.12903C25.2687 3.12903 25.2984 3.12903 25.3265 3.12739C25.7231 3.10778 26.1196 3.08162 26.5162 3.08162M26.5162 0.302586C26.1213 0.302586 25.7578 0.322203 25.4058 0.340185L25.2224 0.349993H25.2026C25.1629 0.349993 25.1249 0.349993 25.0853 0.349993H24.9382L24.7912 0.364705L24.421 0.402304L24.0079 0.444807L23.9633 0.449711L23.9187 0.45625L23.5717 0.502022L23.1702 0.555968L23.1223 0.562507L23.0744 0.570681L22.2829 0.704728L22.2234 0.714537L22.1656 0.727615L21.3642 0.897626L21.3014 0.910704L21.2402 0.927051L20.8668 1.0235L20.4934 1.11995L20.4686 1.12649L20.4438 1.13303L20.381 1.15101L20.0985 1.22948L20.0076 1.25563L19.9184 1.28669L19.7597 1.34227C19.6606 1.37824 19.5615 1.41256 19.4623 1.44689C19.2938 1.50411 19.1252 1.55969 18.955 1.61691L18.7303 1.6921L18.656 1.71662L18.5833 1.74441L18.2131 1.89154L17.843 2.03866L17.81 2.05174L17.7769 2.06645L17.2267 2.30022L17.1061 2.3509L16.9904 2.41302C16.9474 2.4359 16.9045 2.46042 16.8615 2.48331C16.8202 2.5062 16.764 2.53726 16.7442 2.54706C16.6087 2.61409 16.4716 2.67948 16.3328 2.74323L16.1361 2.83641L16.0568 2.87401L15.9808 2.91651L15.4256 3.22384L15.1811 3.35952L15.1249 3.39058L15.0704 3.42328L14.6854 3.66031L13.6725 3.26471L13.1189 4.29459L12.5819 4.41392L12.458 5.2133L12.4365 5.23292L12.2663 5.37677C12.1209 5.49938 11.9738 5.62198 11.8301 5.74786C11.7805 5.792 11.7293 5.8345 11.6797 5.87864L11.2187 5.87046L10.3959 7.06218C10.2785 7.17824 10.1612 7.29431 10.0439 7.41201L9.9018 7.5526L9.85223 7.60164L9.80596 7.65231L9.74648 7.7177L9.71838 7.74876L9.69856 7.77165L9.67873 7.79453L9.32843 8.19504L8.97813 8.59555L8.96161 8.61353L8.94674 8.63151L8.79802 8.80806L8.76167 8.85057L8.72697 8.8947L8.15195 9.63524L8.11395 9.68428L8.0776 9.73495L8.02968 9.80198L7.98341 9.869L7.98011 9.87391L7.9768 9.87881L7.35056 10.7763L7.31751 10.8237L7.28612 10.8727L7.25803 10.9152L7.22994 10.9594L7.20185 11.0035L7.17541 11.0476L7.10106 11.1751C7.10106 11.1751 7.09279 11.1899 7.08949 11.1964L6.44838 11.4007L6.22366 12.702C6.184 12.7739 6.146 12.8442 6.10634 12.9161L6.00885 13.0927L5.97085 13.1597L5.9378 13.23L5.5908 13.9542L5.57263 13.9918L5.55611 14.0294L5.51314 14.1275L5.47018 14.2255L5.46027 14.2501L5.45035 14.2746L5.27355 14.6931L5.09675 15.1116L5.07362 15.1671L5.05214 15.2244L4.90673 15.6151L4.76132 16.0058L4.72662 16.0973L4.69027 16.1938L4.65062 16.3L4.61922 16.4095C4.606 16.4553 4.59444 16.5011 4.58122 16.5469C4.56635 16.5992 4.55147 16.6597 4.54156 16.6858C4.50521 16.8019 4.46555 16.9179 4.42589 17.034L4.36641 17.2106L4.33006 17.3184L4.30362 17.428L4.2524 17.6405C4.21274 17.8023 4.17308 17.9625 4.13343 18.1227L4.12847 18.1391C4.1169 18.175 4.10534 18.211 4.09377 18.2486L4.05907 18.3614L4.03429 18.4758L3.94341 18.8911L3.87236 19.2164L3.86409 19.2572L3.85583 19.2981L3.81122 19.5368L3.79965 19.6005L3.79139 19.6659L3.77652 19.7722C3.77156 19.8114 3.76661 19.8523 3.76 19.8915C3.73356 20.0533 3.70712 20.2135 3.67903 20.3754L3.64433 20.5781L3.63442 20.6353L3.62781 20.6942L3.56998 21.1601L3.51214 21.6227C2.94208 21.9415 2.44803 22.391 2.05972 22.9501L1.96884 23.0809L1.93249 23.1332L1.79204 23.3359L1.6896 23.5598L1.66646 23.6105L1.64333 23.6595L1.50949 23.9522L1.45001 24.2513C1.38061 24.4965 1.33434 24.7385 1.30956 24.9788L1.02205 25.8321L0.988999 25.9285L0.964213 26.0266L0.812197 26.6233L0.798978 26.6723L0.787411 26.723L0.774193 26.7802L0.703141 27.1088L0.678356 27.2249L0.663485 27.3426L0.645309 27.4897C0.635395 27.5649 0.627133 27.6401 0.615567 27.7153C0.599043 27.8281 0.579215 27.9409 0.561039 28.0521L0.532949 28.2253L0.513121 28.3496L0.504859 28.4755L0.438765 29.4072L0.433808 29.4873V29.5691L0.427198 30.0611L0.422241 30.5532V30.6169V30.6807L0.437112 31.0976L0.451984 31.5144L0.471812 32.0653L0.521382 32.1748C0.529644 32.2778 0.539558 32.3808 0.54782 32.4822L0.561039 32.6326L0.572605 32.765L0.597391 32.8957C0.605652 32.9415 0.615567 32.9889 0.623828 33.0347C0.633743 33.0854 0.643657 33.1377 0.651918 33.19C0.668442 33.3012 0.683313 33.4123 0.698184 33.5235L0.713056 33.6428L0.709751 33.6755L0.731231 33.7769L0.82872 34.506L0.901424 34.591L0.937776 34.761L0.962561 34.8754L0.979084 34.9539L1.00057 35.0323L1.26494 36.0034L1.27981 36.0557L1.29634 36.108L1.59541 37.0561L1.60698 37.0921L1.61855 37.1281L1.65159 37.2245L1.68464 37.3209L1.69455 37.3487L1.70447 37.3765L1.83666 37.7345L1.96884 38.0925L1.98702 38.1432L2.00685 38.1923L2.43977 39.2401L2.45298 39.2728L2.4662 39.3039L2.48768 39.3529L2.50916 39.4036L2.54882 39.4935L2.59509 39.5801C2.61492 39.6177 2.63474 39.6537 2.65457 39.6913C2.66779 39.7158 2.68266 39.7403 2.69423 39.7665C2.7471 39.8777 2.80163 39.9954 2.85616 40.1131L2.93382 40.2814L3.56502 41.6366L4.10864 41.72L4.21439 41.8181L4.44738 41.9423C4.89847 42.2464 5.32147 42.4 5.59411 42.4981L5.61063 42.5047L5.90475 42.6109L6.21539 42.6502C6.41368 42.6747 6.61196 42.6878 6.82346 42.6878C7.06305 42.6878 7.2696 42.6714 7.43483 42.66C7.47284 42.6567 7.50919 42.6551 7.54719 42.6518H7.58024L7.61329 42.6469L8.36345 42.5799L8.65096 42.5537L8.73689 42.5275C8.8162 42.521 8.89386 42.5145 8.97317 42.5079L9.14171 42.4932H9.15824L9.17476 42.49L9.89188 42.4197L9.96293 42.4131H9.9712H9.97946L10.6734 42.3412L11.3195 42.2774L11.379 42.2709L13.6956 42.042L13.8972 39.7632C13.9054 39.6848 13.9236 39.5229 13.922 39.3186C13.922 39.1502 13.9071 39.0113 13.8988 38.9377V38.9213L13.8972 38.9132L13.8889 38.82L13.8807 38.7285L13.8774 38.6941L13.8741 38.6598L13.8361 38.3394L13.8162 38.153L13.7947 37.952L13.7865 37.8702L13.6939 36.9956L13.6444 36.5183L13.5932 36.0393L13.4907 35.0601L13.3883 34.0809L13.3767 33.9665L13.3552 33.8537C13.3238 33.6902 13.3073 33.5268 13.3023 33.3698L13.299 33.2554L13.2875 33.141L13.2412 32.6996L13.1949 32.2598L13.1751 32.08L13.1371 31.9231C13.1371 31.91 13.1338 31.879 13.1321 31.8217V31.7138L13.1206 31.6076L13.0991 31.3836L13.0776 31.1597L13.0727 31.1025L13.0644 31.0452C13.0578 30.9946 13.0495 30.9439 13.0429 30.8932C13.0314 30.8196 13.0214 30.751 13.0165 30.7069C13.0049 30.6022 12.9967 30.496 12.9884 30.3913C12.9834 30.3325 12.9785 30.272 12.9735 30.2132L12.9653 30.12L12.9504 30.0268L12.9471 30.0072C12.9273 29.8813 12.9008 29.7097 12.8992 29.6508L12.9091 29.0901L12.8248 28.8841C12.8149 28.7811 12.8066 28.6782 12.7967 28.5768L12.7802 28.3904V28.3692L12.7752 28.3479L12.6761 27.4145L12.6711 27.3704L12.6645 27.3262C12.6579 27.2756 12.6497 27.2249 12.6431 27.1742C12.6331 27.1088 12.6232 27.0434 12.6166 26.978C12.605 26.8702 12.5968 26.7623 12.5869 26.6544L12.572 26.4762V26.4517L12.567 26.4271L12.5142 25.9351L12.4613 25.443L12.4101 24.9722L12.3688 24.5881V24.5766L12.3638 24.4884L12.3539 24.4017L12.3043 23.9587L12.2547 23.5157L12.2399 23.3784L12.2333 23.344L12.2481 23.2558L12.2581 23.1086C12.263 23.0236 12.268 22.9386 12.2729 22.8536C12.2812 22.7065 12.2878 22.5659 12.2994 22.4515L12.3027 22.4237C12.3324 22.1164 12.3588 21.827 12.4068 21.6341L12.4233 21.5671L12.4365 21.5001L12.6183 20.5765C12.6893 20.2185 12.7885 19.8408 12.919 19.4305L12.9636 19.3602L13.0743 19.0169C13.0925 18.9581 13.1107 18.8992 13.1288 18.8404C13.152 18.7668 13.1751 18.69 13.1883 18.654C13.2098 18.5935 13.2478 18.5085 13.2858 18.417C13.3106 18.3581 13.337 18.2976 13.3602 18.2388L13.3916 18.162L13.418 18.0835C13.461 17.9609 13.4824 17.9119 13.4907 17.8939L13.575 17.7566L13.6477 17.5963L13.7584 17.3528L13.7848 17.2956L13.808 17.2367C13.8146 17.222 13.8195 17.2057 13.8261 17.1909C14.0195 16.8035 14.226 16.4292 14.4441 16.0728L14.4755 16.0336L14.5581 15.9109L14.9464 15.3274L15.1381 15.0576L15.3529 14.7781L15.5694 14.4969L15.685 14.3563L15.8007 14.2174L16.0205 13.9689L16.2369 13.7253L16.498 13.454L16.7078 13.2463L16.9078 13.0485C16.9805 12.9832 17.0515 12.9161 17.1226 12.8491C17.301 12.684 17.4696 12.5271 17.6315 12.3865C17.7273 12.3031 17.8546 12.2034 17.9901 12.0988C17.9983 12.0922 18.0082 12.0841 18.0165 12.0775L18.0925 12.0317L18.195 11.9565L18.3585 11.8372L18.6163 11.6574L18.8972 11.4612L18.9385 11.4318L18.9782 11.4007C19.1071 11.3027 19.2227 11.2307 19.3301 11.1768L19.5829 11.0509L19.6722 10.9822L20.2059 10.6945L20.2802 10.6537L20.3529 10.6095C20.4422 10.554 20.5397 10.5065 20.652 10.4657L20.7313 10.4363L20.809 10.4019L21.0106 10.312L21.1791 10.2368L21.3642 10.16L21.4385 10.1289L22.1094 9.88208L22.1738 9.85919L22.2366 9.83304C22.3358 9.79217 22.425 9.76274 22.5109 9.74476L22.7274 9.70062L22.9339 9.62216C23.0066 9.59437 23.1041 9.56985 23.2247 9.5486L23.2759 9.53879L23.3272 9.52734C23.4263 9.50609 23.5255 9.48321 23.6262 9.46196C23.8344 9.41618 24.0327 9.37204 24.2161 9.33772C24.269 9.32791 24.3715 9.31483 24.4689 9.30175C24.5466 9.29194 24.6226 9.28214 24.7003 9.27233L24.7598 9.26415L24.8193 9.25271C24.9795 9.22328 25.0324 9.22165 25.0407 9.22002H25.2571L25.467 9.19059C25.4934 9.18732 25.5182 9.18242 25.5446 9.17915C25.619 9.17588 25.6917 9.17424 25.766 9.17261L25.9362 9.1677L26.156 9.16117L26.2816 9.13828C26.3229 9.13828 26.3708 9.14155 26.422 9.14318L26.4931 9.14645L26.6005 9.15136L26.7079 9.14809C26.7872 9.14482 26.8583 9.14318 26.9095 9.14318C26.9095 9.14318 26.9111 9.14318 26.9128 9.14318L27.1259 9.18569H27.4068L27.5308 9.18405H27.5357L27.848 9.22165L28.0066 9.24127H28.1653C28.1901 9.24127 28.2479 9.24617 28.3569 9.27069L28.4594 9.29358L28.5635 9.30829C28.6378 9.31973 28.7138 9.32954 28.7882 9.33935C28.8758 9.35079 28.9749 9.36387 29.0212 9.37368C29.1996 9.40964 29.3913 9.45542 29.5946 9.50282C29.6722 9.52081 29.7482 9.53879 29.8259 9.55677L30.5199 9.7464L30.5645 9.75784L30.6091 9.76765C30.7595 9.80361 30.8421 9.83467 30.885 9.85429L31.0932 9.9491L31.3147 10.0096C31.3295 10.0145 31.346 10.0178 31.3626 10.0227C31.6154 10.1142 31.8913 10.2286 32.2119 10.3741L32.2201 10.3807L32.4201 10.4837L32.7605 10.6569L33.1008 10.8302L33.1719 10.8662L33.1802 10.8727L33.4082 11.0068L33.542 11.0852L33.7535 11.2095L33.818 11.2471L33.8841 11.2814C34.003 11.3435 34.1237 11.422 34.2525 11.5217L34.2889 11.5511L34.3269 11.5789L34.3963 11.6296L34.7317 11.8732L35.006 12.0759L35.1052 12.1543C35.1564 12.1952 35.2093 12.2361 35.2605 12.277L35.5298 12.532L35.5827 12.5826L35.6356 12.6317L36.1048 13.0747L36.1924 13.1025C36.2783 13.1989 36.3709 13.2888 36.47 13.3739L36.5824 13.485L36.9607 13.8888L37.3259 14.3089L37.4647 14.4822L37.6399 14.7013L37.7208 14.8026L37.7671 14.85L37.8894 15.0805L38.1108 15.311C38.119 15.3257 38.1323 15.347 38.1504 15.3764L38.1868 15.4385L38.2264 15.499L38.3719 15.7246L38.5173 15.9502L38.5569 16.0123L38.5999 16.0728C38.7007 16.2101 38.7453 16.2951 38.7651 16.3409L38.8163 16.4586L38.8791 16.5714L39.0179 16.8199L39.0758 16.9245L39.1435 17.0242C39.1881 17.0896 39.2856 17.3152 39.322 17.4002L39.3302 17.4198L39.3385 17.4394L39.4013 17.58L39.583 17.9838L39.7202 18.3222L39.7631 18.4284L39.8144 18.5314C39.8821 18.6671 39.9631 18.9287 40.006 19.0692L40.0325 19.1542L40.0639 19.2376C40.092 19.3095 40.1267 19.4027 40.1432 19.4534L40.1911 19.7885L40.3315 20.0991C40.3431 20.1433 40.3613 20.2234 40.3762 20.2855C40.391 20.3525 40.4076 20.4195 40.4241 20.4865V20.4996C40.434 20.5503 40.4423 20.6026 40.4505 20.6533L40.4621 20.7252L40.4786 20.7971C40.4935 20.8625 40.5084 20.9279 40.5232 20.9933C40.5497 21.1094 40.5761 21.2205 40.5959 21.3186C40.5976 21.3366 40.5992 21.353 40.6025 21.3709C40.6091 21.4232 40.6141 21.4772 40.6224 21.5295L40.6422 21.6848L40.6802 21.8368C40.7066 21.9431 40.7248 22.1785 40.7364 22.3191L40.7413 22.3812L40.7496 22.4417L40.7595 22.5267C40.7777 22.6771 40.8041 22.8814 40.8025 22.9517L40.7942 23.1054L40.8041 23.2574C40.8091 23.3244 40.8124 23.3915 40.8173 23.4568C40.8206 23.5042 40.8239 23.55 40.8273 23.5958L40.8091 23.7004L40.8041 23.9129C40.8008 24.1058 40.7843 24.2775 40.7529 24.436L40.7066 24.678V24.9248C40.7033 25.085 40.6868 25.2501 40.6538 25.4169L40.6042 25.6768V25.9416C40.6042 26.0544 40.5893 26.195 40.5579 26.3732L40.515 26.6086V26.8473C40.5117 26.9895 40.4935 27.1677 40.4555 27.3916L40.439 27.4881L40.429 27.5862L40.3415 28.4885L40.3349 28.5588L40.2357 29.5331V29.5429L40.2341 29.5527L40.2076 29.8355L40.1597 30.3162L40.1564 30.3456V30.375L40.1382 30.5892C40.1267 30.7395 40.1151 30.8916 40.1019 31.042C40.0969 31.0714 40.092 31.1008 40.087 31.1302L40.0738 31.2136L40.0655 31.2986L40.0159 31.7874L39.9664 32.2778L39.8689 33.2603L39.7747 34.1888L39.7648 34.2934L39.7615 34.3981C39.7565 34.6057 39.74 34.7806 39.7103 34.9326L39.6656 35.1697L39.6623 35.4116C39.6607 35.5849 39.6442 35.7533 39.6128 35.9118L39.5649 36.1652V36.4235C39.5649 36.5575 39.5467 36.7292 39.5087 36.9466L39.4872 37.0725L39.4773 37.2C39.4707 37.285 39.4641 37.37 39.4575 37.455C39.4442 37.625 39.4327 37.7967 39.4161 37.9667C39.3947 38.207 39.3699 38.4489 39.3451 38.6892L39.3104 38.8102L39.2922 39.1126L39.2608 39.6243L39.1369 41.599L40.9826 42.3608L41.0966 42.4082L41.47 42.5619L41.8715 42.606L42.24 42.6452L42.6019 42.6845L43.3041 42.7646L43.3867 42.7744H43.4L43.4132 42.7777L43.7883 42.8169L44.0675 42.8463L44.1303 42.8806L44.745 42.9264L44.892 42.9379L45.0391 42.9493H45.0441H45.049L45.092 42.9526L45.7116 43.0261L45.9182 43.0507L46.1264 43.0441C46.1495 43.0441 46.1743 43.0441 46.1974 43.0409C46.2057 43.0409 46.2123 43.0409 46.2205 43.0409C47.5887 43.0409 48.8147 42.4311 49.6756 41.3244C49.7202 41.2672 49.7632 41.2083 49.8061 41.1495L49.8309 41.1152L49.9929 40.8945L50.1085 40.6476L50.1564 40.5463L50.2044 40.4449L50.3597 40.1147L50.4192 39.7861L50.4886 39.6831L50.5861 39.4641L50.8438 38.887L50.862 38.8461L50.8851 38.7971L50.9198 38.7203L50.9496 38.6418L51.0669 38.3361L51.0718 38.3214L51.0768 38.3067L51.3048 37.692L51.4188 37.3847L51.4469 37.3095L51.4701 37.2327L51.6122 36.7668L51.751 36.3123L51.7708 36.2486L51.7939 36.175L51.8253 36.0769L51.8484 35.9772L52.0533 35.0961L52.0732 35.0094L52.088 34.9228L52.1211 34.7201C52.1475 34.5615 52.174 34.4046 52.2004 34.246C52.2054 34.215 52.2136 34.1839 52.2202 34.1545C52.2285 34.1169 52.2351 34.0809 52.2434 34.0433L52.2665 33.9338L52.2797 33.8226L52.3144 33.5349L52.3458 33.2783L52.359 33.1622L52.3838 33.0102L52.4136 32.8287L52.4185 32.6538L52.4747 32.183L52.4483 32.147C52.4516 32.1013 52.4565 32.0555 52.4598 32.0097L52.478 31.8054L52.483 31.7384V31.6713L52.4995 31.2627L52.5144 30.8393L52.5177 30.751L52.5144 30.6627L52.4863 29.6802V29.6279L52.4813 29.5756L52.4185 28.6471L52.4136 28.5784L52.4053 28.5114L52.2913 27.5322L52.2764 27.408L52.25 27.2854C52.2417 27.2461 52.2334 27.2069 52.2252 27.1693C52.2169 27.1317 52.2087 27.0941 52.2021 27.0565C52.1756 26.9061 52.1492 26.7541 52.1227 26.6037L52.088 26.4026L52.0715 26.3062L52.0484 26.2114L51.8815 25.5313L51.8683 25.2926L51.8435 24.8366L51.6717 24.4132L51.4734 23.9227L51.3544 23.6269L51.1693 23.3653C50.8438 22.9027 50.4406 22.4973 49.9714 22.1589L49.7863 22.0248L49.5814 21.9235C49.5814 21.9235 49.5781 21.9218 49.5765 21.9202L49.5649 21.7437L49.5236 21.5736C49.4641 20.9737 49.3815 20.4081 49.3088 19.9585L49.2956 19.8032L49.2625 19.6447L49.1485 19.097L49.0576 18.6622L49.0477 18.6131L49.0361 18.5641L48.8065 17.6307L48.7883 17.5588L48.7668 17.4885L48.6429 17.0814V17.0749L48.6396 17.0683L48.5669 16.8346L48.4628 16.4978L48.4446 16.4406L48.4248 16.3834L48.2496 15.893L48.0745 15.4025L48.0431 15.3143L48.0051 15.2293L47.9192 15.0298C47.8481 14.8664 47.7787 14.7045 47.706 14.5427C47.6217 14.3547 47.5375 14.1683 47.4532 13.982C47.4036 13.8724 47.354 13.7629 47.3045 13.6534C47.3012 13.6436 47.2979 13.6338 47.2946 13.624L47.2367 13.4638L47.1591 13.3117L46.86 12.7232L46.8336 12.6709L46.8055 12.6202L46.589 12.2361L46.5741 12.2099L46.5593 12.1838L46.3973 11.9091L46.0735 11.3599L46.0603 11.3353L46.0454 11.3125L45.9462 11.1506L45.8917 11.0607L45.8306 10.9757C45.8074 10.943 45.7843 10.912 45.7612 10.8809C45.748 10.8629 45.7347 10.8449 45.7215 10.827C45.6141 10.6667 45.5084 10.5049 45.401 10.3431L45.2688 10.142L45.2374 10.093L45.2027 10.0456L45.1498 9.97199L45.0969 9.90006L45.0755 9.87064L45.054 9.84121L44.7565 9.45051L44.4591 9.05981L44.4343 9.02712L44.4079 8.99442L44.3071 8.87018L44.2063 8.74594L44.17 8.70181L44.132 8.6593L44.0097 8.52199C43.9188 8.419 43.8279 8.31601 43.737 8.21139C43.6924 8.16071 43.6495 8.1084 43.6049 8.05609L43.5255 7.96291L43.4925 7.92531L43.4595 7.88771L43.2727 7.68337L43.248 7.65722L43.2232 7.63106L42.6663 7.05073L42.6399 7.02294L42.6134 6.99679L42.4631 6.84966L42.3127 6.70254L42.278 6.66821L42.2433 6.63551L41.7509 6.18269L41.7195 6.1549L41.6881 6.12711L41.0817 5.60237L41.0503 5.57458L41.0173 5.54842L40.8289 5.39476L40.7397 5.32283L40.6455 5.25744L40.5844 5.21494L40.5579 5.19695C40.1349 4.88799 39.7103 4.57903 39.2873 4.27007L39.1468 4.14583L38.9551 4.02486L38.6098 3.80744L38.3851 3.66522L38.3652 3.64233L38.1719 3.53117L38.119 3.49684L36.8054 2.65005L36.6501 2.72198C36.4022 2.60101 36.1527 2.48004 35.9049 2.36071L35.7744 2.26426L35.4488 2.13184L34.7069 1.82942L34.6227 1.79509L34.5367 1.76567L34.4293 1.7297C34.1286 1.62998 33.8295 1.52863 33.5288 1.42891L33.4379 1.34718L32.772 1.17226L32.3292 1.05619L31.9806 0.96465L31.9459 0.954841L31.9112 0.946668L31.5377 0.858393L31.1643 0.770117L31.0949 0.75377L31.0255 0.740692L30.662 0.673669L30.2307 0.595202L30.1712 0.583759L30.1101 0.575585L29.3203 0.466058L29.236 0.454615L29.1517 0.448076C29.084 0.443172 29.0179 0.436633 28.9501 0.431729C28.7799 0.417017 28.6048 0.403939 28.4181 0.390861C27.8645 0.356532 27.4366 0.332011 27.0301 0.312394C26.8583 0.304221 26.6848 0.299316 26.4997 0.299316L26.5162 0.302586Z" fill="#0905A1"/>
<path d="M40.5645 41.0612L40.5166 41.0547C40.1547 41.0089 39.7251 40.9354 39.2823 40.7229L39.1583 40.664L38.5354 40.1981L38.0232 39.4788L37.9009 39.2238L37.8067 38.9704L37.6844 38.3917L37.7109 37.9978C37.7225 37.8212 37.734 37.6447 37.7456 37.4681C37.7472 37.4387 37.7456 37.4093 37.7456 37.3798V37.236L37.81 36.5461L37.8315 36.4154L37.8431 36.2535L37.8612 36.1064L37.8728 36.0541C37.9141 35.853 37.9373 35.6274 37.9439 35.3642V35.3119L38.0562 34.2265L38.0661 34.1758C38.1174 33.893 38.1422 33.6478 38.1438 33.4254V33.2881L38.1735 33.1541C38.1802 33.123 38.1868 33.092 38.195 33.0609C38.2082 32.9399 38.2182 32.8206 38.2297 32.6996L38.2396 32.5885L38.2231 32.4626L38.2628 32.2501C38.3107 31.9967 38.3371 31.7449 38.3404 31.503V31.4491L38.3652 31.212L38.3834 31.1336C38.4181 30.975 38.4297 30.7821 38.4346 30.6153L38.4445 30.3947L38.471 30.2786C38.4991 30.1544 38.5106 29.9794 38.5222 29.7947C38.5271 29.7326 38.5371 29.5773 38.5371 29.5773L38.5536 29.4351L38.5751 29.2749L38.6379 28.603L38.737 27.6532L38.9386 25.6948L39.046 24.7075L39.0708 24.6126L39.084 24.5538C39.1038 24.4671 39.1319 24.3494 39.1782 24.217C39.4293 23.501 39.9118 22.9289 40.5744 22.5611L40.9214 22.3665L41.1246 22.3224C41.4072 22.2603 41.7178 22.2014 42.0681 22.2014C42.1045 22.2014 42.1408 22.2014 42.1772 22.203L42.2714 22.2063L42.4416 22.2357C42.4829 22.2423 42.5258 22.2505 42.5672 22.257C42.6366 22.2668 42.7043 22.275 42.7704 22.2832L43.4875 22.3747L43.8411 22.8962C44.0262 23.1692 44.1154 23.4732 44.1088 23.8051L44.1204 23.8427L43.9865 25.0949L43.7866 27.0075L43.6825 28.0129L43.661 28.1584C43.6528 28.2172 43.6428 28.2761 43.6362 28.3365C43.623 28.4771 43.6114 28.6161 43.5999 28.755L43.5817 28.979L43.5569 29.1441C43.5487 29.2013 43.5387 29.2585 43.5321 29.3157C43.5189 29.4531 43.509 29.592 43.4974 29.731L43.4809 29.9418L43.4264 30.5058L43.3801 30.8998L43.2925 31.7155L42.9935 34.5959L42.8861 35.6111L42.8646 35.7615C42.8547 35.8269 42.8447 35.8939 42.8381 35.9593C42.8249 36.0917 42.8167 36.2225 42.8067 36.3516L42.7902 36.5674L42.7324 37.133L42.6911 37.4698L42.4928 39.3775L42.24 41.1561L40.5562 41.0629L40.5645 41.0612Z" fill="#1ABDFE"/>
<path d="M42.0714 23.586C42.0913 23.586 42.1111 23.586 42.1309 23.586C42.2102 23.5991 42.2912 23.6138 42.3705 23.6252C42.4763 23.64 42.582 23.653 42.6812 23.6661C42.7506 23.7675 42.6729 23.8656 42.6993 23.9587C42.6646 24.2873 42.6283 24.6159 42.5936 24.9445C42.5589 25.2698 42.5258 25.5935 42.4911 25.9188C42.4581 26.2326 42.425 26.5465 42.392 26.8587C42.3589 27.1873 42.3242 27.5159 42.2912 27.8428C42.2747 27.9622 42.2548 28.0799 42.2416 28.1992C42.2218 28.4068 42.2069 28.6128 42.1904 28.8204C42.1739 28.9397 42.1524 29.0591 42.1408 29.18C42.121 29.3877 42.1061 29.5969 42.0896 29.8045C42.0714 29.9843 42.0549 30.1625 42.0367 30.3423C42.0219 30.4731 42.0053 30.6055 41.9905 30.7363C41.9607 31.0126 41.931 31.2888 41.9012 31.5667C41.8682 31.8904 41.8335 32.2141 41.8004 32.5378C41.7657 32.868 41.7327 33.1998 41.698 33.53C41.6666 33.8374 41.6336 34.1447 41.6022 34.452C41.5675 34.7822 41.5328 35.1141 41.4981 35.4443C41.4799 35.5718 41.4584 35.6993 41.4468 35.8268C41.427 36.0263 41.4138 36.2273 41.3989 36.4284C41.3808 36.6066 41.3626 36.7864 41.3444 36.9646C41.3295 37.0807 41.3163 37.1967 41.3014 37.3128C41.2684 37.6218 41.237 37.9307 41.2039 38.2397C41.1709 38.5617 41.1379 38.8854 41.1032 39.2075C41.08 39.366 41.0585 39.523 41.0338 39.6946C40.9115 39.6881 40.7991 39.6815 40.6884 39.675C40.4141 39.6407 40.1448 39.5916 39.8936 39.4723C39.7813 39.3873 39.6673 39.3039 39.5549 39.2189C39.4491 39.0701 39.3434 38.9214 39.2376 38.7726C39.2228 38.7432 39.2096 38.7121 39.1947 38.6827C39.1815 38.6484 39.1699 38.6157 39.1567 38.5814C39.1369 38.4849 39.1154 38.3868 39.0955 38.2904C39.1121 38.0419 39.1286 37.795 39.1435 37.5466C39.1484 37.4665 39.1468 37.3864 39.1484 37.3079C39.1666 37.1134 39.1848 36.9172 39.2029 36.7227C39.2112 36.6736 39.2195 36.6262 39.2277 36.5772C39.231 36.5265 39.2343 36.4758 39.2393 36.4235L39.2426 36.3777C39.2443 36.3614 39.2476 36.345 39.2492 36.3271C39.312 36.0197 39.3401 35.7091 39.3484 35.3953C39.3814 35.0683 39.4145 34.7414 39.4475 34.4128C39.5053 34.0891 39.545 33.7622 39.5466 33.432C39.5599 33.3698 39.578 33.3077 39.5846 33.244C39.6061 33.0445 39.6226 32.8451 39.6425 32.6457C39.6441 32.613 39.6474 32.5803 39.6491 32.5476C39.6474 32.5312 39.6441 32.5149 39.6425 32.4969C39.7036 32.1732 39.7383 31.8463 39.7449 31.5177C39.7482 31.4866 39.7515 31.4539 39.7548 31.4229C39.811 31.1679 39.8292 30.9096 39.8375 30.6513C39.8375 30.6251 39.8408 30.599 39.8408 30.5712C39.9052 30.2851 39.9135 29.9941 39.9349 29.7032C39.9382 29.6705 39.9432 29.6378 39.9465 29.6051C39.9548 29.5446 39.963 29.4825 39.9713 29.422C39.9928 29.1899 40.0143 28.9561 40.0374 28.724C40.0704 28.4117 40.1018 28.1011 40.1349 27.7889C40.1679 27.4619 40.2026 27.1366 40.2357 26.8097C40.2687 26.4827 40.3034 26.1542 40.3365 25.8272C40.3679 25.533 40.4009 25.2387 40.4323 24.9445C40.4571 24.8497 40.4736 24.7532 40.5067 24.6617C40.6438 24.2693 40.895 23.9669 41.2634 23.7642C41.3196 23.7331 41.3774 23.7004 41.4336 23.6694C41.6435 23.6236 41.855 23.5827 42.0714 23.5827M42.0714 20.8037C41.584 20.8037 41.1676 20.8822 40.8223 20.9574L40.4158 21.0473L40.0539 21.25L39.9977 21.2811L39.8887 21.3415C38.922 21.8777 38.2165 22.7131 37.853 23.7544C37.7819 23.9587 37.7406 24.132 37.7175 24.2366L37.7092 24.2693L37.6613 24.459L37.6415 24.6502L37.5936 25.0916L37.5456 25.533V25.5411L37.544 25.5493L37.4515 26.4419L37.4415 26.5334L37.4316 26.625L37.3407 27.5126L37.3325 27.596L37.2433 28.4428V28.4575L37.24 28.4722L37.2069 28.822L37.1788 29.1212L37.1689 29.1948L37.1606 29.2536L37.1573 29.2732V29.2928L37.1474 29.3615L37.1441 29.3926L37.1375 29.4465L37.1325 29.5021C37.1276 29.5691 37.1226 29.6361 37.1177 29.7032C37.1111 29.8012 37.1028 29.9353 37.0945 29.986L37.045 30.2099L37.0334 30.447V30.4862L37.0301 30.5254V30.5467V30.5679C37.0235 30.7576 37.0136 30.8197 37.0103 30.8344L36.9756 30.993L36.9591 31.1548L36.9541 31.2055L36.9491 31.2496L36.9376 31.364V31.4785C36.9326 31.6419 36.9144 31.8152 36.8814 31.9918L36.8004 32.4201L36.8252 32.6113C36.8186 32.6849 36.812 32.7585 36.8037 32.832C36.8004 32.8435 36.7988 32.8549 36.7955 32.8664L36.7393 33.1344L36.736 33.4091C36.736 33.5529 36.7162 33.7246 36.6798 33.9306L36.6616 34.0335L36.6517 34.1382L36.5526 35.1206L36.5427 35.2236L36.5394 35.3266C36.5344 35.5097 36.5195 35.6552 36.4964 35.7762L36.4766 35.8759L36.4633 35.9756L36.46 36.0001L36.4567 36.0263L36.4485 36.0949L36.4435 36.1636L36.4402 36.2094V36.2224L36.4386 36.2355V36.2535L36.4353 36.2666L36.4171 36.3696L36.4072 36.4742L36.3791 36.7733L36.3526 37.0594L36.3427 37.164V37.2687C36.3411 37.3046 36.3411 37.3406 36.3394 37.3766V37.4109C36.3295 37.576 36.3179 37.7395 36.308 37.9046L36.2948 38.1155L36.27 38.4931L36.3477 38.8642L36.4088 39.1551L36.4501 39.3529L36.5195 39.5426L36.5443 39.6096L36.5575 39.6439L36.6021 39.7633L36.6583 39.8793L36.6682 39.9006L36.7013 39.9692L36.8037 40.1834L36.9425 40.3779L37.0598 40.543L37.2598 40.8242L37.5126 41.1773L37.8612 41.4389L38.0612 41.5876L38.2 41.6922L38.4197 41.8573L38.6676 41.9767C39.2971 42.2791 39.892 42.3821 40.3398 42.4377L40.4356 42.4491L40.5331 42.454H40.5463L40.8784 42.4736L43.4578 42.6175L43.818 40.0869L43.8874 39.5998L43.8956 39.5475L43.9006 39.4952L43.9502 39.0113L43.9997 38.5274L44.0477 38.068L44.0939 37.6299L44.1336 37.3063L44.1369 37.2752L44.1402 37.2441L44.1451 37.1951L44.1947 36.7063L44.198 36.6753V36.6442L44.2145 36.4546C44.2228 36.3336 44.2327 36.2143 44.2443 36.0933C44.2459 36.072 44.2558 36.0099 44.2625 35.9658C44.2691 35.9167 44.2773 35.8677 44.2839 35.8203L44.2905 35.7778L44.2955 35.7353L44.3996 34.743L44.4954 33.8194L44.545 33.3437L44.5979 32.8238L44.6475 32.34L44.697 31.8626L44.7582 31.2921L44.7846 31.0502L44.8243 30.7101L44.8292 30.6693L44.8325 30.6431L44.8358 30.617L44.8606 30.362L44.8887 30.0791V30.0546L44.8937 30.0301L44.9085 29.8356C44.9184 29.7081 44.9284 29.5806 44.9399 29.453C44.9432 29.4269 44.9482 29.3942 44.9531 29.3615C44.9598 29.3141 44.968 29.2667 44.9746 29.2193L44.9862 29.1375L44.9928 29.0558L45.0077 28.8629C45.0176 28.7338 45.0275 28.6046 45.0407 28.4771C45.044 28.4428 45.0506 28.4068 45.0556 28.3709C45.0622 28.3251 45.0688 28.2777 45.0754 28.2319L45.082 28.1829L45.087 28.1338L45.1399 27.6123L45.1878 27.1497L45.2869 26.2163L45.3894 25.2404L45.4257 24.9085L45.4951 24.2628L45.5529 23.7282L45.5166 23.6024C45.4802 22.9566 45.2407 22.4597 45.0143 22.1262L44.3054 21.0849L43.048 20.923L42.9472 20.91C42.891 20.9034 42.8348 20.8953 42.777 20.8871C42.7489 20.8838 42.7208 20.8773 42.6927 20.8724L42.6035 20.8577L42.4184 20.8266L42.2317 20.8201C42.1788 20.8184 42.126 20.8168 42.0731 20.8168L42.0714 20.8037Z" fill="#0905A1"/>
<path d="M12.1539 40.7686C12.03 40.7686 11.9292 40.7555 11.8697 40.749L10.6899 40.6476L10.5726 39.2957L10.4718 38.3917L10.3693 37.4435L10.3512 37.2556C10.3396 37.1313 10.328 37.0054 10.3148 36.8812C10.3065 36.8076 10.295 36.7341 10.2834 36.6605L10.2553 36.4725C10.2553 36.4725 10.2454 36.327 10.2438 36.2813C10.2405 36.2224 10.2388 36.1636 10.2322 36.1063C10.2173 35.9788 10.1975 35.853 10.1793 35.7254L10.1397 35.4541V35.3642C10.1364 35.1549 10.1099 34.9212 10.0537 34.6089L10.0455 34.5632L9.93807 33.5856L9.88189 33.1001L9.82571 32.5999L9.82241 32.4838L9.63073 30.7968L9.52664 29.8568L9.41428 28.8514C9.41428 28.8514 9.36636 28.3561 9.34983 28.1861L9.30192 28.0962L9.29531 27.7725C9.29035 27.5469 9.26556 27.3197 9.21765 27.0745L9.20773 27.0189L9.08876 25.9367L9.08381 25.8272L9.07059 25.6752C9.05737 25.5362 9.0458 25.3956 9.03093 25.2567C9.02597 25.2142 9.01771 25.17 9.0111 25.1259L8.98797 24.9804L8.87396 23.9325L8.7616 22.3975L10.1529 21.9627L10.3181 21.9447L11.0699 21.8777H11.1526C11.5937 21.8777 12.0399 21.9692 12.4761 22.1507L12.5967 22.1997L12.7058 22.27C13.0164 22.4727 13.299 22.7179 13.5485 23.0007L13.6146 23.0759L13.8244 23.3996L13.869 23.4993C14.0243 23.8459 14.1268 24.2301 14.183 24.6747L14.3779 26.6445C14.3779 26.6445 14.4226 27.166 14.4391 27.3655L14.4837 27.4734L14.4787 27.8526V27.8788C14.4787 27.8788 14.5134 28.2449 14.525 28.3594L14.5746 28.5392V28.7305C14.5729 28.961 14.6076 29.2192 14.6489 29.5069L14.6539 29.5429L14.7398 30.4649L14.7349 30.5368L14.7514 30.7183C14.7762 31.0076 14.8026 31.297 14.8323 31.5847C14.8472 31.7384 14.8687 31.8904 14.8885 32.044L14.9216 32.2991L14.9926 33.0772L15.0372 33.1884L15.0224 33.512C15.0224 33.512 15.0554 33.8798 15.0653 33.9877L15.1083 34.1169L15.1149 34.3163C15.1149 34.3572 15.1165 34.3981 15.1182 34.4389C15.1182 34.4716 15.1182 34.5043 15.1215 34.5354C15.1364 34.6825 15.1562 34.8329 15.1744 34.9816L15.2025 35.2056L15.29 36.211L15.3859 37.1902L15.3925 37.3209C15.4553 37.7803 15.3908 38.1841 15.3462 38.4538L15.3181 38.6255L15.2487 38.7857C15.0505 39.2385 14.8257 39.5883 14.5399 39.8875L14.4837 39.9463L14.0855 40.2765L13.9318 40.3517C13.7087 40.4596 13.4097 40.5937 13.0561 40.6787L12.952 40.7032L12.6942 40.7261C12.5504 40.7392 12.405 40.7522 12.2613 40.7604C12.2249 40.762 12.1886 40.7637 12.1506 40.7637L12.1539 40.7686Z" fill="#1ABDFE"/>
<path d="M11.1526 23.269C11.4236 23.269 11.683 23.3294 11.9325 23.4341C12.139 23.5697 12.3241 23.7299 12.486 23.9163C12.5191 23.9653 12.5505 24.016 12.5835 24.0651C12.6959 24.3152 12.7537 24.58 12.7868 24.8497C12.8182 25.1767 12.8512 25.5053 12.8826 25.8322C12.914 26.1428 12.9437 26.4534 12.9751 26.764C13.0016 27.0762 13.028 27.3885 13.0545 27.7007C13.0545 27.7154 13.066 27.7301 13.0726 27.7448C13.0726 27.7939 13.0726 27.8429 13.071 27.892C13.0726 27.9246 13.0759 27.9573 13.0776 27.99C13.0974 28.1976 13.1156 28.4069 13.1371 28.6145C13.1404 28.6537 13.1569 28.6913 13.1685 28.7289C13.1668 29.0591 13.2114 29.3861 13.2593 29.7114C13.2841 29.9713 13.3073 30.2312 13.332 30.4912C13.332 30.5157 13.3254 30.5402 13.3287 30.5631C13.3634 30.9522 13.3965 31.3412 13.4361 31.7287C13.4609 31.9706 13.4956 32.2125 13.527 32.4545C13.5568 32.7732 13.5849 33.0937 13.6146 33.4124C13.6146 33.4206 13.6196 33.4271 13.6229 33.4353C13.6229 33.468 13.6196 33.5007 13.6179 33.5334C13.6196 33.5661 13.6229 33.5988 13.6245 33.6315C13.6443 33.8473 13.6625 34.0614 13.684 34.2772C13.6873 34.3083 13.7022 34.3377 13.7121 34.3671C13.7154 34.4717 13.7121 34.578 13.7237 34.6826C13.7468 34.9066 13.7765 35.1305 13.8046 35.3561C13.8327 35.6831 13.8625 36.01 13.8905 36.3386C13.9219 36.6623 13.955 36.9876 13.9864 37.3112C13.9913 37.375 13.9913 37.4388 13.9996 37.5025C14.036 37.7526 13.9996 37.9978 13.9616 38.243C13.8509 38.4981 13.7154 38.7384 13.5221 38.9411C13.4543 38.9983 13.3849 39.0555 13.3172 39.1111C13.1272 39.2026 12.9355 39.286 12.7289 39.335C12.5455 39.3497 12.3605 39.3694 12.1771 39.3808C12.1688 39.3808 12.1622 39.3808 12.1539 39.3808C12.0994 39.3808 12.0432 39.3694 11.9887 39.3645C11.9837 39.2974 11.9771 39.2304 11.9722 39.1634C11.9375 38.8561 11.9044 38.5487 11.8697 38.2414C11.835 37.9259 11.802 37.612 11.7673 37.2965C11.7491 37.1069 11.7326 36.9156 11.7111 36.726C11.6962 36.592 11.6731 36.4596 11.6533 36.3255C11.645 36.198 11.6417 36.0689 11.6268 35.9413C11.6037 35.7419 11.5706 35.5441 11.5425 35.3463C11.5376 35.0161 11.4946 34.6908 11.4368 34.3671C11.4021 34.0565 11.3691 33.7459 11.3344 33.4353C11.3162 33.2718 11.2963 33.1067 11.2782 32.9433C11.2616 32.7961 11.2451 32.6506 11.2303 32.5035C11.2303 32.4676 11.2286 32.4316 11.2269 32.3956C11.2352 32.3793 11.2336 32.3646 11.222 32.3499C11.1889 32.0572 11.1559 31.7646 11.1212 31.472C11.0898 31.1957 11.0584 30.9178 11.027 30.6416C10.9923 30.3293 10.9576 30.0187 10.9246 29.7065C10.8882 29.3779 10.8502 29.0477 10.8139 28.7191C10.7841 28.4085 10.7544 28.0979 10.723 27.7873C10.723 27.7726 10.7098 27.7595 10.7015 27.7448C10.6949 27.431 10.6585 27.1204 10.5991 26.813C10.5627 26.4861 10.5264 26.1591 10.49 25.8322C10.49 25.7995 10.4867 25.7684 10.4867 25.7358C10.4669 25.5281 10.4503 25.3189 10.4289 25.1113C10.4173 25.0067 10.3975 24.9053 10.3809 24.8007C10.3446 24.4705 10.3099 24.1403 10.2735 23.81C10.2636 23.676 10.2537 23.5419 10.2438 23.3948C10.3148 23.3719 10.3809 23.3523 10.447 23.3311C10.6784 23.3098 10.9097 23.2902 11.1394 23.269C11.1443 23.269 11.1476 23.269 11.1526 23.269ZM11.1526 20.4899H11.1212H11.0039L10.8866 20.4997L10.2438 20.5569L10.1942 20.5618L9.89185 20.588L9.60268 20.6779L9.51511 20.7057L9.39945 20.7417L7.28113 21.4005L7.43975 23.591L7.45297 23.7757L7.4695 24.0062L7.4728 24.0553L7.47776 24.1043L7.58516 25.0949L7.59177 25.1603L7.60168 25.2241C7.60829 25.2682 7.61656 25.3107 7.62317 25.3549C7.62647 25.3745 7.62977 25.3957 7.63308 25.4153C7.6463 25.5412 7.65786 25.6687 7.66943 25.7962L7.681 25.9156V25.945L7.68595 26.0382L7.69587 26.1314L7.7504 26.6218L7.80492 27.1122L7.81649 27.2234L7.83797 27.3329C7.87102 27.4996 7.88754 27.6516 7.89085 27.7971L7.90406 28.4412L7.97677 28.5818C7.98503 28.6652 7.99329 28.7485 8.00155 28.8303L8.01642 28.9807V29.0019L8.02138 29.0232L8.13209 30.0106L8.23454 30.9391V30.944V30.9489L8.32872 31.781L8.37664 32.1995L8.4196 32.5787L8.4229 32.6931L8.43612 32.8059L8.48404 33.244V33.249V33.2539L8.51213 33.5007L8.54022 33.741L8.64102 34.6646L8.65093 34.7578L8.66745 34.8493C8.70876 35.0815 8.72859 35.2515 8.73024 35.3806V35.5588L8.75833 35.7354C8.76825 35.7991 8.77651 35.8629 8.78642 35.9266C8.8046 36.046 8.82112 36.1588 8.83269 36.2568C8.83599 36.2879 8.83599 36.319 8.83764 36.35C8.84095 36.4023 8.8426 36.4546 8.84591 36.5053L8.85252 36.6132L8.86904 36.7211C8.87565 36.7701 8.88391 36.8176 8.89052 36.8666C8.90043 36.9336 8.91035 36.9957 8.91531 37.0333C8.92852 37.1461 8.93844 37.2606 8.94835 37.375L8.96488 37.5565V37.5728L8.96818 37.5891L8.97644 37.6725L9.06897 38.534V38.5389V38.5438L9.11689 38.977L9.16646 39.4282L9.17968 39.5917L9.37466 41.9244L11.6962 42.1288C11.7821 42.1402 11.9424 42.1582 12.144 42.1582C12.2101 42.1582 12.2762 42.1566 12.3423 42.1517C12.5108 42.1419 12.6728 42.1271 12.8132 42.1141L12.957 42.101L13.1718 42.083L13.38 42.0323C13.8658 41.9163 14.2574 41.7414 14.5432 41.6024L14.8506 41.4536L15.1133 41.2362L15.1777 41.1823L15.3182 41.0646L15.4421 40.9616L15.5528 40.8455C15.9477 40.4319 16.2683 39.9399 16.5294 39.3416L16.6698 39.0212L16.726 38.6762C16.7739 38.3787 16.8615 37.8393 16.7855 37.205C16.7855 37.1788 16.7822 37.151 16.7805 37.1249L16.7772 37.0824L16.7722 37.0399L16.6913 36.2127L16.6781 36.0803L16.5938 35.1125L16.5905 35.0651L16.5855 35.0194L16.5607 34.815C16.5459 34.6908 16.5294 34.5682 16.5161 34.4439C16.5161 34.4374 16.5161 34.4309 16.5161 34.4227C16.5161 34.3736 16.5161 34.323 16.5128 34.2739L16.4996 33.875L16.4434 33.7067C16.4385 33.6495 16.4335 33.5939 16.4286 33.5367L16.4236 33.4844L16.4467 32.9563L16.3658 32.7536C16.3526 32.6081 16.3393 32.4626 16.3261 32.3172L16.3162 32.2011L16.3112 32.1537L16.3046 32.1063C16.2947 32.0262 16.2832 31.9461 16.2732 31.8643C16.2534 31.7139 16.2352 31.5717 16.222 31.4475C16.1939 31.1696 16.1691 30.89 16.1427 30.5958L16.1361 30.5206L16.141 30.4454L16.1212 30.2345L16.0485 29.4548L16.0419 29.3828L16.032 29.3109C15.9989 29.0869 15.9692 28.8744 15.9709 28.7404V28.3562L15.9031 28.1077C15.8965 28.0374 15.8899 27.9672 15.8833 27.8969L15.875 27.8053V27.7759L15.8816 27.2037L15.8106 27.0337C15.8007 26.916 15.7908 26.8 15.7808 26.6823L15.7676 26.5319V26.5106L15.7643 26.4894L15.718 26.0235L15.6718 25.5576L15.5759 24.58L15.5726 24.5424L15.5677 24.5048C15.495 23.9228 15.3562 23.4112 15.1447 22.9387L15.0555 22.7393L14.9365 22.5562L14.839 22.4074L14.7299 22.2407L14.5994 22.0919C14.2673 21.7127 13.8872 21.3825 13.4692 21.1111L13.2527 20.9705L13.0131 20.8708C12.4034 20.6174 11.7755 20.4883 11.1443 20.4883L11.1526 20.4899Z" fill="#0905A1"/>
</g>
<defs>
<clipPath id="clip0_730_1486">
<rect width="96.6644" height="88.692" fill="white" transform="translate(0.425537 0.297607)"/>
</clipPath>
</defs>
</svg>
