<svg width="105" height="78" viewBox="0 0 105 78" fill="none" xmlns="http://www.w3.org/2000/svg">
<g clip-path="url(#clip0_719_1043)">
<path d="M52.1597 1.74986C52.3138 1.96859 52.4679 2.18732 52.622 2.40605C52.8134 3.23871 53.0023 4.06889 53.1937 4.90156C53.1937 5.73423 53.1937 6.56938 53.1937 7.40204C53.1937 8.23968 53.1937 9.0798 53.1937 9.91744C53.1937 10.7501 53.1937 11.5853 53.1937 12.4179C53.1937 13.2556 53.1937 14.0932 53.1937 14.9308C53.1937 15.7635 53.1937 16.5987 53.1937 17.4313C53.1937 18.269 53.1937 19.1066 53.1937 19.9467C53.1937 20.7794 53.1937 21.612 53.1937 22.4472C53.1937 23.2848 53.1937 24.1225 53.1937 24.9626C53.1937 25.7953 53.1937 26.6304 53.1937 27.4631C53.1937 28.3007 53.1937 29.1384 53.1937 29.9785C53.1937 30.8111 53.1937 31.6438 53.1937 32.479C53.1937 33.3166 53.1937 34.1542 53.1937 34.9944C53.1937 35.827 53.1937 36.6597 53.1912 37.4923C53.1912 38.3325 53.1912 39.1726 53.1912 40.0102C53.1912 40.8429 53.1912 41.6756 53.1937 42.5082C53.1937 43.3459 53.1937 44.1835 53.1937 45.0236C53.1937 45.8563 53.1937 46.6914 53.1937 47.5241C53.1937 48.3617 53.1937 49.1994 53.1937 50.0395C53.1862 50.5789 53.231 51.1232 53.1539 51.6526C53.0595 52.3014 53.3926 52.53 53.922 52.6717C54.086 52.7165 54.3296 52.7885 54.3719 52.9054C54.6279 53.6113 54.8342 54.3321 55.0579 55.0479C55.0579 55.9253 55.0579 56.8027 55.0579 57.6801C55.7638 57.7125 56.4697 57.7448 57.1756 57.7771C58.0083 57.7771 58.8384 57.7771 59.6711 57.7771C60.5112 57.7771 61.3513 57.7771 62.1915 57.7771C63.0241 57.7771 63.8543 57.7771 64.687 57.7771C65.5271 57.7771 66.3672 57.7771 67.2074 57.7771C68.04 57.7771 68.8752 57.7721 69.7078 57.7696C70.5405 57.961 71.3732 58.1499 72.2058 58.3413C72.7626 58.9155 73.3169 59.4921 73.8736 60.0663C73.9954 60.5435 74.1769 61.0133 74.2291 61.498C74.3981 63.054 74.6044 64.6174 74.0874 66.1559C74.0377 66.3001 74.0153 66.4865 74.0601 66.6257C74.4428 67.784 74.843 68.9373 75.2382 70.0931C75.2805 70.3118 75.2979 70.538 75.365 70.7493C75.5638 71.3707 75.7851 71.9871 75.9963 72.6035C76.2374 73.302 76.5084 73.9929 76.7122 74.7038C76.8812 75.2879 77.0378 75.8894 77.0875 76.4934C77.1471 77.2267 76.5208 77.8307 75.7851 77.8655C75.4321 77.8829 75.0767 77.8804 74.7237 77.8878C73.8861 77.8878 73.0484 77.8878 72.2108 77.8878C71.3756 77.8878 70.543 77.8878 69.7078 77.8878C68.8702 77.8878 68.0326 77.8878 67.1949 77.8878C66.3598 77.8878 65.5271 77.8878 64.692 77.8878C63.8543 77.8878 63.0167 77.8878 62.179 77.8878C61.3439 77.8878 60.5112 77.8878 59.6761 77.8878H54.6602C53.8226 77.8878 52.9849 77.8878 52.1473 77.8878C51.3096 77.8878 50.4795 77.8878 49.6443 77.8878C48.8092 77.8878 47.969 77.8878 47.1314 77.8878C46.2938 77.8878 45.4636 77.8878 44.6284 77.8878H39.6126C38.7749 77.8878 37.9373 77.8878 37.0996 77.8878H34.5967C33.759 77.8878 32.9214 77.8878 32.0838 77.8878C31.2461 77.8878 30.4159 77.8878 29.5808 77.8878C28.7456 77.8878 27.9055 77.8878 27.0679 77.8878C26.2302 77.8878 25.4001 77.8878 24.5649 77.8878C23.7273 77.8878 22.8896 77.8878 22.052 77.8878C21.8233 77.8804 21.5922 77.8481 21.3685 77.8704C20.0735 78.0121 19.0967 76.9011 19.723 75.452C20.1157 74.5373 20.3519 73.5555 20.6576 72.6035L21.5002 70.1229C21.6096 69.8147 21.7587 69.514 21.8184 69.1958C22.0495 67.9828 23.0661 66.8967 22.4199 65.537C22.3876 65.4674 22.4149 65.373 22.4149 65.2885C22.4149 64.078 22.3726 62.8626 22.4348 61.6546C22.4621 61.1227 22.7057 60.6007 22.8499 60.0738C23.4216 59.4872 23.9957 58.903 24.5674 58.3165C25.4026 58.135 26.2377 57.9511 27.0729 57.7696C27.9055 57.7696 28.7407 57.7746 29.5733 57.7771C30.4135 57.7771 31.2536 57.7771 32.0937 57.7771C32.9264 57.7771 33.7566 57.7771 34.5892 57.7771C35.4293 57.7771 36.2695 57.7771 37.1096 57.7771C37.9423 57.7771 38.7724 57.7771 39.6051 57.7771C40.2066 57.787 40.8106 57.8094 41.4121 57.797C41.5165 57.797 41.6159 57.6404 41.7178 57.5559C41.7178 56.7207 41.7178 55.8831 41.7178 55.0479C41.7452 53.7231 42.0882 52.6146 43.5795 52.361V50.042C43.5795 49.2044 43.5795 48.3642 43.5795 47.5266C43.5795 46.6939 43.5795 45.8613 43.5795 45.0286C43.5795 44.1885 43.5795 43.3508 43.5795 42.5107C43.5795 41.6706 43.5795 40.8454 43.5795 40.0127C43.5795 39.1751 43.5795 38.335 43.5795 37.4973C43.5795 36.6647 43.5795 35.8295 43.5795 34.9968C43.5795 34.1592 43.5795 33.3216 43.5795 32.4814C43.5795 31.6488 43.5795 30.8161 43.5795 29.9834C43.5795 29.1433 43.5795 28.3057 43.5795 27.4656C43.5795 26.6254 43.5795 25.8002 43.5795 24.9676C43.5795 24.1299 43.5795 23.2898 43.5795 22.4522C43.5795 21.6195 43.5795 20.7844 43.5795 19.9517V17.4363C43.5795 16.6036 43.5795 15.771 43.5795 14.9383C43.5795 14.1007 43.5795 13.263 43.5795 12.4229C43.5795 11.5902 43.5795 10.7576 43.5795 9.9249C43.5795 9.08477 43.5795 8.24714 43.5795 7.40701C43.5795 6.57435 43.5795 5.74168 43.5795 4.90902C43.5124 4.0167 43.7809 3.20143 44.1537 2.41102C44.3128 2.15749 44.4718 1.90645 44.6309 1.65292C45.5953 0.735745 46.6716 0.0696123 48.0585 0.0124442C49.7089 -0.0546662 51.071 0.514529 52.1547 1.75731L52.1597 1.74986ZM32.0987 66.8519H31.0349C30.9603 67.1079 30.8907 67.3416 30.8211 67.5752C30.5725 68.4128 30.324 69.2505 30.0754 70.0881C29.6181 71.6068 29.1607 73.1255 28.6885 74.6889H31.3828C31.5792 73.9706 31.7656 73.287 31.952 72.601C32.2428 71.5074 32.5436 70.4162 32.822 69.3201C32.9686 68.7459 33.078 68.1618 33.2048 67.5827C33.2818 67.3465 33.3589 67.1079 33.4434 66.8519H32.0987ZM49.9998 45.0137V42.5107C49.9998 41.6731 49.9998 40.8354 49.9998 39.9978C49.9998 39.1627 49.9998 38.33 49.9998 37.4948V27.4656C49.9998 26.6279 49.9998 25.7903 49.9998 24.9527C49.9998 24.1175 49.9998 23.2848 49.9998 22.4497C49.9998 21.6145 49.9998 20.7744 49.9998 19.9368C49.9998 19.1016 49.9998 18.269 49.9998 17.4338V14.9209C49.9998 14.0857 49.9998 13.2531 49.9998 12.4179V9.90501C49.9998 9.06986 49.9998 8.2372 49.9998 7.40204C50.0097 6.52712 50.0246 5.65469 50.0246 4.77977C50.0246 3.87751 49.346 3.18652 48.4314 3.13432C47.5788 3.08461 46.8505 3.6538 46.7735 4.54861C46.6915 5.49561 46.7138 6.45256 46.689 7.40453C46.689 8.2372 46.689 9.06986 46.689 9.90253C46.689 10.7427 46.689 11.5803 46.689 12.4204C46.689 13.2531 46.689 14.0857 46.689 14.9184C46.689 15.756 46.689 16.5937 46.689 17.4338C46.689 18.2665 46.689 19.1016 46.689 19.9343C46.689 20.7719 46.689 21.6096 46.689 22.4497C46.689 23.2823 46.689 24.1175 46.689 24.9502C46.689 25.7828 46.689 26.6254 46.689 27.4656C46.689 28.2982 46.689 29.1334 46.689 29.966C46.689 30.8037 46.689 31.6438 46.689 32.4814C46.689 33.3141 46.689 34.1468 46.689 34.977V37.4948C46.689 38.3275 46.689 39.1602 46.689 39.9928C46.689 40.8305 46.689 41.6706 46.689 42.5082C46.689 43.3409 46.689 44.1736 46.689 45.0062C46.689 45.8439 46.689 46.6815 46.689 47.5216C46.689 48.3543 46.689 49.187 46.689 50.0196C46.679 50.6385 46.684 51.2599 46.6517 51.8763C46.6318 52.274 46.8207 52.3362 47.1438 52.2666C47.979 52.2666 48.8141 52.2666 49.6468 52.2666C49.9774 52.3511 50.0345 52.1721 50.0246 51.8937C50.0072 51.2699 50.0072 50.6435 49.9998 50.0196C49.9998 49.1845 49.9998 48.3518 49.9998 47.5167C49.9998 46.679 49.9998 45.8414 49.9998 45.0037V45.0137ZM64.6895 66.8519H63.3274C63.3746 67.1129 63.4169 67.3465 63.4591 67.5827C63.5362 67.8983 63.6033 68.2165 63.6903 68.5297C64.0681 69.8868 64.4484 71.2439 64.8287 72.601C64.9629 73.2498 65.0822 73.9035 65.2462 74.5447C65.2686 74.6342 65.5097 74.7162 65.6539 74.7212C66.1684 74.7361 66.6829 74.7162 67.1949 74.7088H68.0375C67.5578 73.1131 67.103 71.5993 66.6481 70.0856C66.3995 69.253 66.1535 68.4203 65.9049 67.5876C65.9099 66.9613 65.5967 66.7202 64.9902 66.827C64.8908 66.8444 64.7889 66.842 64.687 66.8494L64.6895 66.8519ZM47.5142 66.8569C47.4844 66.8892 47.4545 66.9215 47.4247 66.9538C47.4148 67.1626 47.4048 67.3739 47.3924 67.5827C47.3253 68.4203 47.2607 69.2579 47.1935 70.0956C47.1314 70.9282 47.0668 71.7634 47.0046 72.5961C46.9226 73.1777 46.8182 73.7568 46.7785 74.3409C46.771 74.4627 47.0046 74.7063 47.1364 74.7113C47.9293 74.7461 48.7247 74.7436 49.5176 74.7113C49.6543 74.7063 49.9003 74.4677 49.8904 74.3534C49.8382 73.7643 49.7214 73.1802 49.6244 72.5936C49.5822 71.7584 49.5424 70.9258 49.5002 70.0906C49.4504 69.253 49.3982 68.4153 49.3485 67.5777V66.8544H47.5142V66.8569ZM71.1892 62.5718C71.2489 61.3936 70.8015 60.9114 69.7029 60.9661C68.8702 60.9661 68.035 60.9661 67.2024 60.9661C66.3647 60.9661 65.5271 60.9661 64.6895 60.9661C63.8568 60.9661 63.0217 60.9661 62.189 60.9661C61.3513 60.9661 60.5137 60.9661 59.6761 60.9661H57.1756C56.338 60.9661 55.5003 60.9661 54.6627 60.9661C53.83 60.9661 52.9949 60.9661 52.1622 60.9661C51.3246 60.9661 50.4869 60.9661 49.6493 60.9661C48.8166 60.9661 47.9815 60.9661 47.1488 60.9661C46.3112 60.9661 45.4735 60.9661 44.6359 60.9661H42.1354C41.2978 60.9661 40.4601 60.9661 39.6225 60.9661C38.7898 60.9661 37.9547 60.9661 37.122 60.9661C36.2844 60.9661 35.4467 60.9661 34.6091 60.9661C33.7764 60.9661 32.9413 60.9661 32.1086 60.9661H29.5957C28.763 60.9661 27.9279 60.9661 27.0952 60.9661C25.9494 60.9064 25.5393 61.3489 25.6064 62.5718V63.6952H71.2017V62.5718H71.1892ZM37.7409 72.601C37.895 71.7659 38.0491 70.9307 38.2032 70.0956C38.3424 69.2604 38.4841 68.4253 38.6233 67.5901C38.6979 67.3515 38.7724 67.1129 38.8594 66.832C38.2853 66.832 37.7832 66.8718 37.291 66.8196C36.8088 66.7699 36.6125 67.011 36.518 67.4037C36.3043 68.296 36.1054 69.1933 35.8991 70.0881C35.6829 70.9258 35.4666 71.7634 35.2504 72.601C35.0565 73.2821 34.8626 73.9631 34.6538 74.6889C35.571 74.6889 36.3366 74.6889 37.0996 74.6889C37.2239 74.5671 37.4253 74.4602 37.4551 74.3161C37.5769 73.7494 37.6465 73.1727 37.736 72.5985L37.7409 72.601ZM59.0025 72.6209C59.1044 73.2299 59.1889 73.8413 59.3206 74.4428C59.343 74.5472 59.5568 74.6069 59.6835 74.6889C60.4317 74.6914 61.1798 74.6964 61.928 74.6989C61.9578 74.6665 61.9877 74.6317 62.0175 74.5994C61.8534 73.9333 61.6894 73.2672 61.5253 72.6035C61.2867 71.7236 61.0481 70.8437 60.8095 69.9638C60.5734 69.0119 60.3472 68.0549 60.0937 67.1079C60.0638 66.9961 59.8774 66.8544 59.7581 66.8494C59.1591 66.8221 58.5576 66.837 57.8815 66.837C57.9362 67.1328 57.9809 67.3664 58.0232 67.5976C58.1972 68.4725 58.3687 69.3474 58.5427 70.2199C58.6968 71.0202 58.8509 71.8206 59.005 72.6209H59.0025ZM55.2791 70.0906C55.0728 69.0144 54.864 67.9381 54.6577 66.8693H52.5475V67.5827C52.5897 68.4203 52.632 69.2579 52.6742 70.0931C52.7562 70.9282 52.8383 71.7609 52.9203 72.5961C52.9153 73.0509 52.9004 73.5058 52.9054 73.9606C52.9104 74.4577 53.0868 74.7809 53.6709 74.7187C53.999 74.6839 54.3321 74.6964 54.6627 74.6864H56.1366C56.0024 73.9532 55.8806 73.2771 55.7588 72.601C55.5973 71.7634 55.4382 70.9258 55.2766 70.0881L55.2791 70.0906ZM41.0169 72.601C40.8678 73.2821 40.7186 73.9631 40.5571 74.7088H43.6019C43.6914 73.9681 43.7759 73.2821 43.8579 72.5961C43.9002 71.7609 43.9424 70.9282 43.9822 70.0931C44.0667 69.2555 44.1487 68.4178 44.2332 67.5827V66.832C43.5845 66.832 43.0029 66.8072 42.4237 66.8469C42.2597 66.8594 41.9962 67.0433 41.9689 67.185C41.7849 68.1469 41.6507 69.1212 41.4991 70.0906C41.3375 70.9282 41.176 71.7634 41.0144 72.601H41.0169ZM27.0853 68.7211C27.3065 68.1146 27.5252 67.5081 27.7738 66.832C27.2767 66.832 26.884 66.8569 26.4937 66.8246C26.0065 66.7848 25.7555 66.9787 25.7207 67.4634C25.4448 68.3333 25.1689 69.2057 24.893 70.0757C24.376 71.572 23.8565 73.0683 23.2898 74.7088H24.5773C24.9005 74.6864 25.318 74.9126 25.4746 74.423C25.6536 73.8637 25.8002 73.2945 25.9593 72.7303C26.2178 71.8529 26.4788 70.973 26.7373 70.0956C26.8541 69.6382 26.9685 69.1784 27.0853 68.7211ZM69.7053 66.8519H69.0094C69.3325 67.9431 69.6507 69.0168 69.9663 70.0906C70.2174 70.9258 70.4684 71.7634 70.7195 72.5985C70.8015 72.9391 70.8437 73.297 70.9755 73.6151C71.4974 74.8828 71.0575 74.7486 72.2133 74.7113H73.4238C72.8794 73.118 72.3624 71.6043 71.8454 70.0906C71.5546 69.253 71.2613 68.4178 70.9705 67.5802C70.9954 66.9911 70.7493 66.7102 70.1329 66.827C69.9937 66.8544 69.8495 66.8445 69.7078 66.8494L69.7053 66.8519ZM49.6493 55.4158H44.8372V57.7622H51.7397V55.4158H49.6468H49.6493Z" fill="#1ABDFE"/>
<path d="M101.13 37.4402C101.215 38.2306 101.302 39.0235 101.386 39.8139C101.841 40.1146 102.296 40.4179 102.751 40.7186C103.134 41.253 103.519 41.7874 103.902 42.3218C103.947 43.1595 103.994 43.9946 104.039 44.8322C104.073 45.6724 103.981 46.4852 103.517 47.2134C103.266 47.5018 103.014 47.7901 102.761 48.0784C102.5 48.2449 102.256 48.4537 101.976 48.5681C101.374 48.8092 101.202 49.2466 101.289 49.8407C101.158 50.6783 101.026 51.5159 100.894 52.3511C100.733 53.1862 100.571 54.0189 100.412 54.8541C100.116 56.5269 99.8205 58.1996 99.5272 59.8749C99.3955 60.7101 99.2638 61.5452 99.1345 62.3804C99.1121 62.5022 99.0898 62.624 99.0699 62.7458C98.9406 63.4616 98.8139 64.1774 98.6846 64.8933C98.5479 65.7259 98.4112 66.5611 98.2745 67.3938C98.1353 68.2264 97.9936 69.0591 97.8544 69.8918C97.7799 70.1801 97.6357 70.4684 97.6382 70.7567C97.6506 72.1039 97.1709 73.3467 96.8503 74.6218C96.2711 75.2631 95.6945 75.9044 95.1153 76.5456C94.6182 76.8066 94.1211 77.0651 93.6215 77.3261C93.3257 77.4181 93.0275 77.51 92.7317 77.602C91.899 77.6343 91.0639 77.6666 90.2312 77.6989C89.3936 77.6989 88.5559 77.6989 87.7183 77.6989C86.8831 77.6989 86.0505 77.6989 85.2153 77.6989C84.3777 77.6989 83.54 77.6989 82.7024 77.6989C82.2873 77.6915 81.8722 77.6542 81.4596 77.684C80.6965 77.7387 80.1795 77.3684 79.8614 76.737C79.5283 76.0759 79.8216 75.4942 80.2342 74.9623C80.9874 74.4379 81.8623 74.5646 82.6999 74.5C83.54 74.5 84.3777 74.5 85.2178 74.5C86.0505 74.5 86.8831 74.5 87.7158 74.5H90.2312C91.0738 74.5124 91.9338 74.679 92.7267 74.2365C93.532 73.891 94.0813 73.3467 94.1211 72.4146C94.2802 71.577 94.4393 70.7418 94.5983 69.9042C94.7301 69.069 94.8643 68.2314 94.996 67.3963C95.0631 67.0582 95.1352 66.7227 95.1924 66.3821C95.4136 65.0499 95.6298 63.7151 95.8461 62.3829C95.9853 61.5502 96.1245 60.715 96.2612 59.8824C96.4178 59.0447 96.5744 58.2046 96.731 57.367C96.8925 56.5293 97.0516 55.6917 97.2132 54.8541C97.3399 54.0214 97.4642 53.1863 97.591 52.3536C97.76 51.419 97.9215 50.4844 98.1055 49.5523C98.1701 49.2193 98.108 49.0652 97.7426 49.1696C97.5562 49.1547 97.3697 49.1248 97.1858 49.1248C85.9187 49.1248 74.6492 49.1248 63.3821 49.1323C63.1832 49.1323 62.9844 49.1547 62.7532 49.1671C62.7681 49.4355 62.7806 49.6418 62.7905 49.8456C62.9148 50.6808 63.0415 51.5135 63.1658 52.3486C63.2354 53.1813 63.3075 54.0164 63.3771 54.8491C63.126 55.0877 62.875 55.3238 62.624 55.5625C62.5071 55.5973 62.3878 55.6321 62.271 55.6669C62.0622 55.6967 61.851 55.7265 61.6422 55.7563C61.2296 55.4556 60.8194 55.1523 60.4068 54.8516C60.2751 54.0164 60.1434 53.1838 60.0091 52.3486C59.9669 52.11 59.9296 51.8689 59.8799 51.6303C59.7531 51.0337 59.6214 50.4397 59.4921 49.8432C59.4499 49.5151 59.5319 49.0552 59.3455 48.8812C58.8906 48.4562 58.314 48.1654 57.787 47.8199C57.6777 47.6608 57.5683 47.4993 57.4565 47.3402C57.1731 46.5026 56.8898 45.6624 56.6089 44.8248C56.7406 43.9896 56.8724 43.1545 57.0016 42.3193C57.2154 41.9564 57.4291 41.5936 57.6429 41.2282C58.222 40.823 58.8036 40.4179 59.3828 40.0127C59.517 39.113 59.6512 38.2132 59.7854 37.3159C59.855 37.0027 59.9023 36.6796 60.0017 36.3739C60.4491 35.0093 60.9139 33.6522 61.3712 32.2925C61.9255 31.353 62.45 30.3936 63.044 29.4764C63.5362 28.7158 64.1079 28.0049 64.6423 27.2717C64.8113 27.1027 64.9803 26.9312 65.1493 26.7622C65.8701 26.101 66.5884 25.4398 67.3093 24.7812C67.4261 24.6867 67.5429 24.5923 67.6597 24.4953C69.3325 23.5433 71.0053 22.5914 72.6781 21.6369C73.5207 21.3585 74.3608 21.0777 75.2034 20.7993C76.0336 20.6526 76.8638 20.506 77.694 20.3593C78.1613 20.3196 78.6285 20.2698 79.0958 20.245C81.1564 20.1331 83.1896 20.3568 85.2103 20.7346C86.048 20.9733 86.8881 21.2144 87.7257 21.453C89.3886 22.3304 91.0514 23.2078 92.7118 24.0852C93.0051 24.3139 93.3009 24.5425 93.5942 24.7712C94.146 25.2609 94.6953 25.753 95.2471 26.2427C95.5652 26.5907 95.8809 26.9386 96.199 27.2866L97.7376 29.1881C97.8693 29.3844 98.0011 29.5808 98.1328 29.7796C98.5554 30.6148 98.9754 31.4499 99.398 32.2851C99.6714 32.8543 99.9473 33.421 100.221 33.9902C100.305 34.2636 100.39 34.537 100.472 34.8104C100.69 35.6854 100.909 36.5603 101.128 37.4352L101.13 37.4402ZM100.991 44.8273C100.999 44.5762 101.041 44.3202 101.004 44.0791C100.929 43.6168 100.889 43.1048 100.275 42.9954C99.4328 42.9457 98.5926 42.896 97.75 42.8438H92.7342C91.899 42.8438 91.0663 42.8438 90.2312 42.8438H87.7183C86.8831 42.8438 86.0505 42.8438 85.2153 42.8438C84.3777 42.8438 83.54 42.8438 82.7024 42.8438C81.8673 42.8438 81.0346 42.8438 80.1994 42.8438H77.6865C76.8514 42.8438 76.0187 42.8438 75.1836 42.8438H72.6706C71.8355 42.8438 71.0028 42.8438 70.1677 42.8438C69.33 42.8438 68.4924 42.8438 67.6548 42.8438H62.6389C62.2511 42.8363 61.8634 42.8438 61.4756 42.8214C60.9512 42.7916 60.4615 42.8314 60.126 43.3086C60.0415 43.7933 59.9122 44.278 59.8799 44.7676C59.8352 45.486 60.2925 45.9458 61.0257 45.9657C61.5651 45.9806 62.1045 45.9532 62.6414 45.9458C63.4765 45.9458 64.3117 45.9458 65.1468 45.9458H95.2371C96.0748 45.9458 96.9099 45.9458 97.7476 45.9458C98.5877 45.9209 99.4303 45.8936 100.27 45.8687C100.79 45.7146 101.026 45.3642 100.986 44.8273H100.991ZM75.186 24.1598C74.6641 24.3536 74.1421 24.55 73.6226 24.7439C73.3094 24.8806 72.9938 25.0173 72.6806 25.154C69.9315 26.4341 67.6672 28.3181 65.9795 30.8211C65.1443 32.0589 64.5403 33.4508 63.832 34.7731C63.571 35.6158 63.3075 36.4584 63.0465 37.3035C62.9023 38.0988 62.7557 38.8967 62.6066 39.7169H65.1692C65.9969 39.7169 66.8271 39.7169 67.6548 39.7169C68.4949 39.7169 69.335 39.7169 70.1751 39.7169H72.6681C73.5083 39.7169 74.3484 39.7169 75.1885 39.7169C76.0187 39.7169 76.8514 39.7169 77.6815 39.7169C78.5217 39.7169 79.3618 39.7169 80.2019 39.7169C81.0321 39.7169 81.8648 39.7169 82.6949 39.7169C83.5351 39.7169 84.3752 39.7169 85.2153 39.7169H87.7083C88.5485 39.7169 89.3886 39.7169 90.2287 39.7169H92.7217C93.5619 39.7169 94.402 39.7169 95.2421 39.7169C96.0723 39.7169 96.9049 39.7169 97.7351 39.7194C97.8867 39.7343 98.0408 39.7468 98.1925 39.7617C98.1651 39.5032 98.1577 39.3043 98.1204 39.108C98.0036 38.504 97.8768 37.9 97.7525 37.2985H97.755C97.5139 36.4658 97.2728 35.6282 97.0317 34.793C96.9248 34.5122 96.8552 34.2089 96.7036 33.9529C96.286 33.2346 95.8362 32.5336 95.3937 31.8302C94.9662 31.1467 94.5337 30.4681 94.1012 29.7871C93.6439 29.285 93.1865 28.7829 92.7292 28.2833C92.324 27.9428 91.9189 27.6023 91.5137 27.2618C91.0912 26.961 90.6687 26.6578 90.2436 26.357C90.1467 26.2874 90.0572 26.2079 89.9528 26.1532C89.2096 25.7679 88.464 25.3901 87.7183 25.0098C87.5045 24.9005 87.2908 24.7911 87.077 24.6792C86.4556 24.468 85.8317 24.2567 85.2103 24.0454C84.3727 23.8714 83.5351 23.6999 82.6999 23.5259C81.8648 23.4887 81.0296 23.4489 80.1969 23.4116C79.3593 23.4837 78.5217 23.5558 77.684 23.6279C76.8514 23.8043 76.0162 23.9808 75.1836 24.1598H75.186Z" fill="#101F9D"/>
<path d="M26.5433 54.7894H26.2252C25.9841 54.7223 25.7405 54.6651 25.5044 54.5881C24.6419 54.3097 23.9186 53.8374 23.3344 53.1315C22.9243 52.6369 22.3899 52.2342 22.0395 51.7073C21.4578 50.8324 19.8571 50.5863 19.1338 51.2251C18.5323 51.757 17.9706 52.3486 17.466 52.9774C17.0161 53.5392 16.4768 53.9692 15.8554 54.2848C15.4005 54.516 14.886 54.6254 14.3988 54.7894H13.1287C13.1038 54.7645 13.0815 54.7198 13.0516 54.7173C10.8917 54.4041 9.24375 52.4505 9.24375 50.3203C9.24375 49.3485 9.26364 48.3741 9.32826 47.4023C9.37797 46.6591 8.74913 45.7295 8.0134 45.6052C7.24536 45.476 6.43257 45.4287 5.66205 45.5257C3.77053 45.7643 2.15491 45.3293 0.979234 43.7758C-0.0995029 42.3516 -0.293377 40.7807 0.424952 39.1154C0.76299 38.33 1.31479 37.7309 1.95358 37.1866C2.37115 36.8287 2.73653 36.4012 3.17648 36.0755C4.19059 35.3224 4.16573 33.6844 3.24607 32.8741C2.50289 32.2204 1.76467 31.5593 1.07617 30.8509C0.439866 30.1972 0.124198 29.3421 0.0521169 28.4573C-0.0821039 26.8417 0.447322 25.4572 1.72739 24.4008C2.46312 23.7919 3.29827 23.4315 4.26267 23.4389C5.31407 23.4464 6.36546 23.5085 7.41686 23.5085C8.30918 23.5085 9.37052 22.5888 9.32826 21.5921C9.28601 20.5929 9.25121 19.5937 9.25121 18.5945C9.25121 17.4313 9.69116 16.4147 10.4791 15.5895C11.5156 14.5058 12.7956 14.0385 14.3218 14.215C15.4105 14.3417 16.3301 14.7593 17.0857 15.5298C17.7295 16.1835 18.3285 16.882 18.9623 17.5456C19.5638 18.1745 20.4736 18.3584 21.1049 17.9035C21.9028 17.3319 22.5987 16.5986 23.2549 15.8579C23.7371 15.3111 24.2715 14.8538 24.9202 14.5729C26.1605 14.031 27.4481 14.0584 28.6909 14.558C30.1896 15.1595 31.3778 16.7378 31.3827 18.4454C31.3852 19.4173 31.3529 20.3916 31.3032 21.3635C31.2386 22.6535 32.4043 23.7098 33.918 23.5184C34.9595 23.3867 36.0034 23.2873 37.0523 23.5135C38.6779 23.8615 39.7491 24.8408 40.3531 26.3619C40.4774 26.6751 40.5669 27.0032 40.6738 27.3263V28.676C40.6216 28.7854 40.547 28.8898 40.5197 29.0066C40.2885 29.9784 39.774 30.7788 39.0482 31.4499C38.4343 32.0191 37.7955 32.5634 37.2014 33.15C36.5105 33.8336 36.5154 35.049 37.1691 35.7574C37.6588 36.2868 38.1783 36.7939 38.74 37.2438C39.4683 37.8279 40.025 38.5164 40.3581 39.3814C40.4799 39.697 40.5694 40.0251 40.6738 40.3458V41.6954C40.5868 41.9539 40.5048 42.2149 40.4103 42.4709C39.7119 44.3699 37.9869 45.5978 35.9512 45.5829C35.0315 45.5754 34.1119 45.5406 33.1947 45.5033C32.4217 45.471 31.9246 45.8985 31.5617 46.5025C31.1516 47.1836 31.338 47.9417 31.3405 48.6774C31.3405 49.5747 31.4374 50.5043 31.246 51.3643C30.913 52.8531 29.9336 53.8921 28.4945 54.4514C28.1217 54.5955 27.7265 54.68 27.3437 54.7919H26.5508L26.5433 54.7894ZM6.76067 42.9407C6.76067 42.9407 6.76067 42.9531 6.76067 42.9606C6.86755 42.9606 6.97194 42.968 7.07882 42.9606C8.3738 42.8636 9.50971 43.2713 10.4517 44.1387C11.8536 45.4312 12.0003 47.1189 11.8312 48.8862C11.7616 49.602 11.6523 50.3303 11.9456 51.0138C12.296 51.8341 13.3077 52.4803 14.3044 52.182C15.1097 51.9409 15.5397 51.2847 16.0741 50.7305C16.616 50.1687 17.1354 49.5697 17.7469 49.09C18.5199 48.481 19.452 48.3294 20.4437 48.3443C21.6915 48.3642 22.7379 48.7942 23.6004 49.6691C24.2541 50.3328 24.8506 51.0536 25.5044 51.7147C26.3967 52.6145 27.7563 52.2939 28.4572 51.4438C28.8673 50.9442 28.8574 50.375 28.8524 49.7859C28.845 48.7544 28.7878 47.7155 28.8698 46.6914C28.9593 45.5978 29.5558 44.7427 30.3736 44.007C31.7034 42.809 33.2867 42.8984 34.8923 43.0078C35.7126 43.0625 36.5328 43.1544 37.276 42.6076C38.392 41.7849 38.3274 40.2264 37.3605 39.3664C36.6695 38.7525 35.9661 38.1485 35.3273 37.4824C33.9031 35.9935 33.7813 33.7018 34.8849 31.9793C35.5386 30.9602 36.5577 30.2991 37.4152 29.4788C37.9347 28.9817 38.2056 28.3827 38.1062 27.7191C37.9173 26.4589 36.9951 25.8599 35.8418 25.9046C35.1384 25.9319 34.44 26.0239 33.7366 26.0512C32.28 26.1109 31.0397 25.6411 30.0132 24.5698C28.8027 23.3072 28.6585 21.791 28.8052 20.1629C28.8648 19.5117 28.922 18.8282 28.7903 18.2018C28.4696 16.6732 26.3892 16.1984 25.3627 17.3393C24.6369 18.1446 23.9086 18.9599 23.0958 19.6758C22.1861 20.4786 21.0428 20.7644 19.8497 20.6476C18.3235 20.496 17.2448 19.5664 16.2953 18.4379C15.8877 17.9508 15.4602 17.4561 14.9556 17.0783C14.2919 16.5812 13.5338 16.5589 12.7907 16.9839C12.1046 17.3766 11.7666 17.9731 11.779 18.7561C11.7939 19.728 11.8387 20.7023 11.8536 21.6742C11.871 22.82 11.3963 23.7919 10.6382 24.5972C9.71601 25.579 8.54282 26.0786 7.18073 26.0537C6.2735 26.0388 5.36875 25.999 4.46152 25.9767C3.59405 25.9543 3.06214 26.4415 2.73405 27.1772C2.40347 27.9154 2.51532 28.6412 3.0348 29.2377C3.50706 29.7796 4.03897 30.2842 4.60568 30.7316C5.90066 31.7556 6.53697 33.0481 6.46986 34.7135C6.42512 35.8593 6.00009 36.8262 5.22956 37.629C4.56591 38.3175 3.82521 38.929 3.13422 39.5926C2.54514 40.1569 2.37612 41.0616 2.73902 41.8495C3.00994 42.4336 3.74319 43.0799 4.55845 43.0451C5.2917 43.0153 6.02743 42.9805 6.76067 42.9457V42.9407Z" fill="#101F9D"/>
<path d="M11.4634 34.4823C11.3739 29.623 15.4204 25.5144 20.3766 25.5815C25.3105 25.6486 28.7778 29.4689 29.1706 33.5701C29.7224 39.3267 24.8805 43.746 19.6334 43.3583C15.4378 43.0476 11.4161 39.4286 11.4634 34.4823ZM20.2946 40.818C23.67 40.8354 26.68 38.1635 26.6726 34.4724C26.6651 30.8683 23.921 28.2063 20.3468 28.1242C17.0882 28.0472 13.6606 30.7838 14.0111 35.0938C14.2497 38.0143 16.7775 40.823 20.2946 40.8205V40.818Z" fill="#101F9D"/>
</g>
<defs>
<clipPath id="clip0_719_1043">
<rect width="104.046" height="77.8853" fill="white"/>
</clipPath>
</defs>
</svg>
